<?xml version="1.0" standalone="no"?>
<!DOCTYPE svg PUBLIC "-//W3C//DTD SVG 1.1//EN" "http://www.w3.org/Graphics/SVG/1.1/DTD/svg11.dtd" >
<svg xmlns="http://www.w3.org/2000/svg" xmlns:xlink="http://www.w3.org/1999/xlink" version="1.1">
<metadata>
Created by FontForge 20170731 at Mon May 23 15:10:59 2016
 By Aleksey,,,
(URW)++,Copyright 2015 by (URW)++ Design &#38; Development
</metadata>
<defs>
<font id="HusqvarnaGothic-Regular" horiz-adv-x="1065" >
  <font-face 
    font-family="Husqvarna Gothic"
    font-weight="400"
    font-stretch="normal"
    units-per-em="2048"
    panose-1="0 0 8 0 0 0 0 0 0 0"
    ascent="1638"
    descent="-410"
    x-height="1024"
    cap-height="1434"
    bbox="-82 -439 8196 1882"
    underline-thickness="102"
    underline-position="-307"
    unicode-range="U+0020-FB02"
  />
<missing-glyph horiz-adv-x="410" 
d="M41 0v1434h328v-1434h-328zM328 41v1352h-246v-1352h246z" />
    <glyph glyph-name="onehalf" unicode="&#x31;&#x2f;&#x32;" horiz-adv-x="1565" 
d="M418 1434v-820h-127v666l-105 -61l-63 94l193 121h102zM1167 1434l-778 -1463h-143l778 1463h143zM1442 113v-113h-539v86l168 164q134 130 185 206.5t51 147.5q0 61 -34.5 97t-92.5 36q-102 0 -156 -162l-123 27q76 246 279 246q128 0 197 -69q65 -63 65 -175
q0 -84 -60.5 -179t-205.5 -241l-74 -73z" />
    <glyph glyph-name="fi" unicode="fi" horiz-adv-x="967" 
d="M524 1434v-127h-73q-66 0 -88.5 -36.5t-22.5 -143.5v-103h164v-127h-164v-897h-156v897h-143v127h143v105q0 159 54 228q59 77 198 77h88zM844 1024v-1024h-156v1024h156zM844 1372v-176h-156v176h156z" />
    <glyph glyph-name="fl" unicode="fl" horiz-adv-x="967" 
d="M524 1434v-127h-73q-66 0 -88.5 -36.5t-22.5 -143.5v-103h164v-127h-164v-897h-156v897h-143v127h143v105q0 159 54 228q59 77 198 77h88zM844 1434v-1434h-156v1434h156z" />
    <glyph glyph-name=".notdef" horiz-adv-x="410" 
d="M41 0v1434h328v-1434h-328zM328 41v1352h-246v-1352h246z" />
    <glyph glyph-name="glyph1" horiz-adv-x="0" 
 />
    <glyph glyph-name="glyph2" horiz-adv-x="410" 
 />
    <glyph glyph-name="space" unicode=" " horiz-adv-x="410" 
 />
    <glyph glyph-name="exclam" unicode="!" horiz-adv-x="483" 
d="M320 176v-176h-156v176h156zM320 1434v-1065h-156v1065h156z" />
    <glyph glyph-name="quotedbl" unicode="&#x22;" horiz-adv-x="680" 
d="M401 1434h156v-471h-156v471zM123 1434h156v-471h-156v471z" />
    <glyph glyph-name="numbersign" unicode="#" horiz-adv-x="1331" 
d="M348 1434h115v-410h405v410h115v-410h266v-111h-266v-392h266v-111h-266v-410h-115v410h-405v-410h-115v410h-266v111h266v392h-266v111h266v410zM463 913v-392h405v392h-405z" />
    <glyph glyph-name="dollar" unicode="$" horiz-adv-x="1106" 
d="M624 1585v-129q257 -39 344 -324l-149 -37q-55 181 -195 220v-529q200 -85 272 -155q107 -104 107 -271q0 -182 -122 -288q-100 -86 -257 -99v-125h-123v127q-300 38 -399 348l151 37q32 -98 97 -162t151 -84v555q-180 83 -253 162q-97 105 -97 264q0 169 110 269
q93 83 240 96v125h123zM839 360q0 81 -50 139.5t-165 114.5v-504q102 15 162 89q53 67 53 161zM315 1095q0 -84 44 -144.5t142 -109.5v482q-89 -13 -141 -82q-45 -60 -45 -146z" />
    <glyph glyph-name="percent" unicode="%" horiz-adv-x="1413" 
d="M399 1463q252 0 252 -336q0 -338 -252 -338q-256 0 -256 338q0 336 256 336zM399 1348q-129 0 -129 -221q0 -223 129 -223q127 0 127 223q0 221 -127 221zM1167 1434l-778 -1463h-144l779 1463h143zM1017 645q252 0 252 -336q0 -338 -252 -338q-256 0 -256 338
q0 336 256 336zM1017 530q-129 0 -129 -221q0 -223 129 -223q127 0 127 223q0 221 -127 221z" />
    <glyph glyph-name="ampersand" unicode="&#x26;" horiz-adv-x="1331" 
d="M1092 -29l-150 193q-121 -110 -199 -148q-91 -45 -206 -45q-182 0 -306 132q-108 114 -108 268q0 140 78 251q65 91 219 214q-89 117 -122.5 186t-33.5 136q0 141 92 227q83 78 213 78q142 0 233 -100q79 -86 79 -205q0 -81 -67.5 -176t-182.5 -177l332 -432l151 135
l92 -109l-155 -139l157 -203zM569 1328q-65 0 -107 -48t-42 -122q0 -48 27.5 -102t97.5 -142q180 125 180 244q0 76 -53 127q-45 43 -103 43zM854 277l-344 444q-128 -97 -179.5 -175t-51.5 -175q0 -115 83 -195q74 -70 175 -70q75 0 142 36t175 135z" />
    <glyph glyph-name="quotesingle" unicode="'" horiz-adv-x="401" 
d="M123 1434h156v-471h-156v471z" />
    <glyph glyph-name="parenleft" unicode="(" horiz-adv-x="655" 
d="M123 610q0 616 317 1014l93 -59q-246 -436 -246 -955q0 -513 246 -948l-93 -59q-317 397 -317 1007z" />
    <glyph glyph-name="parenright" unicode=")" horiz-adv-x="655" 
d="M533 610q0 -610 -318 -1007l-92 59q246 435 246 948q0 520 -246 955l92 59q318 -398 318 -1014z" />
    <glyph glyph-name="asterisk" unicode="*" horiz-adv-x="844" 
d="M369 1211l-21 223h146l-23 -225l207 94l43 -143l-219 -45l153 -173l-114 -88l-119 201l-121 -201l-112 86l151 175l-217 45l43 143z" />
    <glyph glyph-name="plus" unicode="+" horiz-adv-x="1106" 
d="M102 631v135h383v403h135v-403h383v-135h-383v-404h-135v404h-383z" />
    <glyph glyph-name="comma" unicode="," horiz-adv-x="360" 
d="M258 176v-176l-62 -176h-74l42 176h-62v176h156z" />
    <glyph glyph-name="hyphen" unicode="-" horiz-adv-x="696" 
d="M102 528v156h492v-156h-492z" />
    <glyph glyph-name="period" unicode="." horiz-adv-x="360" 
d="M258 176v-176h-156v176h156z" />
    <glyph glyph-name="slash" unicode="/" horiz-adv-x="852" 
d="M811 1462l-614 -1491h-156l614 1491h156z" />
    <glyph glyph-name="zero" unicode="0" horiz-adv-x="1098" 
d="M549 1463q260 0 374 -224q93 -183 93 -522q0 -746 -467 -746t-467 746t467 746zM549 1328q-166 0 -240 -176q-63 -150 -63 -435q0 -611 303 -611q168 0 242 177q61 148 61 434q0 329 -81 477q-74 134 -222 134z" />
    <glyph glyph-name="one" unicode="1" horiz-adv-x="627" 
d="M463 1434v-1434h-152v1248l-194 -127l-76 116l291 197h131z" />
    <glyph glyph-name="two" unicode="2" horiz-adv-x="1024" 
d="M942 135v-135h-860v106l279 289q254 265 338 403q79 131 79 259q0 130 -75 204q-69 67 -183 67q-98 0 -173 -73.5t-115 -209.5l-144 37q111 381 434 381q201 0 315 -115q105 -108 105 -291q0 -150 -107 -323.5t-344 -405.5l-184 -193h635z" />
    <glyph glyph-name="three" unicode="3" horiz-adv-x="1081" 
d="M735 762v-4q265 -76 265 -365q0 -200 -150 -320q-128 -102 -317 -102q-311 0 -451 289l123 70q62 -119 139 -171.5t189 -52.5q144 0 229 88q74 78 74 199q0 291 -336 291h-35v135h33q297 0 297 275q0 118 -75 180q-65 54 -173 54q-93 0 -157.5 -37.5t-133.5 -131.5
l-113 82q162 222 404 222q190 0 309 -119q103 -103 103 -250q0 -247 -224 -332z" />
    <glyph glyph-name="four" unicode="4" horiz-adv-x="1122" 
d="M856 1434v-943h225v-135h-225v-356h-152v356h-622v114l602 964h172zM704 491v728h-4l-454 -728h458z" />
    <glyph glyph-name="five" unicode="5" 
d="M901 1434v-135h-586l-34 -436h4q42 42 107.5 67t135.5 25q228 0 349 -146q106 -129 106 -346q0 -244 -149 -378q-127 -114 -326 -114q-145 0 -262 83q-101 71 -164 194l123 72q63 -111 153 -168q74 -46 150 -46q143 0 230 104q81 97 81 253q0 175 -93 274q-79 83 -198 83
q-84 0 -158.5 -46.5t-121.5 -128.5l-127 39l63 750h717z" />
    <glyph glyph-name="six" unicode="6" horiz-adv-x="1081" 
d="M934 1299l-129 -82q-85 111 -234 111q-193 0 -281 -222q-58 -147 -58 -346h4q117 133 336 133q198 0 322 -151q106 -130 106 -310q0 -212 -123 -338q-119 -123 -326 -123q-469 0 -469 644q0 450 122 652q118 196 367 196q239 0 363 -164zM256 432q0 -163 94 -251
q78 -75 201 -75q142 0 223 98q72 87 72 228q0 159 -93 250q-79 76 -202 78q-141 2 -223 -99q-72 -89 -72 -229z" />
    <glyph glyph-name="seven" unicode="7" horiz-adv-x="922" 
d="M41 1434h840v-106l-553 -1328h-164l561 1299h-684v135z" />
    <glyph glyph-name="eight" unicode="8" horiz-adv-x="1118" 
d="M774 776v-4q262 -93 262 -393q0 -194 -151 -308q-132 -100 -336 -100q-223 0 -354 127q-113 109 -113 273q0 307 256 401v4q-120 67 -162 154q-33 67 -33 176q0 166 128 267q114 90 288 90q195 0 314 -115q102 -99 102 -242q0 -120 -44.5 -193t-156.5 -137zM246 403
q0 -147 104 -230q85 -67 209 -67q143 0 231 90q78 81 78 207q0 145 -101 228q-84 70 -208 70q-143 0 -232 -90q-81 -82 -81 -208zM307 1086q0 -113 83 -183q70 -59 169 -59q115 0 187 74q65 67 65 168q0 116 -83 185q-70 57 -169 57q-115 0 -187 -74q-65 -67 -65 -168z" />
    <glyph glyph-name="nine" unicode="9" horiz-adv-x="1081" 
d="M148 135l129 82q85 -111 233 -111q194 0 282 222q58 147 58 346h-4q-118 -133 -336 -133q-198 0 -322 152q-106 129 -106 309q0 212 123 338q119 123 326 123q469 0 469 -644q0 -450 -122 -652q-118 -196 -368 -196q-238 0 -362 164zM826 1002q0 163 -94 251
q-78 75 -201 75q-142 0 -223 -98q-72 -87 -72 -228q0 -159 93 -249q79 -77 202 -79q141 -2 223 99q72 88 72 229z" />
    <glyph glyph-name="colon" unicode=":" horiz-adv-x="360" 
d="M258 901v-176h-156v176h156zM258 176v-176h-156v176h156z" />
    <glyph glyph-name="semicolon" unicode=";" horiz-adv-x="360" 
d="M258 176v-176l-62 -176h-74l42 176h-62v176h156zM258 901v-176h-156v176h156z" />
    <glyph glyph-name="less" unicode="&#x3c;" horiz-adv-x="1106" 
d="M102 631v135l901 430v-156l-717 -342l717 -342v-155z" />
    <glyph glyph-name="equal" unicode="=" horiz-adv-x="1106" 
d="M102 442v135h901v-135h-901zM102 819v135h901v-135h-901z" />
    <glyph glyph-name="greater" unicode="&#x3e;" horiz-adv-x="1106" 
d="M1003 766v-135l-901 -430v155l717 342l-717 342v156z" />
    <glyph glyph-name="question" unicode="?" horiz-adv-x="879" 
d="M461 176v-176h-156v176h156zM305 369v49q0 102 40 172.5t152 165.5q95 82 129 133q48 74 48 166q0 139 -73 212q-60 61 -154 61q-97 0 -159 -56t-97 -176l-150 37q100 330 397 330q194 0 301 -116q99 -107 99 -292q0 -116 -44.5 -195.5t-167.5 -181.5q-90 -75 -121 -119
q-44 -64 -44 -141v-49h-156z" />
    <glyph glyph-name="at" unicode="@" horiz-adv-x="1597" 
d="M1138 205q-92 0 -145 108q-93 -108 -225 -108q-153 0 -254 111q-88 96 -88 227q0 151 109 253q93 87 214 87q150 0 225 -95h4l17 72h119v-418q0 -60 16 -86t54 -26q64 0 108.5 79t44.5 193q0 250 -171 397q-143 123 -346 123q-155 0 -286 -79q-128 -77 -203 -208
q-76 -135 -76 -293q0 -157 77 -290q75 -129 203 -204q131 -77 286 -77q215 0 348 90l84 -98q-90 -67 -189.5 -96t-242.5 -29q-196 0 -355 88q-160 88 -250 245q-94 164 -94 371q0 200 94 366q91 161 249 254q162 95 355 95q173 0 327 -90q148 -86 236 -227q91 -146 91 -303
q0 -204 -95 -322q-89 -110 -241 -110zM573 543q0 -90 63 -149q55 -52 132 -52q86 0 142 66q48 57 48 135q0 87 -62 147q-54 52 -128 52q-88 0 -146 -67q-49 -57 -49 -132z" />
    <glyph glyph-name="A" unicode="A" 
d="M328 438l-123 -438h-164l416 1434h147l420 -1434h-164l-123 438h-409zM365 573h335l-165 597h-5z" />
    <glyph glyph-name="B" unicode="B" horiz-adv-x="1044" 
d="M707 758v-4q128 -25 196 -131q60 -93 60 -230q0 -213 -144 -312q-118 -81 -323 -81h-373v1434h326q473 0 473 -361q0 -263 -215 -315zM287 135h168q190 0 265 55q79 59 79 203q0 170 -106 237q-85 54 -257 54h-149v-549zM287 819h152q177 0 248 58q71 59 71 196
q0 121 -76.5 173.5t-253.5 52.5h-141v-480z" />
    <glyph glyph-name="C" unicode="C" horiz-adv-x="1106" 
d="M873 399l151 -36q-52 -218 -165 -309q-104 -83 -288 -83q-274 0 -389 207q-100 178 -100 539q0 401 131 582q120 164 358 164q195 0 300 -101q86 -81 137 -250l-150 -37q-42 138 -114 197q-67 56 -172 56q-180 0 -259 -177q-67 -149 -67 -434q0 -337 88 -482
q78 -129 238 -129q127 0 202 82q65 71 99 211z" />
    <glyph glyph-name="D" unicode="D" horiz-adv-x="1085" 
d="M123 1434h264q353 0 494 -193q123 -167 123 -524q0 -429 -158 -586q-132 -131 -430 -131h-293v1434zM287 1299v-1164h100q175 0 266 46q100 51 144 176q43 124 43 360q0 334 -119 464q-107 118 -348 118h-86z" />
    <glyph glyph-name="E" unicode="E" horiz-adv-x="942" 
d="M123 1434h717v-135h-553v-480h430v-135h-430v-549h573v-135h-737v1434z" />
    <glyph glyph-name="F" unicode="F" horiz-adv-x="881" 
d="M123 1434h717v-135h-553v-521h430v-135h-430v-643h-164v1434z" />
    <glyph glyph-name="G" unicode="G" horiz-adv-x="1106" 
d="M572 -29q-275 0 -390 207q-100 178 -100 539q0 401 131 582q120 164 359 164q194 0 299 -101q86 -81 137 -250l-150 -37q-42 138 -114 197q-67 56 -172 56q-180 0 -259 -177q-67 -149 -67 -434q0 -337 88 -482q78 -129 238 -129q114 0 200 90q88 92 88 238v115h-276v135
h440v-684h-102l-35 106q-38 -59 -126.5 -97t-188.5 -38z" />
    <glyph glyph-name="H" unicode="H" horiz-adv-x="1147" 
d="M287 684v-684h-164v1434h164v-615h573v615h164v-1434h-164v684h-573z" />
    <glyph glyph-name="I" unicode="I" horiz-adv-x="410" 
d="M287 1434v-1434h-164v1434h164z" />
    <glyph glyph-name="J" unicode="J" horiz-adv-x="655" 
d="M41 0v135h76q124 0 190 88q62 83 62 230v981h164v-981q0 -254 -124 -363q-101 -90 -292 -90h-76z" />
    <glyph glyph-name="K" unicode="K" 
d="M287 1434v-750h4l524 750h189l-428 -594l448 -840h-180l-373 694l-184 -258v-436h-164v1434h164z" />
    <glyph glyph-name="L" unicode="L" horiz-adv-x="840" 
d="M287 1434v-1299h512v-135h-676v1434h164z" />
    <glyph glyph-name="M" unicode="M" horiz-adv-x="1352" 
d="M1229 1434v-1434h-147v1155h-4l-330 -1155h-133l-341 1155h-4v-1155h-147v1434h219l336 -1145h4l332 1145h215z" />
    <glyph glyph-name="N" unicode="N" horiz-adv-x="1126" 
d="M1004 1434v-1434h-106l-624 1112h-4v-1112h-147v1434h131l599 -1067h4v1067h147z" />
    <glyph glyph-name="O" unicode="O" horiz-adv-x="1147" 
d="M82 717q0 401 131 582q120 164 358 164q275 0 394 -214q100 -181 100 -532q0 -412 -132 -588q-118 -158 -362 -158q-274 0 -389 207q-100 178 -100 539zM246 717q0 -337 88 -482q78 -129 237 -129q184 0 262 169q68 147 68 442q0 325 -89 475q-81 136 -241 136
q-179 0 -258 -177q-67 -149 -67 -434z" />
    <glyph glyph-name="P" unicode="P" horiz-adv-x="1044" 
d="M123 1434h350q490 0 490 -422q0 -414 -473 -414h-203v-598h-164v1434zM287 733h190q182 0 254 69q68 65 68 210q0 155 -79.5 221t-266.5 66h-166v-566z" />
    <glyph glyph-name="Q" unicode="Q" horiz-adv-x="1147" 
d="M82 717q0 401 131 582q120 164 358 164q275 0 394 -214q100 -181 100 -532q0 -500 -201 -660l138 -221h-172l-95 158q-76 -23 -164 -23q-274 0 -389 207q-100 178 -100 539zM246 717q0 -337 88 -482q78 -129 237 -129q184 0 262 169q68 147 68 442q0 325 -89 475
q-81 136 -241 136q-179 0 -258 -177q-67 -149 -67 -434z" />
    <glyph glyph-name="R" unicode="R" 
d="M123 1434h350q490 0 490 -422q0 -329 -301 -398l342 -614h-174l-332 598h-211v-598h-164v1434zM287 733h190q182 0 254 69q68 65 68 210q0 155 -79.5 221t-266.5 66h-166v-566z" />
    <glyph glyph-name="S" unicode="S" horiz-adv-x="1004" 
d="M907 1133l-149 -37q-69 232 -277 232q-106 0 -170 -72q-57 -63 -57 -160q0 -126 107 -206q56 -42 203 -104q199 -84 272 -155q106 -104 106 -271q0 -197 -141 -302q-115 -87 -291 -87q-184 0 -308 103q-109 90 -161 250l152 37q40 -121 126 -189q84 -66 193 -66
q124 0 199 78q67 69 67 176q0 113 -103 190q-54 40 -196 104q-203 90 -279 164q-110 109 -110 278q0 182 127 283q108 84 272 84t275 -95q98 -84 143 -235z" />
    <glyph glyph-name="T" unicode="T" horiz-adv-x="942" 
d="M41 1434h860v-135h-348v-1299h-164v1299h-348v135z" />
    <glyph glyph-name="U" unicode="U" horiz-adv-x="1147" 
d="M287 1434v-869q0 -231 60 -338q67 -121 220 -121q181 0 248 152q45 101 45 287v889h164v-889q0 -299 -103 -432q-109 -142 -354 -142q-269 0 -371 187q-73 135 -73 397v879h164z" />
    <glyph glyph-name="V" unicode="V" 
d="M205 1434l325 -1149h5l325 1149h164l-430 -1434h-127l-426 1434h164z" />
    <glyph glyph-name="W" unicode="W" horiz-adv-x="1475" 
d="M205 1434l192 -1176h4l254 1176h164l252 -1176h4l195 1176h164l-285 -1434h-164l-248 1139h-4l-243 -1139h-164l-285 1434h164z" />
    <glyph glyph-name="X" unicode="X" 
d="M983 1434l-364 -682l405 -752h-176l-307 586h-4l-320 -586h-176l410 746l-369 688h176l275 -529h4l270 529h176z" />
    <glyph glyph-name="Y" unicode="Y" 
d="M1024 1434l-407 -828v-606h-164v606l-412 828h172l322 -676h4l313 676h172z" />
    <glyph glyph-name="Z" unicode="Z" horiz-adv-x="1004" 
d="M123 1434h778v-106l-635 -1193h656v-135h-840v106l635 1193h-594v135z" />
    <glyph glyph-name="bracketleft" unicode="[" horiz-adv-x="655" 
d="M307 1515v-1801h185v-111h-328v2023h328v-111h-185z" />
    <glyph glyph-name="backslash" unicode="\" horiz-adv-x="852" 
d="M655 -29l-614 1491h156l614 -1491h-156z" />
    <glyph glyph-name="bracketright" unicode="]" horiz-adv-x="655" 
d="M349 -286v1801h-185v111h328v-2023h-328v111h185z" />
    <glyph glyph-name="underscore" unicode="_" horiz-adv-x="1024" 
d="M1028 -41v-123h-1032v123h1032z" />
    <glyph glyph-name="grave" unicode="`" horiz-adv-x="586" 
d="M123 1372h217l123 -196h-135z" />
    <glyph glyph-name="a" unicode="a" horiz-adv-x="967" 
d="M844 0h-111l-24 106h-5q-96 -126 -290 -126q-161 0 -253 90q-79 78 -79 201q0 109 80 186t252 135l274 92v18q0 116 -49 165.5t-162 49.5q-87 0 -144.5 -43.5t-76.5 -123.5l-142 28q60 266 363 266q203 0 289 -95q78 -86 78 -265v-684zM688 344v213l-274 -98
q-176 -65 -176 -188q0 -75 47.5 -119.5t128.5 -44.5q129 0 206 72q68 64 68 165z" />
    <glyph glyph-name="b" unicode="b" horiz-adv-x="975" 
d="M258 106l-24 -106h-111v1434h156v-516h4q75 127 242 127q206 0 298 -177q70 -133 70 -360q0 -528 -368 -528q-87 0 -157 34t-105 92h-5zM279 725v-324q0 -139 72 -223q62 -71 153 -71q135 0 189 117q44 94 44 284q0 219 -58 316q-56 94 -175 94q-67 0 -129.5 -54
t-95.5 -139z" />
    <glyph glyph-name="c" unicode="c" horiz-adv-x="885" 
d="M684 295l139 -25q-42 -160 -127 -227q-81 -63 -221 -63q-209 0 -310 161q-83 134 -83 367q0 273 111 411q101 125 282 125q156 0 244 -88q70 -70 104 -206l-141 -25q-42 192 -207 192q-237 0 -237 -409q0 -212 60 -308q57 -93 177 -93q83 0 131 43.5t78 144.5z" />
    <glyph glyph-name="d" unicode="d" horiz-adv-x="975" 
d="M741 0l-25 106h-4q-35 -58 -105 -92t-157 -34q-368 0 -368 528q0 262 93 399q93 138 275 138q167 0 242 -127h4v516h156v-1434h-111zM696 401v324q-34 89 -100 143q-61 50 -125 50q-135 0 -189 -122q-44 -97 -44 -288q0 -217 58 -311q56 -90 175 -90q105 0 169 92
q56 81 56 202z" />
    <glyph glyph-name="e" unicode="e" horiz-adv-x="971" 
d="M496 107q184 0 239 188l140 -25q-42 -159 -138 -227q-88 -63 -241 -63q-222 0 -327 161q-87 133 -87 367q0 272 117 411q106 125 297 125q207 0 307 -168q86 -146 86 -409h-651q8 -191 73 -277q63 -83 185 -83zM242 594h487q-11 153 -70 237q-60 86 -163 86
q-231 0 -254 -323z" />
    <glyph glyph-name="f" unicode="f" horiz-adv-x="565" 
d="M524 1434v-127h-73q-66 0 -88.5 -36.5t-22.5 -143.5v-103h164v-127h-164v-897h-156v897h-143v127h143v105q0 159 54 228q59 77 198 77h88z" />
    <glyph glyph-name="g" unicode="g" horiz-adv-x="975" 
d="M475 -270q96 0 156 62q65 69 65 200v155h-4q-75 -127 -242 -127q-368 0 -368 516q0 262 93 386q90 122 275 122q81 0 151 -34t111 -92h4l25 106h111v-1012q0 -225 -120 -328q-94 -81 -257 -81q-152 0 -248 70q-94 68 -123 196l141 29q19 -79 80 -123.5t150 -44.5z
M696 463v282q-30 78 -91.5 125t-133.5 47q-136 0 -189 -110q-44 -91 -44 -279q0 -214 58 -300q55 -81 175 -81q103 0 169 103q56 89 56 213z" />
    <glyph glyph-name="h" unicode="h" horiz-adv-x="975" 
d="M279 1434v-516h4q36 60 106 93.5t158 33.5q305 0 305 -361v-684h-156v684q0 125 -32 174q-39 60 -140 60q-77 0 -145.5 -48t-99.5 -125v-745h-156v1434h156z" />
    <glyph glyph-name="i" unicode="i" horiz-adv-x="401" 
d="M279 1024v-1024h-156v1024h156zM279 1372v-176h-156v176h156z" />
    <glyph glyph-name="j" unicode="j" horiz-adv-x="442" 
d="M319 1024v-1118q0 -149 -61 -213q-58 -62 -185 -62h-53v127h53q49 0 69.5 42.5t20.5 144.5v1079h156zM319 1372v-176h-156v176h156z" />
    <glyph glyph-name="k" unicode="k" horiz-adv-x="889" 
d="M279 1434v-908h4l352 498h172l-278 -381l319 -643h-168l-243 500h-4l-154 -191v-309h-156v1434h156z" />
    <glyph glyph-name="l" unicode="l" horiz-adv-x="401" 
d="M279 1434v-1434h-156v1434h156z" />
    <glyph glyph-name="m" unicode="m" horiz-adv-x="1446" 
d="M801 745v-745h-156v684q0 233 -141 233q-73 0 -132.5 -45.5t-92.5 -126.5v-745h-156v1024h111l24 -106h5q76 126 253 126q195 0 254 -147h4q41 67 112.5 107t151.5 40q151 0 218 -85t67 -275v-684h-156v684q0 121 -29 173q-33 60 -112 60q-73 0 -132.5 -45.5
t-92.5 -126.5z" />
    <glyph glyph-name="n" unicode="n" horiz-adv-x="975" 
d="M234 1024l24 -106h5q34 56 112.5 91t171.5 35q305 0 305 -360v-684h-156v684q0 124 -32 173q-39 60 -140 60q-77 0 -145.5 -47.5t-99.5 -124.5v-745h-156v1024h111z" />
    <glyph glyph-name="o" unicode="o" horiz-adv-x="950" 
d="M475 -20q-209 0 -310 161q-83 134 -83 367q0 273 111 411q100 125 282 125q207 0 308 -162q85 -136 85 -374q0 -268 -109 -404q-101 -124 -284 -124zM475 107q136 0 192 120q45 96 45 281q0 409 -237 409t-237 -409q0 -212 60 -308q57 -93 177 -93z" />
    <glyph glyph-name="p" unicode="p" horiz-adv-x="975" 
d="M234 1024l24 -106h5q35 58 105 92t157 34q368 0 368 -528q0 -262 -93 -399q-93 -138 -275 -138q-167 0 -242 127h-4v-475h-156v1393h111zM279 745v-323q0 -143 72 -235q64 -81 153 -81q135 0 189 117q44 94 44 284q0 219 -58 316q-56 94 -175 94q-72 0 -133.5 -47
t-91.5 -125z" />
    <glyph glyph-name="q" unicode="q" horiz-adv-x="975" 
d="M716 918l25 106h111v-1393h-156v475h-4q-75 -127 -242 -127q-206 0 -298 177q-70 133 -70 360q0 528 368 528q87 0 157 -34t105 -92h4zM696 422v323q-30 78 -91.5 125t-133.5 47q-135 0 -189 -122q-44 -97 -44 -288q0 -217 58 -311q56 -90 175 -90q103 0 169 103
q56 89 56 213z" />
    <glyph glyph-name="r" unicode="r" horiz-adv-x="623" 
d="M234 1024l24 -106h5q40 66 115.5 96t203.5 30v-155q-30 8 -68 8q-130 0 -185 -76q-50 -69 -50 -219v-602h-156v1024h111z" />
    <glyph glyph-name="s" unicode="s" horiz-adv-x="815" 
d="M737 854l-114 -88q-91 143 -219 143q-81 0 -127 -43q-41 -38 -41 -98q0 -50 40.5 -83t160.5 -82q163 -66 225 -123q92 -84 92 -211q0 -143 -105 -222q-88 -67 -225 -67q-126 0 -232 63q-94 56 -151 150l115 86q108 -164 268 -164q87 0 135 47q41 41 41 106q0 60 -44.5 99
t-175.5 95q-154 66 -212 117q-84 76 -84 189q0 132 102 209q88 67 217 67q104 0 181.5 -44t152.5 -146z" />
    <glyph glyph-name="t" unicode="t" horiz-adv-x="586" 
d="M524 127v-127h-88q-135 0 -193.5 70.5t-58.5 234.5v592h-143v127h143l29 303h127v-303h164v-127h-164v-590q0 -106 21 -141q23 -39 90 -39h73z" />
    <glyph glyph-name="u" unicode="u" horiz-adv-x="975" 
d="M745 0l-24 106h-4q-34 -56 -114.5 -91t-174.5 -35q-305 0 -305 360v684h156v-684q0 -124 32 -173q39 -60 140 -60q77 0 145.5 47.5t99.5 124.5v745h156v-1024h-107z" />
    <glyph glyph-name="v" unicode="v" horiz-adv-x="938" 
d="M876 1024l-330 -1024h-155l-330 1024h160l246 -815h4l245 815h160z" />
    <glyph glyph-name="w" unicode="w" horiz-adv-x="1294" 
d="M895 209l178 815h159l-266 -1024h-155l-162 786h-4l-162 -786h-156l-266 1024h160l178 -815h4l166 815h156l165 -815h5z" />
    <glyph glyph-name="x" unicode="x" horiz-adv-x="901" 
d="M796 1024l-268 -492l311 -532h-164l-227 397h-4l-219 -397h-164l301 532l-289 492h164l207 -375h4l184 375h164z" />
    <glyph glyph-name="y" unicode="y" horiz-adv-x="938" 
d="M876 1024l-330 -1024q-69 -201 -143 -282q-79 -87 -199 -87h-82v127h61q141 0 207 242l-329 1024h159l246 -815h4l246 815h160z" />
    <glyph glyph-name="z" unicode="z" horiz-adv-x="909" 
d="M143 1024h643v-86l-500 -807v-4h521v-127h-705v86l500 807v4h-459v127z" />
    <glyph glyph-name="braceleft" unicode="{" horiz-adv-x="655" 
d="M82 533v161q147 66 147 299v356q0 130 76 208q63 65 149 65h120v-123h-85q-43 0 -78 -34t-35 -77v-425q0 -227 -151 -348q68 -45 109.5 -140.5t41.5 -208.5v-421q0 -44 35 -79.5t78 -35.5h85v-125h-120q-100 0 -166 84q-59 76 -59 188v357q0 235 -147 299z" />
    <glyph glyph-name="bar" unicode="|" horiz-adv-x="532" 
d="M328 1618v-2015h-123v2015h123z" />
    <glyph glyph-name="braceright" unicode="}" horiz-adv-x="655" 
d="M574 694v-161q-148 -64 -148 -299v-357q0 -129 -76 -207q-62 -65 -149 -65h-119v125h84q43 0 78 35.5t35 79.5v421q0 113 41.5 208.5t109.5 140.5q-151 121 -151 348v425q0 43 -34.5 77t-78.5 34h-84v123h119q101 0 166 -84q59 -76 59 -189v-356q0 -233 148 -299z" />
    <glyph glyph-name="nonbreakingspace" unicode="&#xa0;" horiz-adv-x="410" 
 />
    <glyph glyph-name="exclamdown" unicode="&#xa1;" horiz-adv-x="483" 
d="M320 1024v-176h-156v176h156zM320 655v-1065h-156v1065h156z" />
    <glyph glyph-name="cent" unicode="&#xa2;" horiz-adv-x="885" 
d="M258 -152l41 168q-217 106 -217 492q0 273 111 411q101 125 282 125q41 0 74 -6l31 129h116l-41 -163q120 -66 168 -254l-141 -25q-23 94 -61 135l-183 -751q11 -3 37 -3q83 0 131 43.5t78 145.5l139 -25q-42 -161 -127 -228q-81 -63 -221 -63q-26 0 -67 5l-33 -136h-117
zM238 508q0 -266 94 -352l186 757q-28 4 -43 4q-237 0 -237 -409z" />
    <glyph glyph-name="sterling" unicode="&#xa3;" horiz-adv-x="1085" 
d="M954 1254l-129 -84q-54 88 -103 123t-116 35q-197 0 -197 -273v-391h314l-41 -127h-273v-115q0 -202 -82 -287h656v-135h-861v115q47 48 85 137t38 150v135h-143l41 127h102v412q0 200 109 300q93 87 252 87q117 0 199.5 -49.5t148.5 -159.5z" />
    <glyph glyph-name="yen" unicode="&#xa5;" horiz-adv-x="1106" 
d="M185 606v127h225l-348 701h164l330 -676h4l321 676h164l-346 -701h223v-127h-284v-160h284v-127h-284v-319h-164v319h-289v127h289v160h-289z" />
    <glyph glyph-name="section" unicode="&#xa7;" horiz-adv-x="1106" 
d="M553 -84q100 0 176 66q70 61 70 143q0 63 -44.5 107.5t-164.5 101.5l-234 113q-118 57 -174 126q-59 75 -59 175q0 69 36.5 123.5t145.5 148.5q-56 45 -91.5 109t-35.5 121q0 150 123 246q104 81 244 81q210 0 362 -172l-114 -90q-102 119 -248 119q-88 0 -150 -62
q-53 -54 -53 -122q0 -82 69 -135q24 -18 115 -64l201 -100q129 -66 181 -115q75 -69 75 -154q0 -74 -45 -158.5t-121 -150.5q66 -54 106 -122.5t40 -125.5q0 -171 -136 -271q-112 -83 -274 -83q-258 0 -407 199q111 76 120 84q58 -63 136.5 -100.5t150.5 -37.5zM694 447
q54 37 89.5 92.5t35.5 99.5q0 60 -31 95.5t-124 83.5l-242 124q-135 -82 -135 -174q0 -114 147 -190z" />
    <glyph glyph-name="dieresis" unicode="&#xa8;" horiz-adv-x="709" 
d="M279 1372v-176h-156v176h156zM586 1372v-176h-156v176h156z" />
    <glyph glyph-name="copyright" unicode="&#xa9;" horiz-adv-x="1737" 
d="M580 717q0 -136 91 -225q80 -79 196 -79q60 0 118 27t94 72l109 -102q-128 -142 -322 -142q-199 0 -328 148q-110 127 -110 301q0 199 142 331q123 115 296 115q185 0 320 -135l-107 -106q-80 96 -212 96q-134 0 -217 -99q-70 -84 -70 -202zM123 717q0 203 102 376
q99 169 267 268q174 102 376 102q203 0 377 -102q168 -99 267 -268q102 -173 102 -376t-102 -377q-99 -168 -267 -267q-174 -102 -377 -102q-202 0 -376 102q-168 99 -267 267q-102 174 -102 377zM256 717q0 -165 84 -308q81 -138 219 -219q142 -84 308 -84q165 0 307 84
q138 81 219 219q84 143 84 308t-84 308q-81 138 -219 219q-142 84 -307 84q-166 0 -308 -84q-138 -81 -219 -219q-84 -143 -84 -308z" />
    <glyph glyph-name="ordfeminine" unicode="&#xaa;" horiz-adv-x="725" 
d="M602 819h-92l-11 45q-63 -57 -167 -57q-102 0 -159 58q-50 50 -50 128q0 141 202 205l156 50q0 108 -111 108q-93 0 -118 -100l-113 20q37 187 231 187q127 0 182 -60q50 -55 50 -168v-416zM481 1036v101l-143 -50q-92 -32 -92 -93q0 -37 23.5 -58.5t62.5 -21.5
q65 0 107 34.5t42 87.5z" />
    <glyph glyph-name="guillemotleft" unicode="&#xab;" horiz-adv-x="1044" 
d="M854 221l-321 316l321 313l68 -64l-205 -249l205 -252zM445 221l-322 316l322 313l67 -64l-205 -249l205 -252z" />
    <glyph glyph-name="uni00AD" unicode="&#xad;" horiz-adv-x="696" 
d="M102 528v156h492v-156h-492z" />
    <glyph glyph-name="registered" unicode="&#xae;" horiz-adv-x="1208" 
d="M449 1245h143q199 0 199 -168q0 -121 -90 -151l116 -207h-119l-104 188h-45v-188h-100v526zM549 1006h45q50 0 70.5 15.5t20.5 55.5q0 39 -22.5 55.5t-76.5 16.5h-37v-143zM123 982q0 214 159 357q137 124 323 124q214 0 357 -159q124 -137 124 -322q0 -215 -159 -358
q-137 -124 -322 -124q-215 0 -358 159q-124 137 -124 323zM221 982q0 -172 120 -285q105 -99 251 -99q172 0 291 127q105 110 105 257q0 170 -127 284q-109 99 -256 99q-170 0 -285 -127q-99 -109 -99 -256z" />
    <glyph glyph-name="macron" unicode="&#xaf;" horiz-adv-x="750" 
d="M123 1212v115h504v-115h-504z" />
    <glyph glyph-name="degree" unicode="&#xb0;" horiz-adv-x="614" 
d="M43 1198q0 118 87 197q76 68 177 68q117 0 196 -88q68 -75 68 -177q0 -117 -87 -196q-76 -68 -177 -68q-117 0 -196 88q-68 75 -68 176zM149 1198q0 -70 52 -117q45 -40 106 -40q71 0 118 52q40 44 40 105q0 71 -52 118q-44 40 -106 40q-71 0 -118 -52q-40 -44 -40 -106z
" />
    <glyph glyph-name="plusminus" unicode="&#xb1;" horiz-adv-x="1106" 
d="M102 631v135h383v403h135v-403h383v-135h-383v-404h-135v404h-383zM102 135h901v-135h-901v135z" />
    <glyph glyph-name="twosuperior" unicode="&#xb2;" horiz-adv-x="786" 
d="M664 727v-113h-539v86l168 164q134 131 185 207.5t51 147.5q0 61 -34.5 97t-92.5 36q-102 0 -156 -162l-123 27q76 246 279 246q128 0 197 -69q65 -64 65 -175q0 -84 -60.5 -179.5t-205.5 -241.5l-74 -73z" />
    <glyph glyph-name="threesuperior" unicode="&#xb3;" horiz-adv-x="827" 
d="M680 1238q0 -130 -101 -185q125 -56 125 -205q0 -122 -94 -193q-80 -61 -199 -61q-198 0 -288 185l104 61q72 -133 184 -133q71 0 114.5 39t43.5 102q0 142 -178 142h-39v114h39q154 0 154 133q0 54 -33 83.5t-92 29.5q-90 0 -166 -100l-99 67q108 146 265 146
q120 0 195 -73q65 -62 65 -152z" />
    <glyph glyph-name="acute" unicode="&#xb4;" horiz-adv-x="586" 
d="M246 1372h217l-205 -196h-135z" />
    <glyph glyph-name="mu" unicode="&#xb5;" horiz-adv-x="975" 
d="M745 0l-24 106h-4q-35 -56 -115 -91.5t-174 -35.5q-102 0 -170 39v-387h-135v1393h156v-684q-1 -16 -1 -29q0 -106 37 -153q41 -52 135 -52q78 0 146.5 48t99.5 125v745h156v-1024h-107z" />
    <glyph glyph-name="mu" unicode="&#x3bc;" horiz-adv-x="975" 
d="M745 0l-24 106h-4q-35 -56 -115 -91.5t-174 -35.5q-102 0 -170 39v-387h-135v1393h156v-684q-1 -16 -1 -29q0 -106 37 -153q41 -52 135 -52q78 0 146.5 48t99.5 125v745h156v-1024h-107z" />
    <glyph glyph-name="paragraph" unicode="&#xb6;" horiz-adv-x="1126" 
d="M1004 1434v-135h-103v-1666h-123v1666h-102v-1666h-123v879q-191 5 -316 147q-114 129 -114 314q0 210 127 341q118 120 303 120h451z" />
    <glyph glyph-name="periodcentered" unicode="&#xb7;" horiz-adv-x="565" 
d="M361 819v-176h-156v176h156z" />
    <glyph glyph-name="cedilla" unicode="&#xb8;" horiz-adv-x="643" 
d="M123 -328l35 62q65 -53 141 -53q43 0 71.5 22t28.5 55t-28.5 55.5t-71.5 22.5q-38 0 -61 -16l-23 12l98 168h82l-55 -94l2 -2q16 4 33 4q55 0 100 -47t45 -104q0 -154 -215 -154q-112 0 -182 69z" />
    <glyph glyph-name="onesuperior" unicode="&#xb9;" horiz-adv-x="541" 
d="M418 1434v-820h-127v666l-105 -61l-63 94l193 121h102z" />
    <glyph glyph-name="ordmasculine" unicode="&#xba;" horiz-adv-x="739" 
d="M369 805q-130 0 -193 99q-53 83 -53 227q0 169 70 255q63 77 176 77q132 0 195 -100q53 -84 53 -232q0 -166 -69 -249q-63 -77 -179 -77zM369 911q125 0 125 220q0 226 -125 226q-121 0 -121 -226q0 -117 30 -169q29 -51 91 -51z" />
    <glyph glyph-name="guillemotright" unicode="&#xbb;" horiz-adv-x="1044" 
d="M512 537l-321 -316l-68 64l205 252l-205 249l68 64zM922 537l-322 -316l-67 64l204 252l-204 249l67 64z" />
    <glyph glyph-name="questiondown" unicode="&#xbf;" horiz-adv-x="879" 
d="M418 848v176h156v-176h-156zM573 655v-49q0 -101 -39.5 -172t-151.5 -166q-95 -82 -129 -133q-48 -74 -48 -166q0 -139 73 -212q60 -61 154 -61q97 0 158.5 56t97.5 176l150 -37q-100 -330 -398 -330q-193 0 -300 116q-99 107 -99 292q0 116 44.5 195.5t167.5 181.5
q89 75 120 119q45 64 45 141v49h155z" />
    <glyph glyph-name="Agrave" unicode="&#xc0;" 
d="M328 438l-123 -438h-164l416 1434h147l420 -1434h-164l-123 438h-409zM365 573h335l-165 597h-5zM289 1733h217l123 -197h-135z" />
    <glyph glyph-name="Aacute" unicode="&#xc1;" 
d="M328 438l-123 -438h-164l416 1434h147l420 -1434h-164l-123 438h-409zM365 573h335l-165 597h-5zM559 1733h217l-205 -197h-135z" />
    <glyph glyph-name="Acircumflex" unicode="&#xc2;" 
d="M328 438l-123 -438h-164l416 1434h147l420 -1434h-164l-123 438h-409zM365 573h335l-165 597h-5zM434 1733h196l164 -197h-143l-119 105l-119 -105h-143z" />
    <glyph glyph-name="Atilde" unicode="&#xc3;" 
d="M328 438l-123 -438h-164l416 1434h147l420 -1434h-164l-123 438h-409zM365 573h335l-165 597h-5zM416 1720q67 0 132 -39q43 -26 71 -26q44 0 55 65h111q-9 -85 -45.5 -134.5t-89.5 -49.5q-65 0 -134 40q-43 25 -69 25q-44 0 -55 -65h-111q9 87 45 135.5t90 48.5z" />
    <glyph glyph-name="Adieresis" unicode="&#xc4;" 
d="M328 438l-123 -438h-164l416 1434h147l420 -1434h-164l-123 438h-409zM365 573h335l-165 597h-5zM457 1733v-176h-156v176h156zM764 1733v-176h-156v176h156z" />
    <glyph glyph-name="Aring" unicode="&#xc5;" 
d="M348 1698q0 82 61 137q52 47 124 47q82 0 137 -61q47 -52 47 -123q0 -83 -61 -138q-52 -47 -123 -47q-83 0 -138 61q-47 52 -47 124zM442 1698q0 -38 26.5 -64.5t64.5 -26.5q37 0 63.5 26.5t26.5 64.5q0 37 -26.5 63.5t-63.5 26.5q-38 0 -64.5 -26.5t-26.5 -63.5z
M328 438l-123 -438h-164l416 1434h147l420 -1434h-164l-123 438h-409zM365 573h335l-165 597h-5z" />
    <glyph glyph-name="AE" unicode="&#xc6;" horiz-adv-x="1679" 
d="M455 438l-250 -438h-164l815 1434h721v-135h-553v-480h430v-135h-430v-549h573v-135h-737v438h-405zM530 573h330v572h-4z" />
    <glyph glyph-name="Ccedilla" unicode="&#xc7;" horiz-adv-x="1106" 
d="M375 -327l35 61q65 -53 141 -53q43 0 71.5 22t28.5 56q0 33 -29 55.5t-71 22.5q-39 0 -61 -17l-23 12l82 140q-261 8 -372 214q-95 178 -95 531q0 401 131 582q120 164 358 164q195 0 300 -101q86 -81 137 -250l-150 -36q-42 137 -114 196q-67 56 -172 56
q-180 0 -259 -177q-67 -149 -67 -434q0 -336 88 -481q78 -129 238 -129q127 0 202 82q65 71 99 211l151 -37q-49 -201 -147 -292q-91 -85 -246 -97l-39 -68l2 -2q16 4 33 4q55 0 100 -47t45 -104q0 -154 -215 -154q-112 0 -182 70z" />
    <glyph glyph-name="Egrave" unicode="&#xc8;" horiz-adv-x="942" 
d="M123 1434h717v-135h-553v-480h430v-135h-430v-549h573v-135h-737v1434zM252 1733h217l123 -197h-135z" />
    <glyph glyph-name="Eacute" unicode="&#xc9;" horiz-adv-x="942" 
d="M123 1434h717v-135h-553v-480h430v-135h-430v-549h573v-135h-737v1434zM498 1733h217l-205 -197h-135z" />
    <glyph glyph-name="Ecircumflex" unicode="&#xca;" horiz-adv-x="942" 
d="M123 1434h717v-135h-553v-480h430v-135h-430v-549h573v-135h-737v1434zM393 1733h196l164 -197h-143l-119 105l-119 -105h-143z" />
    <glyph glyph-name="Edieresis" unicode="&#xcb;" horiz-adv-x="942" 
d="M123 1434h717v-135h-553v-480h430v-135h-430v-549h573v-135h-737v1434zM406 1733v-176h-156v176h156zM713 1733v-176h-156v176h156z" />
    <glyph glyph-name="Igrave" unicode="&#xcc;" horiz-adv-x="410" 
d="M287 1434v-1434h-164v1434h164zM-53 1733h217l123 -197h-135z" />
    <glyph glyph-name="Iacute" unicode="&#xcd;" horiz-adv-x="410" 
d="M287 1434v-1434h-164v1434h164zM246 1733h217l-205 -197h-135z" />
    <glyph glyph-name="Icircumflex" unicode="&#xce;" horiz-adv-x="410" 
d="M287 1434v-1434h-164v1434h164zM107 1733h196l164 -197h-143l-119 105l-119 -105h-143z" />
    <glyph glyph-name="Idieresis" unicode="&#xcf;" horiz-adv-x="410" 
d="M287 1434v-1434h-164v1434h164zM129 1733v-176h-156v176h156zM436 1733v-176h-156v176h156z" />
    <glyph glyph-name="Eth" unicode="&#xd0;" horiz-adv-x="1085" 
d="M0 663v156h123v615h264q353 0 494 -193q123 -167 123 -525q0 -428 -158 -585q-132 -131 -430 -131h-293v663h-123zM287 1299v-480h205v-156h-205v-528h100q175 0 266 46q100 51 144 175q43 124 43 360q0 335 -119 465q-107 118 -348 118h-86z" />
    <glyph glyph-name="Ntilde" unicode="&#xd1;" horiz-adv-x="1126" 
d="M1004 1434v-1434h-106l-624 1112h-4v-1112h-147v1434h131l599 -1067h4v1067h147zM446 1720q67 0 132 -39q43 -26 71 -26q44 0 55 65h111q-9 -85 -45.5 -134.5t-89.5 -49.5q-65 0 -134 40q-43 25 -69 25q-44 0 -55 -65h-111q9 87 45 135.5t90 48.5z" />
    <glyph glyph-name="Ograve" unicode="&#xd2;" horiz-adv-x="1147" 
d="M82 717q0 401 131 582q120 164 358 164q275 0 394 -214q100 -181 100 -532q0 -412 -132 -588q-118 -158 -362 -158q-274 0 -389 207q-100 178 -100 539zM246 717q0 -337 88 -482q78 -129 237 -129q184 0 262 169q68 147 68 442q0 325 -89 475q-81 136 -241 136
q-179 0 -258 -177q-67 -149 -67 -434zM354 1733h217l123 -197h-135z" />
    <glyph glyph-name="Oacute" unicode="&#xd3;" horiz-adv-x="1147" 
d="M82 717q0 401 131 582q120 164 358 164q275 0 394 -214q100 -181 100 -532q0 -412 -132 -588q-118 -158 -362 -158q-274 0 -389 207q-100 178 -100 539zM246 717q0 -337 88 -482q78 -129 237 -129q184 0 262 169q68 147 68 442q0 325 -89 475q-81 136 -241 136
q-179 0 -258 -177q-67 -149 -67 -434zM600 1733h217l-205 -197h-135z" />
    <glyph glyph-name="Ocircumflex" unicode="&#xd4;" horiz-adv-x="1147" 
d="M82 717q0 401 131 582q120 164 358 164q275 0 394 -214q100 -181 100 -532q0 -412 -132 -588q-118 -158 -362 -158q-274 0 -389 207q-100 178 -100 539zM246 717q0 -337 88 -482q78 -129 237 -129q184 0 262 169q68 147 68 442q0 325 -89 475q-81 136 -241 136
q-179 0 -258 -177q-67 -149 -67 -434zM475 1733h196l164 -197h-143l-119 105l-119 -105h-143z" />
    <glyph glyph-name="Otilde" unicode="&#xd5;" horiz-adv-x="1147" 
d="M82 717q0 401 131 582q120 164 358 164q275 0 394 -214q100 -181 100 -532q0 -412 -132 -588q-118 -158 -362 -158q-274 0 -389 207q-100 178 -100 539zM246 717q0 -337 88 -482q78 -129 237 -129q184 0 262 169q68 147 68 442q0 325 -89 475q-81 136 -241 136
q-179 0 -258 -177q-67 -149 -67 -434zM457 1720q67 0 132 -39q43 -26 71 -26q44 0 55 65h111q-9 -85 -45.5 -134.5t-89.5 -49.5q-65 0 -134 40q-43 25 -69 25q-44 0 -55 -65h-111q9 87 45 135.5t90 48.5z" />
    <glyph glyph-name="Odieresis" unicode="&#xd6;" horiz-adv-x="1147" 
d="M467 1712v-176h-156v176h156zM836 1712v-176h-156v176h156zM82 717q0 401 131 582q120 164 358 164q275 0 394 -214q100 -181 100 -532q0 -412 -132 -588q-118 -158 -362 -158q-274 0 -389 207q-100 178 -100 539zM246 717q0 -337 88 -482q78 -129 237 -129
q184 0 262 169q68 147 68 442q0 325 -89 475q-81 136 -241 136q-179 0 -258 -177q-67 -149 -67 -434z" />
    <glyph glyph-name="multiply" unicode="&#xd7;" horiz-adv-x="1106" 
d="M137 1018l96 96l320 -319l319 319l96 -96l-319 -320l319 -319l-96 -96l-319 319l-320 -319l-96 96l319 319z" />
    <glyph glyph-name="Oslash" unicode="&#xd8;" horiz-adv-x="1147" 
d="M1065 1434l-104 -180q104 -182 104 -537q0 -412 -132 -588q-118 -158 -362 -158q-186 0 -294 90l-89 -151l-106 61l109 191q-109 176 -109 555q0 401 131 582q120 164 358 164q194 0 308 -105l80 137zM246 717q0 -242 45 -383l506 879q-81 115 -226 115q-179 0 -258 -177
q-67 -149 -67 -434zM901 717q0 215 -41 361l-504 -877q77 -95 215 -95q184 0 262 169q68 147 68 442z" />
    <glyph glyph-name="Ugrave" unicode="&#xd9;" horiz-adv-x="1147" 
d="M287 1434v-869q0 -231 60 -338q67 -121 220 -121q181 0 248 152q45 101 45 287v889h164v-889q0 -299 -103 -432q-109 -142 -354 -142q-269 0 -371 187q-73 135 -73 397v879h164zM334 1733h217l123 -197h-135z" />
    <glyph glyph-name="Uacute" unicode="&#xda;" horiz-adv-x="1147" 
d="M287 1434v-869q0 -231 60 -338q67 -121 220 -121q181 0 248 152q45 101 45 287v889h164v-889q0 -299 -103 -432q-109 -142 -354 -142q-269 0 -371 187q-73 135 -73 397v879h164zM600 1733h217l-205 -197h-135z" />
    <glyph glyph-name="Ucircumflex" unicode="&#xdb;" horiz-adv-x="1147" 
d="M287 1434v-869q0 -231 60 -338q67 -121 220 -121q181 0 248 152q45 101 45 287v889h164v-889q0 -299 -103 -432q-109 -142 -354 -142q-269 0 -371 187q-73 135 -73 397v879h164zM475 1733h196l164 -197h-143l-119 105l-119 -105h-143z" />
    <glyph glyph-name="Udieresis" unicode="&#xdc;" horiz-adv-x="1147" 
d="M467 1712v-176h-156v176h156zM836 1712v-176h-156v176h156zM287 1434v-869q0 -231 60 -338q67 -121 220 -121q181 0 248 152q45 101 45 287v889h164v-889q0 -299 -103 -432q-109 -142 -354 -142q-269 0 -371 187q-73 135 -73 397v879h164z" />
    <glyph glyph-name="Yacute" unicode="&#xdd;" 
d="M1024 1434l-407 -828v-606h-164v606l-412 828h172l322 -676h4l313 676h172zM579 1733h217l-205 -197h-135z" />
    <glyph glyph-name="Thorn" unicode="&#xde;" horiz-adv-x="1044" 
d="M285 1147h188q490 0 490 -424q0 -412 -473 -412h-203v-311h-164v1434h162v-287zM287 446h190q182 0 254 68q68 64 68 209q0 155 -80 222t-266 67h-166v-566z" />
    <glyph glyph-name="germandbls" unicode="&#xdf;" horiz-adv-x="1028" 
d="M279 1073v-1073h-156v1073q0 178 110 288q102 102 261 102q182 0 286 -130q85 -107 85 -259q0 -139 -40 -205q-41 -69 -143 -107v-4q265 -76 265 -365q0 -200 -150 -320q-128 -102 -317 -102h-89v127h89q145 0 236 93q81 82 81 202q0 154 -106 229q-89 62 -244 62h-35
v135h33q159 0 217 72q47 57 47 183q0 125 -57 191q-55 63 -158 63q-117 0 -172 -81q-43 -64 -43 -174z" />
    <glyph glyph-name="agrave" unicode="&#xe0;" horiz-adv-x="967" 
d="M844 0h-111l-24 106h-5q-96 -126 -290 -126q-161 0 -253 90q-79 78 -79 201q0 109 80 186t252 135l274 92v18q0 116 -49 165.5t-162 49.5q-87 0 -144.5 -43.5t-76.5 -123.5l-142 28q60 266 363 266q203 0 289 -95q78 -86 78 -265v-684zM688 344v213l-274 -98
q-176 -65 -176 -188q0 -75 47.5 -119.5t128.5 -44.5q129 0 206 72q68 64 68 165zM264 1372h217l123 -196h-135z" />
    <glyph glyph-name="aacute" unicode="&#xe1;" horiz-adv-x="967" 
d="M844 0h-111l-24 106h-5q-96 -126 -290 -126q-161 0 -253 90q-79 78 -79 201q0 109 80 186t252 135l274 92v18q0 116 -49 165.5t-162 49.5q-87 0 -144.5 -43.5t-76.5 -123.5l-142 28q60 266 363 266q203 0 289 -95q78 -86 78 -265v-684zM688 344v213l-274 -98
q-176 -65 -176 -188q0 -75 47.5 -119.5t128.5 -44.5q129 0 206 72q68 64 68 165zM508 1372h217l-205 -196h-135z" />
    <glyph glyph-name="acircumflex" unicode="&#xe2;" horiz-adv-x="967" 
d="M844 0h-111l-24 106h-5q-96 -126 -290 -126q-161 0 -253 90q-79 78 -79 201q0 109 80 186t252 135l274 92v18q0 116 -49 165.5t-162 49.5q-87 0 -144.5 -43.5t-76.5 -123.5l-142 28q60 266 363 266q203 0 289 -95q78 -86 78 -265v-684zM688 344v213l-274 -98
q-176 -65 -176 -188q0 -75 47.5 -119.5t128.5 -44.5q129 0 206 72q68 64 68 165zM387 1372h196l164 -196h-143l-119 104l-119 -104h-143z" />
    <glyph glyph-name="atilde" unicode="&#xe3;" horiz-adv-x="967" 
d="M844 0h-111l-24 106h-5q-96 -126 -290 -126q-161 0 -253 90q-79 78 -79 201q0 109 80 186t252 135l274 92v18q0 116 -49 165.5t-162 49.5q-87 0 -144.5 -43.5t-76.5 -123.5l-142 28q60 266 363 266q203 0 289 -95q78 -86 78 -265v-684zM688 344v213l-274 -98
q-176 -65 -176 -188q0 -75 47.5 -119.5t128.5 -44.5q129 0 206 72q68 64 68 165zM367 1360q67 0 132 -39q43 -26 71 -26q44 0 55 65h111q-9 -85 -45.5 -134.5t-89.5 -49.5q-65 0 -134 40q-43 25 -69 25q-44 0 -55 -65h-111q9 87 45 135.5t90 48.5z" />
    <glyph glyph-name="adieresis" unicode="&#xe4;" horiz-adv-x="967" 
d="M844 0h-111l-24 106h-5q-96 -126 -290 -126q-161 0 -253 90q-79 78 -79 201q0 109 80 186t252 135l274 92v18q0 116 -49 165.5t-162 49.5q-87 0 -144.5 -43.5t-76.5 -123.5l-142 28q60 266 363 266q203 0 289 -95q78 -86 78 -265v-684zM688 344v213l-274 -98
q-176 -65 -176 -188q0 -75 47.5 -119.5t128.5 -44.5q129 0 206 72q68 64 68 165zM408 1372v-176h-156v176h156zM715 1372v-176h-156v176h156z" />
    <glyph glyph-name="aring" unicode="&#xe5;" horiz-adv-x="967" 
d="M301 1334q0 82 61 137q52 47 123 47q83 0 138 -61q47 -52 47 -123q0 -83 -61 -138q-52 -47 -124 -47q-82 0 -137 61q-47 52 -47 124zM395 1334q0 -38 26.5 -64.5t63.5 -26.5q38 0 64.5 26.5t26.5 64.5q0 37 -26.5 63.5t-64.5 26.5q-37 0 -63.5 -26.5t-26.5 -63.5zM844 0
h-111l-24 106h-5q-96 -126 -290 -126q-161 0 -253 90q-79 78 -79 201q0 109 80 186t252 135l274 92v18q0 116 -49 165.5t-162 49.5q-87 0 -144.5 -43.5t-76.5 -123.5l-142 28q60 266 363 266q203 0 289 -95q78 -86 78 -265v-684zM688 344v213l-274 -98q-176 -65 -176 -188
q0 -75 47.5 -119.5t128.5 -44.5q129 0 206 72q68 64 68 165z" />
    <glyph glyph-name="ae" unicode="&#xe6;" horiz-adv-x="1577" 
d="M1102 107q184 0 239 188l140 -25q-43 -159 -138 -227q-88 -63 -241 -63q-230 0 -332 170q-109 -170 -356 -170q-161 0 -253 90q-79 78 -79 201q0 109 80 186.5t252 134.5l274 92v18q0 116 -49 165.5t-162 49.5q-87 0 -144.5 -43.5t-76.5 -123.5l-142 28q60 266 363 266
q238 0 317 -139q105 139 308 139q207 0 306 -168q87 -146 87 -409h-651q8 -191 73 -277q63 -83 185 -83zM688 344v213l-274 -98q-176 -65 -176 -188q0 -75 47.5 -119.5t128.5 -44.5q129 0 206 72q68 64 68 165zM848 594h487q-11 153 -70 237q-60 86 -163 86
q-231 0 -254 -323z" />
    <glyph glyph-name="ccedilla" unicode="&#xe7;" horiz-adv-x="885" 
d="M264 -328l35 62q66 -53 142 -53q43 0 71.5 22t28.5 55t-29 55.5t-71 22.5q-39 0 -62 -16l-23 12l86 150q-192 11 -283 169q-77 132 -77 357q0 273 111 411q101 125 282 125q156 0 244 -88q70 -70 104 -206l-141 -25q-42 192 -207 192q-237 0 -237 -410q0 -212 60 -308
q57 -93 177 -93q83 0 131 43.5t78 145.5l139 -25q-38 -146 -112 -214q-70 -63 -185 -74l-45 -76l2 -2q16 4 33 4q55 0 100.5 -47t45.5 -104q0 -154 -215 -154q-113 0 -183 69z" />
    <glyph glyph-name="egrave" unicode="&#xe8;" horiz-adv-x="971" 
d="M496 107q184 0 239 188l140 -25q-42 -159 -138 -227q-88 -63 -241 -63q-222 0 -327 161q-87 133 -87 367q0 272 117 411q106 125 297 125q207 0 307 -168q86 -146 86 -409h-651q8 -191 73 -277q63 -83 185 -83zM242 594h487q-11 153 -70 237q-60 86 -163 86
q-231 0 -254 -323zM266 1372h217l123 -196h-135z" />
    <glyph glyph-name="eacute" unicode="&#xe9;" horiz-adv-x="971" 
d="M496 107q184 0 239 188l140 -25q-42 -159 -138 -227q-88 -63 -241 -63q-222 0 -327 161q-87 133 -87 367q0 272 117 411q106 125 297 125q207 0 307 -168q86 -146 86 -409h-651q8 -191 73 -277q63 -83 185 -83zM242 594h487q-11 153 -70 237q-60 86 -163 86
q-231 0 -254 -323zM510 1372h217l-205 -196h-135z" />
    <glyph glyph-name="ecircumflex" unicode="&#xea;" horiz-adv-x="971" 
d="M496 107q184 0 239 188l140 -25q-42 -159 -138 -227q-88 -63 -241 -63q-222 0 -327 161q-87 133 -87 367q0 272 117 411q106 125 297 125q207 0 307 -168q86 -146 86 -409h-651q8 -191 73 -277q63 -83 185 -83zM242 594h487q-11 153 -70 237q-60 86 -163 86
q-231 0 -254 -323zM387 1372h196l164 -196h-143l-119 104l-119 -104h-143z" />
    <glyph glyph-name="edieresis" unicode="&#xeb;" horiz-adv-x="971" 
d="M496 107q184 0 239 188l140 -25q-42 -159 -138 -227q-88 -63 -241 -63q-222 0 -327 161q-87 133 -87 367q0 272 117 411q106 125 297 125q207 0 307 -168q86 -146 86 -409h-651q8 -191 73 -277q63 -83 185 -83zM242 594h487q-11 153 -70 237q-60 86 -163 86
q-231 0 -254 -323zM420 1372v-176h-156v176h156zM727 1372v-176h-156v176h156z" />
    <glyph glyph-name="igrave" unicode="&#xec;" horiz-adv-x="401" 
d="M279 1024v-1024h-156v1024h156zM-37 1372h217l123 -196h-135z" />
    <glyph glyph-name="iacute" unicode="&#xed;" horiz-adv-x="401" 
d="M279 1024v-1024h-156v1024h156zM246 1372h217l-205 -196h-135z" />
    <glyph glyph-name="icircumflex" unicode="&#xee;" horiz-adv-x="401" 
d="M279 1024v-1024h-156v1024h156zM103 1372h196l164 -196h-143l-119 104l-119 -104h-143z" />
    <glyph glyph-name="idieresis" unicode="&#xef;" horiz-adv-x="401" 
d="M279 1024v-1024h-156v1024h156zM125 1372v-176h-156v176h156zM432 1372v-176h-156v176h156z" />
    <glyph glyph-name="eth" unicode="&#xf0;" horiz-adv-x="950" 
d="M475 -20q-210 0 -310 147q-83 122 -83 340q0 255 111 382q100 114 282 114q42 0 82 -10l2 2q-66 118 -141 190l-131 -104l-66 86l123 98q-79 85 -178 156l88 84q97 -53 199 -144l143 113l66 -90l-131 -100q182 -204 260 -386q77 -180 77 -391q0 -250 -109 -374
q-100 -113 -284 -113zM475 107q136 0 192 107q45 85 45 253q0 192 -60 282q-59 87 -177 87q-237 0 -237 -369q0 -192 60 -278q57 -82 177 -82z" />
    <glyph glyph-name="ntilde" unicode="&#xf1;" horiz-adv-x="975" 
d="M234 1024l24 -106h5q34 56 112.5 91t171.5 35q305 0 305 -360v-684h-156v684q0 124 -32 173q-39 60 -140 60q-77 0 -145.5 -47.5t-99.5 -124.5v-745h-156v1024h111zM371 1360q67 0 132 -39q43 -26 71 -26q44 0 55 65h111q-9 -85 -45.5 -134.5t-89.5 -49.5q-65 0 -134 40
q-43 25 -69 25q-44 0 -55 -65h-111q9 87 45 135.5t90 48.5z" />
    <glyph glyph-name="ograve" unicode="&#xf2;" horiz-adv-x="950" 
d="M475 -20q-209 0 -310 161q-83 134 -83 367q0 273 111 411q100 125 282 125q207 0 308 -162q85 -136 85 -374q0 -268 -109 -404q-101 -124 -284 -124zM475 107q136 0 192 120q45 96 45 281q0 409 -237 409t-237 -409q0 -212 60 -308q57 -93 177 -93zM256 1372h217
l123 -196h-135z" />
    <glyph glyph-name="oacute" unicode="&#xf3;" horiz-adv-x="950" 
d="M475 -20q-209 0 -310 161q-83 134 -83 367q0 273 111 411q100 125 282 125q207 0 308 -162q85 -136 85 -374q0 -268 -109 -404q-101 -124 -284 -124zM475 107q136 0 192 120q45 96 45 281q0 409 -237 409t-237 -409q0 -212 60 -308q57 -93 177 -93zM502 1372h217
l-205 -196h-135z" />
    <glyph glyph-name="ocircumflex" unicode="&#xf4;" horiz-adv-x="950" 
d="M475 -20q-209 0 -310 161q-83 134 -83 367q0 273 111 411q100 125 282 125q207 0 308 -162q85 -136 85 -374q0 -268 -109 -404q-101 -124 -284 -124zM475 107q136 0 192 120q45 96 45 281q0 409 -237 409t-237 -409q0 -212 60 -308q57 -93 177 -93zM377 1372h196
l164 -196h-143l-119 104l-119 -104h-143z" />
    <glyph glyph-name="otilde" unicode="&#xf5;" horiz-adv-x="950" 
d="M475 -20q-209 0 -310 161q-83 134 -83 367q0 273 111 411q100 125 282 125q207 0 308 -162q85 -136 85 -374q0 -268 -109 -404q-101 -124 -284 -124zM475 107q136 0 192 120q45 96 45 281q0 409 -237 409t-237 -409q0 -212 60 -308q57 -93 177 -93zM358 1360
q67 0 132 -39q43 -26 71 -26q44 0 55 65h111q-9 -85 -45.5 -134.5t-89.5 -49.5q-65 0 -134 40q-43 25 -69 25q-44 0 -55 -65h-111q9 87 45 135.5t90 48.5z" />
    <glyph glyph-name="odieresis" unicode="&#xf6;" horiz-adv-x="950" 
d="M475 -20q-209 0 -310 161q-83 134 -83 367q0 273 111 411q100 125 282 125q207 0 308 -162q85 -136 85 -374q0 -268 -109 -404q-101 -124 -284 -124zM475 107q136 0 192 120q45 96 45 281q0 409 -237 409t-237 -409q0 -212 60 -308q57 -93 177 -93zM400 1372v-176h-156
v176h156zM707 1372v-176h-156v176h156z" />
    <glyph glyph-name="divide" unicode="&#xf7;" horiz-adv-x="1106" 
d="M102 631v135h901v-135h-901zM631 1169v-176h-156v176h156zM631 403v-176h-156v176h156z" />
    <glyph glyph-name="oslash" unicode="&#xf8;" horiz-adv-x="950" 
d="M475 -20q-133 0 -219 61l-78 -123l-96 62l92 147q-92 135 -92 381q0 273 111 411q101 125 282 125q137 0 230 -73l67 106l96 -61l-86 -135q86 -136 86 -373q0 -268 -109 -404q-101 -124 -284 -124zM238 508q0 -149 28 -238l363 580q-58 67 -154 67q-237 0 -237 -409z
M475 107q136 0 192 120q45 96 45 281q0 126 -24 221l-358 -571q54 -51 145 -51z" />
    <glyph glyph-name="ugrave" unicode="&#xf9;" horiz-adv-x="975" 
d="M745 0l-24 106h-4q-34 -56 -114.5 -91t-174.5 -35q-305 0 -305 360v684h156v-684q0 -124 32 -173q39 -60 140 -60q77 0 145.5 47.5t99.5 124.5v745h156v-1024h-107zM248 1372h217l123 -196h-135z" />
    <glyph glyph-name="uacute" unicode="&#xfa;" horiz-adv-x="975" 
d="M745 0l-24 106h-4q-34 -56 -114.5 -91t-174.5 -35q-305 0 -305 360v684h156v-684q0 -124 32 -173q39 -60 140 -60q77 0 145.5 47.5t99.5 124.5v745h156v-1024h-107zM535 1372h217l-205 -196h-135z" />
    <glyph glyph-name="ucircumflex" unicode="&#xfb;" horiz-adv-x="975" 
d="M745 0l-24 106h-4q-34 -56 -114.5 -91t-174.5 -35q-305 0 -305 360v684h156v-684q0 -124 32 -173q39 -60 140 -60q77 0 145.5 47.5t99.5 124.5v745h156v-1024h-107zM389 1372h196l164 -196h-143l-119 104l-119 -104h-143z" />
    <glyph glyph-name="udieresis" unicode="&#xfc;" horiz-adv-x="975" 
d="M745 0l-24 106h-4q-34 -56 -114.5 -91t-174.5 -35q-305 0 -305 360v684h156v-684q0 -124 32 -173q39 -60 140 -60q77 0 145.5 47.5t99.5 124.5v745h156v-1024h-107zM412 1372v-176h-156v176h156zM719 1372v-176h-156v176h156z" />
    <glyph glyph-name="yacute" unicode="&#xfd;" horiz-adv-x="938" 
d="M876 1024l-330 -1024q-69 -201 -143 -282q-79 -87 -199 -87h-82v127h61q141 0 207 242l-329 1024h159l246 -815h4l246 815h160zM516 1372h217l-205 -196h-135z" />
    <glyph glyph-name="thorn" unicode="&#xfe;" horiz-adv-x="975" 
d="M279 1434v-488h4q83 99 242 99q368 0 368 -529q0 -262 -93 -399q-93 -138 -275 -138q-167 0 -242 127h-4v-475h-156v1803h156zM279 745v-323q0 -143 72 -235q64 -81 153 -81q135 0 189 117q44 95 44 285q0 219 -58 316q-56 94 -175 94q-72 0 -133.5 -47t-91.5 -126z" />
    <glyph glyph-name="ydieresis" unicode="&#xff;" horiz-adv-x="938" 
d="M876 1024l-330 -1024q-69 -201 -143 -282q-79 -87 -199 -87h-82v127h61q141 0 207 242l-329 1024h159l246 -815h4l246 815h160zM393 1372v-176h-156v176h156zM700 1372v-176h-156v176h156z" />
    <glyph glyph-name="Amacron" unicode="&#x100;" 
d="M328 438l-123 -438h-164l416 1434h147l420 -1434h-164l-123 438h-409zM365 573h335l-165 597h-5zM281 1556v115h504v-115h-504z" />
    <glyph glyph-name="amacron" unicode="&#x101;" horiz-adv-x="967" 
d="M844 0h-111l-24 106h-5q-96 -126 -290 -126q-161 0 -253 90q-79 78 -79 201q0 109 80 186t252 135l274 92v18q0 116 -49 165.5t-162 49.5q-87 0 -144.5 -43.5t-76.5 -123.5l-142 28q60 266 363 266q203 0 289 -95q78 -86 78 -265v-684zM688 344v213l-274 -98
q-176 -65 -176 -188q0 -75 47.5 -119.5t128.5 -44.5q129 0 206 72q68 64 68 165zM232 1212v115h504v-115h-504z" />
    <glyph glyph-name="Abreve" unicode="&#x102;" 
d="M328 438l-123 -438h-164l416 1434h147l420 -1434h-164l-123 438h-409zM365 573h335l-165 597h-5zM662 1712h112q-17 -103 -91 -154q-61 -43 -150 -43q-102 0 -166 57q-58 51 -76 140h113q35 -95 129 -95t129 95z" />
    <glyph glyph-name="abreve" unicode="&#x103;" horiz-adv-x="967" 
d="M844 0h-111l-24 106h-5q-96 -126 -290 -126q-161 0 -253 90q-79 78 -79 201q0 109 80 186t252 135l274 92v18q0 116 -49 165.5t-162 49.5q-87 0 -144.5 -43.5t-76.5 -123.5l-142 28q60 266 363 266q203 0 289 -95q78 -86 78 -265v-684zM688 344v213l-274 -98
q-176 -65 -176 -188q0 -75 47.5 -119.5t128.5 -44.5q129 0 206 72q68 64 68 165zM613 1352h112q-17 -103 -91 -154q-61 -43 -150 -43q-102 0 -166 57q-58 51 -76 140h113q35 -95 129 -95t129 95z" />
    <glyph glyph-name="Aogonek" unicode="&#x104;" 
d="M993 -311q71 0 133 47l43 -66q-78 -67 -182 -67q-215 0 -215 160q0 141 162 237h-74l-123 438h-409l-123 -438h-164l416 1434h147l420 -1434q-141 -110 -141 -209q0 -45 31 -73.5t79 -28.5zM365 573h335l-165 597h-5z" />
    <glyph glyph-name="aogonek" unicode="&#x105;" horiz-adv-x="967" 
d="M814 -311q71 0 132 47l43 -66q-78 -67 -182 -67q-215 0 -215 160q0 141 162 237h-21l-24 106h-5q-96 -126 -290 -126q-161 0 -253 90q-79 78 -79 201q0 109 80 186t252 135l274 92v18q0 116 -49 165.5t-162 49.5q-87 0 -144.5 -43.5t-76.5 -123.5l-142 28q60 266 363 266
q203 0 289 -95q78 -86 78 -265v-684q-141 -110 -141 -209q0 -45 31 -73.5t80 -28.5zM688 344v213l-274 -98q-176 -65 -176 -188q0 -75 47.5 -119.5t128.5 -44.5q129 0 206 72q68 64 68 165z" />
    <glyph glyph-name="Cacute" unicode="&#x106;" horiz-adv-x="1106" 
d="M873 399l151 -36q-52 -218 -165 -309q-104 -83 -288 -83q-274 0 -389 207q-100 178 -100 539q0 401 131 582q120 164 358 164q195 0 300 -101q86 -81 137 -250l-150 -37q-42 138 -114 197q-67 56 -172 56q-180 0 -259 -177q-67 -149 -67 -434q0 -337 88 -482
q78 -129 238 -129q127 0 202 82q65 71 99 211zM594 1733h217l-205 -197h-135z" />
    <glyph glyph-name="cacute" unicode="&#x107;" horiz-adv-x="885" 
d="M684 295l139 -25q-42 -160 -127 -227q-81 -63 -221 -63q-209 0 -310 161q-83 134 -83 367q0 273 111 411q101 125 282 125q156 0 244 -88q70 -70 104 -206l-141 -25q-42 192 -207 192q-237 0 -237 -409q0 -212 60 -308q57 -93 177 -93q83 0 131 43.5t78 144.5zM492 1372
h217l-205 -196h-135z" />
    <glyph glyph-name="Ccaron" unicode="&#x10c;" horiz-adv-x="1106" 
d="M873 399l151 -36q-52 -218 -165 -309q-104 -83 -288 -83q-274 0 -389 207q-100 178 -100 539q0 401 131 582q120 164 358 164q195 0 300 -101q86 -81 137 -250l-150 -37q-42 138 -114 197q-67 56 -172 56q-180 0 -259 -177q-67 -149 -67 -434q0 -337 88 -482
q78 -129 238 -129q127 0 202 82q65 71 99 211zM680 1534h-196l-164 197h143l119 -105l119 105h143z" />
    <glyph glyph-name="ccaron" unicode="&#x10d;" horiz-adv-x="885" 
d="M684 295l139 -25q-42 -160 -127 -227q-81 -63 -221 -63q-209 0 -310 161q-83 134 -83 367q0 273 111 411q101 125 282 125q156 0 244 -88q70 -70 104 -206l-141 -25q-42 192 -207 192q-237 0 -237 -409q0 -212 60 -308q57 -93 177 -93q83 0 131 43.5t78 144.5zM575 1176
h-196l-164 196h143l119 -104l119 104h143z" />
    <glyph glyph-name="Dcaron" unicode="&#x10e;" horiz-adv-x="1085" 
d="M123 1434h264q353 0 494 -193q123 -167 123 -524q0 -429 -158 -586q-132 -131 -430 -131h-293v1434zM287 1299v-1164h100q175 0 266 46q100 51 144 176q43 124 43 360q0 334 -119 464q-107 118 -348 118h-86zM575 1536h-196l-164 197h143l119 -105l119 105h143z" />
    <glyph glyph-name="dcaron" unicode="&#x10f;" horiz-adv-x="1090" 
d="M741 0l-25 106h-4q-35 -58 -105 -92t-157 -34q-368 0 -368 528q0 262 93 399q93 138 275 138q167 0 242 -127h4v516h156v-1434h-111zM696 401v324q-34 89 -100 143q-61 50 -125 50q-135 0 -189 -122q-44 -97 -44 -288q0 -217 58 -311q56 -90 175 -90q105 0 169 92
q56 81 56 202zM1090 1454v-156l-62 -135h-74l42 135h-62v156h156z" />
    <glyph glyph-name="Dcroat" unicode="&#x110;" horiz-adv-x="1085" 
d="M0 663v156h123v615h264q353 0 494 -193q123 -167 123 -525q0 -428 -158 -585q-132 -131 -430 -131h-293v663h-123zM287 1299v-480h205v-156h-205v-528h100q175 0 266 46q100 51 144 175q43 124 43 360q0 335 -119 465q-107 118 -348 118h-86z" />
    <glyph glyph-name="dcroat" unicode="&#x111;" horiz-adv-x="975" 
d="M741 0l-25 106h-4q-35 -58 -105 -92t-156 -34q-369 0 -369 528q0 262 93 399q93 138 276 138q166 0 241 -127h4v229h-225v123h225v164h156v-164h131v-123h-131v-1147h-111zM696 401v324q-34 89 -100 143q-61 50 -125 50q-135 0 -189 -122q-44 -97 -44 -288
q0 -217 58 -311q56 -90 175 -90q105 0 169 92q56 81 56 202z" />
    <glyph glyph-name="Emacron" unicode="&#x112;" horiz-adv-x="942" 
d="M123 1434h717v-135h-553v-480h430v-135h-430v-549h573v-135h-737v1434zM225 1556v115h504v-115h-504z" />
    <glyph glyph-name="emacron" unicode="&#x113;" horiz-adv-x="971" 
d="M496 107q184 0 239 188l140 -25q-42 -159 -138 -227q-88 -63 -241 -63q-222 0 -327 161q-87 133 -87 367q0 272 117 411q106 125 297 125q207 0 307 -168q86 -146 86 -409h-651q8 -191 73 -277q63 -83 185 -83zM242 594h487q-11 153 -70 237q-60 86 -163 86
q-231 0 -254 -323zM246 1212v115h504v-115h-504z" />
    <glyph glyph-name="Edotaccent" unicode="&#x116;" horiz-adv-x="942" 
d="M123 1434h717v-135h-553v-480h430v-135h-430v-549h573v-135h-737v1434zM566 1733v-176h-156v176h156z" />
    <glyph glyph-name="edotaccent" unicode="&#x117;" horiz-adv-x="971" 
d="M496 107q184 0 239 188l140 -25q-42 -159 -138 -227q-88 -63 -241 -63q-222 0 -327 161q-87 133 -87 367q0 272 117 411q106 125 297 125q207 0 307 -168q86 -146 86 -409h-651q8 -191 73 -277q63 -83 185 -83zM242 594h487q-11 153 -70 237q-60 86 -163 86
q-231 0 -254 -323zM572 1372v-176h-156v176h156z" />
    <glyph glyph-name="Eogonek" unicode="&#x118;" horiz-adv-x="942" 
d="M830 -311q71 0 132 47l43 -66q-78 -67 -182 -67q-215 0 -215 160q0 140 162 237h-647v1434h717v-135h-553v-480h430v-135h-430v-549h573v-135q-141 -110 -141 -209q0 -45 31 -73.5t80 -28.5z" />
    <glyph glyph-name="eogonek" unicode="&#x119;" horiz-adv-x="971" 
d="M496 107q184 0 239 188l140 -25q-39 -147 -122 -216q-77 -63 -208 -72q-116 -100 -116 -191q0 -45 31 -73.5t79 -28.5q71 0 133 47l43 -66q-78 -67 -182 -67q-215 0 -215 160q0 125 131 219q-197 14 -290 173q-77 132 -77 353q0 272 117 411q106 125 297 125
q207 0 307 -168q86 -146 86 -409h-651q8 -191 73 -277q63 -83 185 -83zM242 594h487q-11 153 -70 237q-60 86 -163 86q-231 0 -254 -323z" />
    <glyph glyph-name="Ecaron" unicode="&#x11a;" horiz-adv-x="942" 
d="M123 1434h717v-135h-553v-480h430v-135h-430v-549h573v-135h-737v1434zM596 1536h-196l-164 197h143l119 -105l119 105h143z" />
    <glyph glyph-name="ecaron" unicode="&#x11b;" horiz-adv-x="971" 
d="M496 107q184 0 239 188l140 -25q-42 -159 -138 -227q-88 -63 -241 -63q-222 0 -327 161q-87 133 -87 367q0 272 117 411q106 125 297 125q207 0 307 -168q86 -146 86 -409h-651q8 -191 73 -277q63 -83 185 -83zM242 594h487q-11 153 -70 237q-60 86 -163 86
q-231 0 -254 -323zM596 1176h-196l-164 196h143l119 -104l119 104h143z" />
    <glyph glyph-name="Gbreve" unicode="&#x11e;" horiz-adv-x="1106" 
d="M572 -29q-275 0 -390 207q-100 178 -100 539q0 401 131 582q120 164 359 164q194 0 299 -101q86 -81 137 -250l-150 -37q-42 138 -114 197q-67 56 -172 56q-180 0 -259 -177q-67 -149 -67 -434q0 -337 88 -482q78 -129 238 -129q114 0 200 90q88 92 88 238v115h-276v135
h440v-684h-102l-35 106q-38 -59 -126.5 -97t-188.5 -38zM707 1712h112q-17 -103 -91 -154q-61 -43 -150 -43q-102 0 -166 57q-58 51 -76 140h113q35 -95 129 -95t129 95z" />
    <glyph glyph-name="gbreve" unicode="&#x11f;" horiz-adv-x="975" 
d="M475 -270q96 0 156 62q65 69 65 200v155h-4q-75 -127 -242 -127q-368 0 -368 516q0 262 93 386q90 122 275 122q81 0 151 -34t111 -92h4l25 106h111v-1012q0 -225 -120 -328q-94 -81 -257 -81q-152 0 -248 70q-94 68 -123 196l141 29q19 -79 80 -123.5t150 -44.5z
M696 463v282q-30 78 -91.5 125t-133.5 47q-136 0 -189 -110q-44 -91 -44 -279q0 -214 58 -300q55 -81 175 -81q103 0 169 103q56 89 56 213zM621 1352h112q-17 -103 -91 -154q-61 -43 -150 -43q-102 0 -166 57q-58 51 -76 140h113q35 -95 129 -95t129 95z" />
    <glyph glyph-name="Gcommaaccent" unicode="&#x122;" horiz-adv-x="1106" 
d="M572 -29q-275 0 -390 207q-100 178 -100 539q0 401 131 582q120 164 359 164q194 0 299 -101q86 -81 137 -250l-150 -37q-42 138 -114 197q-67 56 -172 56q-180 0 -259 -177q-67 -149 -67 -434q0 -337 88 -482q78 -129 238 -129q114 0 200 90q88 92 88 238v115h-276v135
h440v-684h-102l-35 106q-38 -59 -126.5 -97t-188.5 -38zM662 -127v-156l-62 -135h-74l42 135h-62v156h156z" />
    <glyph glyph-name="gcommaaccent" unicode="&#x123;" horiz-adv-x="975" 
d="M475 -270q96 0 156 62q65 69 65 200v155h-4q-75 -127 -242 -127q-368 0 -368 516q0 262 93 386q90 122 275 122q81 0 151 -34t111 -92h4l25 106h111v-1012q0 -225 -120 -328q-94 -81 -257 -81q-152 0 -248 70q-94 68 -123 196l141 29q19 -79 80 -123.5t150 -44.5z
M696 463v282q-30 78 -91.5 125t-133.5 47q-136 0 -189 -110q-44 -91 -44 -279q0 -214 58 -300q55 -81 175 -81q103 0 169 103q56 89 56 213zM418 1192v156l62 135h73l-41 -135h62v-156h-156z" />
    <glyph glyph-name="Imacron" unicode="&#x12a;" horiz-adv-x="410" 
d="M287 1434v-1434h-164v1434h164zM-51 1556v115h504v-115h-504z" />
    <glyph glyph-name="imacron" unicode="&#x12b;" horiz-adv-x="401" 
d="M279 1024v-1024h-156v1024h156zM-51 1212v115h504v-115h-504z" />
    <glyph glyph-name="Iogonek" unicode="&#x12e;" horiz-adv-x="410" 
d="M256 -311q71 0 133 47l43 -66q-78 -67 -182 -67q-215 0 -215 160q0 141 162 237h-74v1434h164v-1434q-141 -110 -141 -209q0 -45 31 -73.5t79 -28.5z" />
    <glyph glyph-name="iogonek" unicode="&#x12f;" horiz-adv-x="401" 
d="M249 -311q70 0 132 47l43 -66q-78 -67 -182 -67q-215 0 -215 160q0 141 162 237h-66v1024h156v-1024q-141 -110 -141 -209q0 -45 31 -73.5t80 -28.5zM279 1372v-176h-156v176h156z" />
    <glyph glyph-name="Idotaccent" unicode="&#x130;" horiz-adv-x="410" 
d="M287 1434v-1434h-164v1434h164zM283 1761v-176h-156v176h156z" />
    <glyph glyph-name="dotlessi" unicode="&#x131;" horiz-adv-x="401" 
d="M279 1024v-1024h-156v1024h156z" />
    <glyph glyph-name="Kcommaaccent" unicode="&#x136;" 
d="M287 1434v-750h4l524 750h189l-428 -594l448 -840h-180l-373 694l-184 -258v-436h-164v1434h164zM607 -127v-156l-62 -135h-74l42 135h-62v156h156z" />
    <glyph glyph-name="kcommaaccent" unicode="&#x137;" horiz-adv-x="889" 
d="M279 1434v-908h4l352 498h172l-278 -381l319 -643h-168l-243 500h-4l-154 -191v-309h-156v1434h156zM545 -127v-156l-62 -135h-74l42 135h-62v156h156z" />
    <glyph glyph-name="Lacute" unicode="&#x139;" horiz-adv-x="840" 
d="M287 1434v-1299h512v-135h-676v1434h164zM246 1733h217l-205 -197h-135z" />
    <glyph glyph-name="lacute" unicode="&#x13a;" horiz-adv-x="401" 
d="M279 1434v-1434h-156v1434h156zM246 1732h217l-205 -196h-135z" />
    <glyph glyph-name="Lcommaaccent" unicode="&#x13b;" horiz-adv-x="840" 
d="M287 1434v-1299h512v-135h-676v1434h164zM545 -127v-156l-62 -135h-74l42 135h-62v156h156z" />
    <glyph glyph-name="lcommaaccent" unicode="&#x13c;" horiz-adv-x="401" 
d="M279 1434v-1434h-156v1434h156zM283 -127v-156l-62 -135h-74l42 135h-62v156h156z" />
    <glyph glyph-name="Lcaron" unicode="&#x13d;" horiz-adv-x="840" 
d="M287 1434v-1299h512v-135h-676v1434h164zM545 1454v-156l-62 -135h-74l42 135h-62v156h156z" />
    <glyph glyph-name="lcaron" unicode="&#x13e;" horiz-adv-x="516" 
d="M279 1434v-1434h-156v1434h156zM516 1454v-156l-62 -135h-74l42 135h-62v156h156z" />
    <glyph glyph-name="Lslash" unicode="&#x141;" horiz-adv-x="840" 
d="M0 442v156l123 84v752h164v-637l205 143v-155l-205 -144v-506h512v-135h-676v526z" />
    <glyph glyph-name="lslash" unicode="&#x142;" horiz-adv-x="401" 
d="M0 463v135l123 86v750h156v-641l122 86v-135l-122 -86v-658h-156v549z" />
    <glyph glyph-name="Nacute" unicode="&#x143;" horiz-adv-x="1126" 
d="M1004 1434v-1434h-106l-624 1112h-4v-1112h-147v1434h131l599 -1067h4v1067h147zM594 1733h217l-205 -197h-135z" />
    <glyph glyph-name="nacute" unicode="&#x144;" horiz-adv-x="975" 
d="M234 1024l24 -106h5q34 56 112.5 91t171.5 35q305 0 305 -360v-684h-156v684q0 124 -32 173q-39 60 -140 60q-77 0 -145.5 -47.5t-99.5 -124.5v-745h-156v1024h111zM512 1372h217l-205 -196h-135z" />
    <glyph glyph-name="Ncommaaccent" unicode="&#x145;" horiz-adv-x="1126" 
d="M1004 1434v-1434h-106l-624 1112h-4v-1112h-147v1434h131l599 -1067h4v1067h147zM648 -127v-156l-62 -135h-74l42 135h-62v156h156z" />
    <glyph glyph-name="ncommaaccent" unicode="&#x146;" horiz-adv-x="975" 
d="M234 1024l24 -106h5q34 56 112.5 91t171.5 35q305 0 305 -360v-684h-156v684q0 124 -32 173q-39 60 -140 60q-77 0 -145.5 -47.5t-99.5 -124.5v-745h-156v1024h111zM566 -127v-156l-62 -135h-74l42 135h-62v156h156z" />
    <glyph glyph-name="Ncaron" unicode="&#x147;" horiz-adv-x="1126" 
d="M1004 1434v-1434h-106l-624 1112h-4v-1112h-147v1434h131l599 -1067h4v1067h147zM665 1536h-196l-164 197h143l119 -105l119 105h143z" />
    <glyph glyph-name="ncaron" unicode="&#x148;" horiz-adv-x="975" 
d="M234 1024l24 -106h5q34 56 112.5 91t171.5 35q305 0 305 -360v-684h-156v684q0 124 -32 173q-39 60 -140 60q-77 0 -145.5 -47.5t-99.5 -124.5v-745h-156v1024h111zM585 1176h-196l-164 196h143l119 -104l119 104h143z" />
    <glyph glyph-name="Omacron" unicode="&#x14c;" horiz-adv-x="1147" 
d="M82 717q0 401 131 582q120 164 358 164q275 0 394 -214q100 -181 100 -532q0 -412 -132 -588q-118 -158 -362 -158q-274 0 -389 207q-100 178 -100 539zM246 717q0 -337 88 -482q78 -129 237 -129q184 0 262 169q68 147 68 442q0 325 -89 475q-81 136 -241 136
q-179 0 -258 -177q-67 -149 -67 -434zM322 1556v115h504v-115h-504z" />
    <glyph glyph-name="omacron" unicode="&#x14d;" horiz-adv-x="950" 
d="M475 -20q-209 0 -310 161q-83 134 -83 367q0 273 111 411q100 125 282 125q207 0 308 -162q85 -136 85 -374q0 -268 -109 -404q-101 -124 -284 -124zM475 107q136 0 192 120q45 96 45 281q0 409 -237 409t-237 -409q0 -212 60 -308q57 -93 177 -93zM223 1212v115h504
v-115h-504z" />
    <glyph glyph-name="Ohungarumlaut" unicode="&#x150;" horiz-adv-x="1147" 
d="M82 717q0 401 131 582q120 164 358 164q275 0 394 -214q100 -181 100 -532q0 -412 -132 -588q-118 -158 -362 -158q-274 0 -389 207q-100 178 -100 539zM246 717q0 -337 88 -482q78 -129 237 -129q184 0 262 169q68 147 68 442q0 325 -89 475q-81 136 -241 136
q-179 0 -258 -177q-67 -149 -67 -434zM469 1733h194l-180 -197h-135zM756 1733h194l-180 -197h-135z" />
    <glyph glyph-name="ohungarumlaut" unicode="&#x151;" horiz-adv-x="950" 
d="M475 -20q-209 0 -310 161q-83 134 -83 367q0 273 111 411q100 125 282 125q207 0 308 -162q85 -136 85 -374q0 -268 -109 -404q-101 -124 -284 -124zM475 107q136 0 192 120q45 96 45 281q0 409 -237 409t-237 -409q0 -212 60 -308q57 -93 177 -93zM346 1372h194
l-180 -196h-135zM633 1372h194l-180 -196h-135z" />
    <glyph glyph-name="OE" unicode="&#x152;" horiz-adv-x="1659" 
d="M740 1434h817v-135h-553v-480h430v-135h-430v-549h573v-135h-866q-214 0 -337 64q-131 68 -191 223q-60 156 -60 430q0 406 162 571q144 146 455 146zM840 135v1164h-86q-273 0 -377 -155q-90 -133 -90 -427q0 -366 116 -484q95 -98 337 -98h100z" />
    <glyph glyph-name="oe" unicode="&#x153;" horiz-adv-x="1602" 
d="M1126 107q185 0 240 188l139 -25q-42 -159 -137 -227q-88 -63 -242 -63q-232 0 -335 174q-100 -174 -316 -174q-209 0 -310 161q-83 134 -83 367q0 273 111 411q101 125 282 125q216 0 316 -180q106 180 335 180q208 0 307 -168q87 -146 87 -409h-652q9 -191 74 -277
q63 -83 184 -83zM475 107q137 0 193 120q45 96 45 281q0 409 -238 409q-237 0 -237 -409q0 -212 60 -308q57 -93 177 -93zM873 594h487q-11 153 -70 237q-60 86 -164 86q-230 0 -253 -323z" />
    <glyph glyph-name="Racute" unicode="&#x154;" 
d="M123 1434h350q490 0 490 -422q0 -329 -301 -398l342 -614h-174l-332 598h-211v-598h-164v1434zM287 733h190q182 0 254 69q68 65 68 210q0 155 -79.5 221t-266.5 66h-166v-566zM533 1733h217l-205 -197h-135z" />
    <glyph glyph-name="racute" unicode="&#x155;" horiz-adv-x="623" 
d="M234 1024l24 -106h5q40 66 115.5 96t203.5 30v-155q-30 8 -68 8q-130 0 -185 -76q-50 -69 -50 -219v-602h-156v1024h111zM348 1372h217l-205 -196h-135z" />
    <glyph glyph-name="Rcommaaccent" unicode="&#x156;" 
d="M123 1434h350q490 0 490 -422q0 -329 -301 -398l342 -614h-174l-332 598h-211v-598h-164v1434zM287 733h190q182 0 254 69q68 65 68 210q0 155 -79.5 221t-266.5 66h-166v-566zM607 -127v-156l-62 -135h-74l42 135h-62v156h156z" />
    <glyph glyph-name="rcommaaccent" unicode="&#x157;" horiz-adv-x="623" 
d="M234 1024l24 -106h5q40 66 115.5 96t203.5 30v-155q-30 8 -68 8q-130 0 -185 -76q-50 -69 -50 -219v-602h-156v1024h111zM283 -127v-156l-62 -135h-74l42 135h-62v156h156z" />
    <glyph glyph-name="Rcaron" unicode="&#x158;" 
d="M123 1434h350q490 0 490 -422q0 -329 -301 -398l342 -614h-174l-332 598h-211v-598h-164v1434zM287 733h190q182 0 254 69q68 65 68 210q0 155 -79.5 221t-266.5 66h-166v-566zM587 1536h-196l-164 197h143l119 -105l119 105h143z" />
    <glyph glyph-name="rcaron" unicode="&#x159;" horiz-adv-x="657" 
d="M254 1024l24 -106h5q40 66 115.5 96t203.5 30v-155q-30 8 -68 8q-130 0 -185 -76q-50 -69 -50 -219v-602h-156v1024h111zM452 1176h-196l-164 196h143l119 -104l119 104h143z" />
    <glyph glyph-name="Sacute" unicode="&#x15a;" horiz-adv-x="1004" 
d="M907 1133l-149 -37q-69 232 -277 232q-106 0 -170 -72q-57 -63 -57 -160q0 -126 107 -206q56 -42 203 -104q199 -84 272 -155q106 -104 106 -271q0 -197 -141 -302q-115 -87 -291 -87q-184 0 -308 103q-109 90 -161 250l152 37q40 -121 126 -189q84 -66 193 -66
q124 0 199 78q67 69 67 176q0 113 -103 190q-54 40 -196 104q-203 90 -279 164q-110 109 -110 278q0 182 127 283q108 84 272 84t275 -95q98 -84 143 -235zM512 1733h217l-205 -197h-135z" />
    <glyph glyph-name="sacute" unicode="&#x15b;" horiz-adv-x="815" 
d="M737 854l-114 -88q-91 143 -219 143q-81 0 -127 -43q-41 -38 -41 -98q0 -50 40.5 -83t160.5 -82q163 -66 225 -123q92 -84 92 -211q0 -143 -105 -222q-88 -67 -225 -67q-126 0 -232 63q-94 56 -151 150l115 86q108 -164 268 -164q87 0 135 47q41 41 41 106q0 60 -44.5 99
t-175.5 95q-154 66 -212 117q-84 76 -84 189q0 132 102 209q88 67 217 67q104 0 181.5 -44t152.5 -146zM414 1372h217l-205 -196h-135z" />
    <glyph glyph-name="Scedilla" unicode="&#x15e;" horiz-adv-x="1004" 
d="M277 -327l34 61q66 -53 142 -53q43 0 71.5 22t28.5 56q0 33 -29 55.5t-71 22.5q-39 0 -62 -17l-22 12l82 144q-160 15 -268 115q-95 87 -142 233l152 37q40 -120 126 -188q84 -66 193 -66q124 0 199 78q67 69 67 176q0 113 -103 189q-54 41 -196 104q-203 90 -279 165
q-110 109 -110 277q0 182 127 283q108 84 272 84t275 -95q98 -84 143 -235l-149 -37q-69 232 -277 232q-106 0 -170 -72q-57 -63 -57 -160q0 -126 107 -206q56 -41 203 -104q199 -84 272 -155q106 -104 106 -270q0 -190 -133 -296q-109 -87 -276 -93l-39 -66l2 -2q16 4 32 4
q55 0 100.5 -47t45.5 -104q0 -154 -215 -154q-113 0 -182 70z" />
    <glyph glyph-name="scedilla" unicode="&#x15f;" horiz-adv-x="815" 
d="M205 -328l35 62q65 -53 141 -53q43 0 71.5 22t28.5 55t-29 55.5t-71 22.5q-38 0 -61 -16l-23 12l86 150q-109 9 -199 64.5t-143 146.5l115 86q108 -164 268 -164q87 0 135 47q41 41 41 106q0 60 -44.5 99t-175.5 95q-154 66 -212 117q-84 76 -84 189q0 132 102 209
q88 67 217 67q104 0 181.5 -44t152.5 -146l-114 -88q-91 143 -219 143q-81 0 -127 -43q-41 -38 -41 -98q0 -50 40.5 -83t160.5 -82q163 -67 225 -123q92 -84 92 -212q0 -132 -91 -210q-77 -66 -198 -76l-43 -76l2 -2q16 4 33 4q55 0 100 -47t45 -104q0 -154 -215 -154
q-113 0 -182 69z" />
    <glyph glyph-name="Scaron" unicode="&#x160;" horiz-adv-x="1004" 
d="M907 1133l-149 -37q-69 232 -277 232q-106 0 -170 -72q-57 -63 -57 -160q0 -126 107 -206q56 -42 203 -104q199 -84 272 -155q106 -104 106 -271q0 -197 -141 -302q-115 -87 -291 -87q-184 0 -308 103q-109 90 -161 250l152 37q40 -121 126 -189q84 -66 193 -66
q124 0 199 78q67 69 67 176q0 113 -103 190q-54 40 -196 104q-203 90 -279 164q-110 109 -110 278q0 182 127 283q108 84 272 84t275 -95q98 -84 143 -235zM589 1536h-196l-164 197h143l119 -105l119 105h143z" />
    <glyph glyph-name="scaron" unicode="&#x161;" horiz-adv-x="815" 
d="M737 854l-114 -88q-91 143 -219 143q-81 0 -127 -43q-41 -38 -41 -98q0 -50 40.5 -83t160.5 -82q163 -66 225 -123q92 -84 92 -211q0 -143 -105 -222q-88 -67 -225 -67q-126 0 -232 63q-94 56 -151 150l115 86q108 -164 268 -164q87 0 135 47q41 41 41 106q0 60 -44.5 99
t-175.5 95q-154 66 -212 117q-84 76 -84 189q0 132 102 209q88 67 217 67q104 0 181.5 -44t152.5 -146zM497 1176h-196l-164 196h143l119 -104l119 104h143z" />
    <glyph glyph-name="Tcommaaccent" unicode="&#x162;" horiz-adv-x="942" 
d="M41 1434h860v-135h-348v-1299h-164v1299h-348v135zM549 -127v-156l-62 -135h-74l42 135h-62v156h156z" />
    <glyph glyph-name="tcommaaccent" unicode="&#x163;" horiz-adv-x="586" 
d="M524 127v-127h-88q-135 0 -193.5 70.5t-58.5 234.5v592h-143v127h143l29 303h127v-303h164v-127h-164v-590q0 -106 21 -141q23 -39 90 -39h73zM404 -127v-156l-62 -135h-74l42 135h-62v156h156z" />
    <glyph glyph-name="Tcaron" unicode="&#x164;" horiz-adv-x="942" 
d="M41 1434h860v-135h-348v-1299h-164v1299h-348v135zM575 1565h-196l-164 197h143l119 -105l119 105h143z" />
    <glyph glyph-name="tcaron" unicode="&#x165;" horiz-adv-x="586" 
d="M524 127v-127h-88q-135 0 -193.5 70.5t-58.5 234.5v592h-143v127h143l29 303h127v-303h164v-127h-164v-590q0 -106 21 -141q23 -39 90 -39h73zM578 1454v-156l-62 -135h-74l42 135h-62v156h156z" />
    <glyph glyph-name="Umacron" unicode="&#x16a;" horiz-adv-x="1147" 
d="M287 1434v-869q0 -231 60 -338q67 -121 220 -121q181 0 248 152q45 101 45 287v889h164v-889q0 -299 -103 -432q-109 -142 -354 -142q-269 0 -371 187q-73 135 -73 397v879h164zM322 1556v115h504v-115h-504z" />
    <glyph glyph-name="umacron" unicode="&#x16b;" horiz-adv-x="975" 
d="M745 0l-24 106h-4q-34 -56 -114.5 -91t-174.5 -35q-305 0 -305 360v684h156v-684q0 -124 32 -173q39 -60 140 -60q77 0 145.5 47.5t99.5 124.5v745h156v-1024h-107zM234 1212v115h504v-115h-504z" />
    <glyph glyph-name="Uring" unicode="&#x16e;" horiz-adv-x="1147" 
d="M389 1698q0 82 61 137q52 47 124 47q82 0 137 -61q47 -52 47 -123q0 -83 -61 -138q-52 -47 -123 -47q-83 0 -138 61q-47 52 -47 124zM483 1698q0 -38 26.5 -64.5t64.5 -26.5q37 0 63.5 26.5t26.5 64.5q0 37 -26.5 63.5t-63.5 26.5t-64 -26.5t-27 -63.5zM287 1434v-869
q0 -231 60 -338q67 -121 220 -121q181 0 248 152q45 101 45 287v889h164v-889q0 -299 -103 -432q-109 -142 -354 -142q-269 0 -371 187q-73 135 -73 397v879h164z" />
    <glyph glyph-name="uring" unicode="&#x16f;" horiz-adv-x="975" 
d="M307 1374q0 83 61 138q52 47 124 47q82 0 137 -61q47 -52 47 -124q0 -82 -61 -137q-52 -47 -123 -47q-83 0 -138 61q-47 52 -47 123zM401 1374q0 -37 26.5 -63.5t64.5 -26.5q37 0 63.5 26.5t26.5 63.5q0 38 -26.5 64.5t-63.5 26.5q-38 0 -64.5 -26.5t-26.5 -64.5zM745 0
l-24 106h-4q-34 -56 -114.5 -91t-174.5 -35q-305 0 -305 360v684h156v-684q0 -124 32 -173q39 -60 140 -60q77 0 145.5 47.5t99.5 124.5v745h156v-1024h-107z" />
    <glyph glyph-name="Uhungarumlaut" unicode="&#x170;" horiz-adv-x="1147" 
d="M287 1434v-869q0 -231 60 -338q67 -121 220 -121q181 0 248 152q45 101 45 287v889h164v-889q0 -299 -103 -432q-109 -142 -354 -142q-269 0 -371 187q-73 135 -73 397v879h164zM469 1733h194l-180 -197h-135zM756 1733h194l-180 -197h-135z" />
    <glyph glyph-name="uhungarumlaut" unicode="&#x171;" horiz-adv-x="975" 
d="M745 0l-24 106h-4q-34 -56 -114.5 -91t-174.5 -35q-305 0 -305 360v684h156v-684q0 -124 32 -173q39 -60 140 -60q77 0 145.5 47.5t99.5 124.5v745h156v-1024h-107zM367 1372h194l-180 -196h-135zM654 1372h194l-180 -196h-135z" />
    <glyph glyph-name="Uogonek" unicode="&#x172;" horiz-adv-x="1147" 
d="M651 -311q72 0 133 47l43 -65q-78 -68 -182 -68q-215 0 -215 160q0 124 119 209q-258 6 -356 192q-70 134 -70 391v879h164v-868q0 -231 60 -338q67 -121 220 -121q181 0 248 152q45 101 45 286v889h164v-889q0 -273 -85 -406q-90 -140 -288 -161q-110 -97 -110 -187
q0 -45 31 -73.5t79 -28.5z" />
    <glyph glyph-name="uogonek" unicode="&#x173;" horiz-adv-x="975" 
d="M745 0l-24 106h-4q-34 -56 -114.5 -91t-174.5 -35q-305 0 -305 360v684h156v-684q0 -124 32 -173q39 -60 140 -60q77 0 145.5 47.5t99.5 124.5v745h156v-1024h-4q-142 -110 -142 -209q0 -45 31 -73.5t80 -28.5q71 0 133 47l43 -66q-78 -67 -182 -67q-215 0 -215 160
q0 141 162 237h-13z" />
    <glyph glyph-name="Ydieresis" unicode="&#x178;" 
d="M1024 1434l-407 -828v-606h-164v606l-412 828h172l322 -676h4l313 676h172zM461 1733v-176h-156v176h156zM768 1733v-176h-156v176h156z" />
    <glyph glyph-name="Zacute" unicode="&#x179;" horiz-adv-x="1004" 
d="M123 1434h778v-106l-635 -1193h656v-135h-840v106l635 1193h-594v135zM512 1733h217l-205 -197h-135z" />
    <glyph glyph-name="zacute" unicode="&#x17a;" horiz-adv-x="909" 
d="M143 1024h643v-86l-500 -807v-4h521v-127h-705v86l500 807v4h-459v127zM473 1372h217l-205 -196h-135z" />
    <glyph glyph-name="Zdotaccent" unicode="&#x17b;" horiz-adv-x="1004" 
d="M123 1434h778v-106l-635 -1193h656v-135h-840v106l635 1193h-594v135zM566 1733v-176h-156v176h156z" />
    <glyph glyph-name="zdotaccent" unicode="&#x17c;" horiz-adv-x="909" 
d="M143 1024h643v-86l-500 -807v-4h521v-127h-705v86l500 807v4h-459v127zM545 1372v-176h-156v176h156z" />
    <glyph glyph-name="Zcaron" unicode="&#x17d;" horiz-adv-x="1004" 
d="M123 1434h778v-106l-635 -1193h656v-135h-840v106l635 1193h-594v135zM600 1536h-196l-164 197h143l119 -105l119 105h143z" />
    <glyph glyph-name="zcaron" unicode="&#x17e;" horiz-adv-x="909" 
d="M143 1024h643v-86l-500 -807v-4h521v-127h-705v86l500 807v4h-459v127zM552 1176h-196l-164 196h143l119 -104l119 104h143z" />
    <glyph glyph-name="uni018F" unicode="&#x18f;" horiz-adv-x="1188" 
d="M580 1328q-129 0 -204 -76q-62 -63 -110 -199q-143 29 -155 29q74 217 168 295q104 86 301 86q302 0 428 -226q98 -177 98 -514q0 -391 -137 -576q-130 -176 -389 -176q-275 0 -395 233q-99 191 -103 558h860q-14 308 -96 435q-84 131 -266 131zM940 621h-692
q19 -252 93 -377q83 -138 239 -138q201 0 287 176q56 116 73 339z" />
    <glyph glyph-name="uni01DD" unicode="&#x1dd;" horiz-adv-x="971" 
d="M475 917q-184 0 -239 -188l-140 25q42 159 138 227q88 63 241 63q222 0 327 -161q87 -133 87 -367q0 -272 -117 -411q-106 -125 -297 -125q-207 0 -307 168q-86 146 -86 409h651q-8 191 -73 277q-63 83 -185 83zM729 430h-487q11 -153 70 -237q60 -86 163 -86
q231 0 254 323z" />
    <glyph glyph-name="Scommaaccent" unicode="&#x218;" horiz-adv-x="1004" 
d="M907 1133l-149 -37q-69 232 -277 232q-106 0 -170 -72q-57 -63 -57 -160q0 -126 107 -206q56 -42 203 -104q199 -84 272 -155q106 -104 106 -271q0 -197 -141 -302q-115 -87 -291 -87q-184 0 -308 103q-109 90 -161 250l152 37q40 -121 126 -189q84 -66 193 -66
q124 0 199 78q67 69 67 176q0 113 -103 190q-54 40 -196 104q-203 90 -279 164q-110 109 -110 278q0 182 127 283q108 84 272 84t275 -95q98 -84 143 -235zM586 -127v-156l-62 -135h-74l42 135h-62v156h156z" />
    <glyph glyph-name="scommaaccent" unicode="&#x219;" horiz-adv-x="815" 
d="M737 854l-114 -88q-91 143 -219 143q-81 0 -127 -43q-41 -38 -41 -98q0 -50 40.5 -83t160.5 -82q163 -66 225 -123q92 -84 92 -211q0 -143 -105 -222q-88 -67 -225 -67q-126 0 -232 63q-94 56 -151 150l115 86q108 -164 268 -164q87 0 135 47q41 41 41 106q0 60 -44.5 99
t-175.5 95q-154 66 -212 117q-84 76 -84 189q0 132 102 209q88 67 217 67q104 0 181.5 -44t152.5 -146zM496 -127v-156l-62 -135h-74l42 135h-62v156h156z" />
    <glyph glyph-name="uni021A" unicode="&#x21a;" horiz-adv-x="942" 
d="M41 1434h860v-135h-348v-1299h-164v1299h-348v135zM549 -127v-156l-62 -135h-74l42 135h-62v156h156z" />
    <glyph glyph-name="uni021B" unicode="&#x21b;" horiz-adv-x="586" 
d="M524 127v-127h-88q-135 0 -193.5 70.5t-58.5 234.5v592h-143v127h143l29 303h127v-303h164v-127h-164v-590q0 -106 21 -141q23 -39 90 -39h73zM404 -127v-156l-62 -135h-74l42 135h-62v156h156z" />
    <glyph glyph-name="uni0259" unicode="&#x259;" horiz-adv-x="971" 
d="M475 917q-184 0 -239 -188l-140 25q42 159 138 227q88 63 241 63q222 0 327 -161q87 -133 87 -367q0 -272 -117 -411q-106 -125 -297 -125q-207 0 -307 168q-86 146 -86 409h651q-8 191 -73 277q-63 83 -185 83zM729 430h-487q11 -153 70 -237q60 -86 163 -86
q231 0 254 323z" />
    <glyph glyph-name="circumflex" unicode="&#x2c6;" horiz-adv-x="770" 
d="M287 1372h196l164 -196h-143l-119 104l-119 -104h-143z" />
    <glyph glyph-name="caron" unicode="&#x2c7;" horiz-adv-x="770" 
d="M483 1176h-196l-164 196h143l119 -104l119 104h143z" />
    <glyph glyph-name="uni02C9" unicode="&#x2c9;" horiz-adv-x="750" 
d="M123 1212v115h504v-115h-504z" />
    <glyph glyph-name="breve" unicode="&#x2d8;" horiz-adv-x="729" 
d="M494 1352h112q-17 -103 -91 -154q-61 -43 -150 -43q-102 0 -166 57q-58 51 -76 140h113q35 -95 129 -95t129 95z" />
    <glyph glyph-name="dotaccent" unicode="&#x2d9;" horiz-adv-x="401" 
d="M279 1372v-176h-156v176h156z" />
    <glyph glyph-name="ring" unicode="&#x2da;" horiz-adv-x="614" 
d="M123 1334q0 82 61 137q52 47 123 47q83 0 138 -61q47 -52 47 -123q0 -83 -61 -138q-52 -47 -124 -47q-82 0 -137 61q-47 52 -47 124zM217 1334q0 -38 26.5 -64.5t63.5 -26.5q38 0 64.5 26.5t26.5 64.5q0 37 -26.5 63.5t-64.5 26.5q-37 0 -63.5 -26.5t-26.5 -63.5z" />
    <glyph glyph-name="ogonek" unicode="&#x2db;" horiz-adv-x="643" 
d="M344 -311q72 0 133 47l43 -66q-78 -67 -182 -67q-215 0 -215 160q0 141 162 237h90q-141 -110 -141 -209q0 -45 31 -73.5t79 -28.5z" />
    <glyph glyph-name="tilde" unicode="&#x2dc;" horiz-adv-x="750" 
d="M258 1360q67 0 132 -39q43 -26 71 -26q44 0 55 65h111q-9 -85 -45.5 -134.5t-89.5 -49.5q-65 0 -134 40q-43 25 -69 25q-44 0 -55 -65h-111q9 87 45 135.5t90 48.5z" />
    <glyph glyph-name="hungarumlaut" unicode="&#x2dd;" horiz-adv-x="848" 
d="M244 1372h194l-180 -196h-135zM531 1372h194l-180 -196h-135z" />
    <glyph glyph-name="uni0309" unicode="&#x309;" horiz-adv-x="643" 
d="M123 1722q70 69 182 69q215 0 215 -153q0 -64 -53 -112q-44 -39 -92 -39q-16 0 -33 4l-2 -2l2 -95h-122l-5 168l23 12q23 -16 61 -16q43 0 71.5 22.5t28.5 55.5t-28.5 55t-71.5 22q-76 0 -141 -53z" />
    <glyph glyph-name="uni0323" unicode="&#x323;" horiz-adv-x="401" 
d="M279 -116v-176h-156v176h156z" />
    <glyph glyph-name="uni037E" unicode="&#x37e;" horiz-adv-x="360" 
d="M258 176v-176l-62 -176h-74l42 176h-62v176h156zM258 901v-176h-156v176h156z" />
    <glyph glyph-name="tonos" unicode="&#x384;" horiz-adv-x="461" 
d="M221 1463l137 -49l-156 -370l-100 37z" />
    <glyph glyph-name="Alphatonos" unicode="&#x386;" 
d="M328 438l-123 -438h-164l416 1434h147l420 -1434h-164l-123 438h-409zM365 573h335l-165 597h-5zM191 1463l137 -49l-156 -370l-100 37z" />
    <glyph glyph-name="uni0387" unicode="&#x387;" horiz-adv-x="565" 
d="M361 819v-176h-156v176h156z" />
    <glyph glyph-name="Epsilontonos" unicode="&#x388;" horiz-adv-x="1126" 
d="M307 1434h717v-135h-553v-480h430v-135h-430v-549h573v-135h-737v1434zM88 1463l137 -49l-156 -370l-100 37z" />
    <glyph glyph-name="Etatonos" unicode="&#x389;" horiz-adv-x="1331" 
d="M471 684v-684h-164v1434h164v-615h573v615h164v-1434h-164v684h-573zM88 1463l137 -49l-156 -370l-100 37z" />
    <glyph glyph-name="Iotatonos" unicode="&#x38a;" horiz-adv-x="594" 
d="M471 1434v-1434h-164v1434h164zM88 1463l137 -49l-156 -370l-100 37z" />
    <glyph glyph-name="Omicrontonos" unicode="&#x38c;" horiz-adv-x="1208" 
d="M184 717q0 401 131 582q120 164 358 164q275 0 394 -214q100 -181 100 -532q0 -412 -132 -588q-118 -158 -362 -158q-274 0 -389 207q-100 178 -100 539zM348 717q0 -337 88 -482q78 -129 237 -129q184 0 262 169q68 147 68 442q0 325 -89 475q-81 136 -241 136
q-179 0 -258 -177q-67 -149 -67 -434zM88 1463l137 -49l-156 -370l-100 37z" />
    <glyph glyph-name="Upsilontonos" unicode="&#x38e;" horiz-adv-x="1290" 
d="M1248 1434l-407 -828v-606h-164v606l-412 828h172l322 -676h4l313 676h172zM88 1463l137 -49l-156 -370l-100 37z" />
    <glyph glyph-name="Omegatonos" unicode="&#x38f;" horiz-adv-x="1262" 
d="M88 1463l137 -49l-156 -370l-100 37zM325 135v4q-139 169 -139 592q0 399 131 574q119 158 358 158q276 0 394 -206q100 -176 100 -526q0 -424 -141 -592v-4h192v-135h-397v168q182 101 182 564q0 322 -89 466q-80 130 -241 130q-180 0 -258 -169q-67 -144 -67 -427
q0 -256 49 -394q43 -123 131 -170v-168h-395v135h190z" />
    <glyph glyph-name="iotadieresistonos" unicode="&#x390;" horiz-adv-x="401" 
d="M63 1362v-166h-145v166h145zM483 1362v-166h-145v166h145zM279 1024v-1024h-156v1024h156zM221 1536l137 -49l-155 -369l-101 37z" />
    <glyph glyph-name="Alpha" unicode="&#x391;" 
d="M328 438l-123 -438h-164l416 1434h147l420 -1434h-164l-123 438h-409zM365 573h335l-165 597h-5z" />
    <glyph glyph-name="Beta" unicode="&#x392;" horiz-adv-x="1044" 
d="M707 758v-4q128 -25 196 -131q60 -93 60 -230q0 -213 -144 -312q-118 -81 -323 -81h-373v1434h326q473 0 473 -361q0 -263 -215 -315zM287 135h168q190 0 265 55q79 59 79 203q0 170 -106 237q-85 54 -257 54h-149v-549zM287 819h152q177 0 248 58q71 59 71 196
q0 121 -76.5 173.5t-253.5 52.5h-141v-480z" />
    <glyph glyph-name="Gamma" unicode="&#x393;" horiz-adv-x="840" 
d="M287 1299v-1299h-164v1434h676v-135h-512z" />
    <glyph glyph-name="Delta" unicode="&#x394;" horiz-adv-x="1061" 
d="M1020 0h-979l414 1434h147zM819 135l-286 1035h-5l-288 -1035h579z" />
    <glyph glyph-name="Delta" unicode="&#x2206;" horiz-adv-x="1061" 
d="M1020 0h-979l414 1434h147zM819 135l-286 1035h-5l-288 -1035h579z" />
    <glyph glyph-name="Epsilon" unicode="&#x395;" horiz-adv-x="942" 
d="M123 1434h717v-135h-553v-480h430v-135h-430v-549h573v-135h-737v1434z" />
    <glyph glyph-name="Zeta" unicode="&#x396;" horiz-adv-x="1004" 
d="M123 1434h778v-106l-635 -1193h656v-135h-840v106l635 1193h-594v135z" />
    <glyph glyph-name="Eta" unicode="&#x397;" horiz-adv-x="1147" 
d="M287 684v-684h-164v1434h164v-615h573v615h164v-1434h-164v684h-573z" />
    <glyph glyph-name="Theta" unicode="&#x398;" horiz-adv-x="1147" 
d="M369 680v143h410v-143h-410zM82 717q0 401 131 582q120 164 358 164q275 0 394 -214q100 -181 100 -532q0 -412 -132 -588q-118 -158 -362 -158q-274 0 -389 207q-100 178 -100 539zM246 717q0 -337 88 -482q78 -129 237 -129q184 0 262 169q68 147 68 442q0 325 -89 475
q-81 136 -241 136q-179 0 -258 -177q-67 -149 -67 -434z" />
    <glyph glyph-name="Iota" unicode="&#x399;" horiz-adv-x="410" 
d="M287 1434v-1434h-164v1434h164z" />
    <glyph glyph-name="Kappa" unicode="&#x39a;" 
d="M287 1434v-750h4l524 750h189l-428 -594l448 -840h-180l-373 694l-184 -258v-436h-164v1434h164z" />
    <glyph glyph-name="Lambda" unicode="&#x39b;" 
d="M860 0l-325 1170h-5l-325 -1170h-164l416 1434h147l420 -1434h-164z" />
    <glyph glyph-name="Mu" unicode="&#x39c;" horiz-adv-x="1352" 
d="M1229 1434v-1434h-147v1155h-4l-330 -1155h-133l-341 1155h-4v-1155h-147v1434h219l336 -1145h4l332 1145h215z" />
    <glyph glyph-name="Nu" unicode="&#x39d;" horiz-adv-x="1126" 
d="M1004 1434v-1434h-106l-624 1112h-4v-1112h-147v1434h131l599 -1067h4v1067h147z" />
    <glyph glyph-name="Xi" unicode="&#x39e;" horiz-adv-x="922" 
d="M82 135h758v-135h-758v135zM164 684v135h594v-135h-594zM82 1299v135h758v-135h-758z" />
    <glyph glyph-name="Omicron" unicode="&#x39f;" horiz-adv-x="1147" 
d="M82 717q0 401 131 582q120 164 358 164q275 0 394 -214q100 -181 100 -532q0 -412 -132 -588q-118 -158 -362 -158q-274 0 -389 207q-100 178 -100 539zM246 717q0 -337 88 -482q78 -129 237 -129q184 0 262 169q68 147 68 442q0 325 -89 475q-81 136 -241 136
q-179 0 -258 -177q-67 -149 -67 -434z" />
    <glyph glyph-name="Pi" unicode="&#x3a0;" horiz-adv-x="1147" 
d="M287 1299v-1299h-164v1434h901v-1434h-164v1299h-573z" />
    <glyph glyph-name="Rho" unicode="&#x3a1;" horiz-adv-x="1044" 
d="M123 1434h350q490 0 490 -422q0 -414 -473 -414h-203v-598h-164v1434zM287 733h190q182 0 254 69q68 65 68 210q0 155 -79.5 221t-266.5 66h-166v-566z" />
    <glyph glyph-name="Sigma" unicode="&#x3a3;" horiz-adv-x="942" 
d="M82 1434h758v-135h-565l370 -547l-370 -617h585v-135h-778v106l389 646l-389 576v106z" />
    <glyph glyph-name="Tau" unicode="&#x3a4;" horiz-adv-x="942" 
d="M41 1434h860v-135h-348v-1299h-164v1299h-348v135z" />
    <glyph glyph-name="Upsilon" unicode="&#x3a5;" 
d="M1024 1434l-407 -828v-606h-164v606l-412 828h172l322 -676h4l313 676h172z" />
    <glyph glyph-name="Phi" unicode="&#x3a6;" horiz-adv-x="1409" 
d="M787 1434v-227q284 -17 446 -173q136 -132 136 -319q0 -222 -175 -356q-155 -119 -407 -134v-225h-164v225q-282 17 -441 164q-141 130 -141 326q0 214 183 355q160 124 399 137v227h164zM1205 715q0 175 -111 260q-100 78 -307 96v-708q234 16 334 115q84 83 84 237z
M205 715q0 -326 418 -352v708q-231 -21 -331 -119q-87 -85 -87 -237z" />
    <glyph glyph-name="Chi" unicode="&#x3a7;" 
d="M983 1434l-364 -682l405 -752h-176l-307 586h-4l-320 -586h-176l410 746l-369 688h176l275 -529h4l270 529h176z" />
    <glyph glyph-name="Psi" unicode="&#x3a8;" horiz-adv-x="1229" 
d="M983 1006v428h164v-428q0 -243 -112 -395q-117 -161 -340 -181v-430h-164v430q-249 21 -365 223q-84 145 -84 353v428h164v-428q0 -381 285 -434v862h164v-862q288 50 288 434z" />
    <glyph glyph-name="Omega" unicode="&#x3a9;" horiz-adv-x="1167" 
d="M231 135v4q-139 169 -139 592q0 399 131 574q119 158 359 158q275 0 393 -206q100 -176 100 -526q0 -424 -141 -592v-4h192v-135h-397v168q182 101 182 564q0 322 -89 466q-80 130 -241 130q-180 0 -258 -169q-67 -144 -67 -427q0 -256 48 -394q44 -123 132 -170v-168
h-395v135h190z" />
    <glyph glyph-name="Omega" unicode="&#x2126;" horiz-adv-x="1167" 
d="M231 135v4q-139 169 -139 592q0 399 131 574q119 158 359 158q275 0 393 -206q100 -176 100 -526q0 -424 -141 -592v-4h192v-135h-397v168q182 101 182 564q0 322 -89 466q-80 130 -241 130q-180 0 -258 -169q-67 -144 -67 -427q0 -256 48 -394q44 -123 132 -170v-168
h-395v135h190z" />
    <glyph glyph-name="Iotadieresis" unicode="&#x3aa;" horiz-adv-x="410" 
d="M287 1434v-1434h-164v1434h164zM129 1733v-176h-156v176h156zM436 1733v-176h-156v176h156z" />
    <glyph glyph-name="Upsilondieresis" unicode="&#x3ab;" 
d="M1024 1434l-407 -828v-606h-164v606l-412 828h172l322 -676h4l313 676h172zM461 1733v-176h-156v176h156zM768 1733v-176h-156v176h156z" />
    <glyph glyph-name="alphatonos" unicode="&#x3ac;" horiz-adv-x="1053" 
d="M971 0h-156q-33 79 -45 162h-4q-75 -182 -291 -182q-209 0 -310 161q-83 134 -83 367q0 273 111 411q101 125 282 125q211 0 293 -188h4q12 86 43 168h156q-103 -264 -103 -516q0 -258 103 -508zM475 107q136 0 192 120q45 96 45 281q0 409 -237 409t-237 -409
q0 -212 60 -308q57 -93 177 -93zM580 1537l137 -49l-156 -370l-100 37z" />
    <glyph glyph-name="epsilontonos" unicode="&#x3ad;" horiz-adv-x="889" 
d="M755 156l52 -121q-142 -55 -320 -55q-405 0 -405 301q0 194 192 258v4q-147 54 -147 219q0 120 84 198q92 84 262 84q123 0 258 -45l-33 -120q-133 38 -225 38q-110 0 -164 -50q-43 -41 -43 -105q0 -82 72 -127q64 -41 168 -41h104v-127h-104q-144 0 -217 -53
q-66 -47 -66 -133q0 -174 264 -174q128 0 268 49zM531 1535l137 -49l-156 -370l-100 37z" />
    <glyph glyph-name="etatonos" unicode="&#x3ae;" horiz-adv-x="975" 
d="M234 1024l24 -106h5q34 56 112.5 91t171.5 35q305 0 305 -360v-1053h-156v1053q0 124 -32 173q-39 60 -140 60q-77 0 -145.5 -47.5t-99.5 -124.5v-745h-156v1024h111zM539 1537l137 -49l-156 -370l-100 37z" />
    <glyph glyph-name="iotatonos" unicode="&#x3af;" horiz-adv-x="401" 
d="M279 1024v-1024h-156v1024h156zM242 1537l137 -49l-156 -370l-100 37z" />
    <glyph glyph-name="upsilondieresistonos" unicode="&#x3b0;" horiz-adv-x="1008" 
d="M350 1362v-166h-145v166h145zM791 1362v-166h-145v166h145zM279 1024v-537q0 -210 51 -294q52 -86 174 -86q136 0 186 111q39 86 39 269v537h156v-535q0 -276 -99 -397q-92 -112 -282 -112q-217 0 -307 145q-74 121 -74 362v537h156zM518 1536l137 -49l-155 -369l-101 37
z" />
    <glyph glyph-name="alpha" unicode="&#x3b1;" horiz-adv-x="1053" 
d="M971 0h-156q-33 79 -45 162h-4q-75 -182 -291 -182q-209 0 -310 161q-83 134 -83 367q0 273 111 411q101 125 282 125q211 0 293 -188h4q12 86 43 168h156q-103 -264 -103 -516q0 -258 103 -508zM475 107q136 0 192 120q45 96 45 281q0 409 -237 409t-237 -409
q0 -212 60 -308q57 -93 177 -93z" />
    <glyph glyph-name="beta" unicode="&#x3b2;" horiz-adv-x="1008" 
d="M279 -369h-156v1442q0 179 104 288q98 102 256 102q182 0 281 -130q80 -105 80 -259q0 -122 -43 -195.5t-139 -116.5v-4q264 -76 264 -385q0 -199 -144 -309q-123 -93 -313 -93q-99 0 -190 35v-375zM469 98q146 0 231 82q76 73 76 193q0 154 -102 240q-86 71 -217 71h-35
v135h33q136 0 189 72q44 58 44 183q0 254 -205 254q-204 0 -204 -255v-913q84 -62 190 -62z" />
    <glyph glyph-name="gamma" unicode="&#x3b3;" horiz-adv-x="938" 
d="M878 1024l-330 -918v-475h-156v475l-330 918h160l246 -729h4l246 729h160z" />
    <glyph glyph-name="delta" unicode="&#x3b4;" horiz-adv-x="950" 
d="M727 932q141 -135 141 -434q0 -267 -109 -398q-100 -120 -284 -120q-210 0 -310 155q-83 131 -83 363q0 417 260 506v4q-101 85 -101 213q0 104 80 161q72 52 197 52h174v-127h-166q-133 0 -133 -88q0 -49 32 -83.5t129 -86.5q119 -65 173 -117zM475 107q137 0 192 115
q45 92 45 276q0 399 -237 399t-237 -399q0 -210 60 -303q56 -88 177 -88z" />
    <glyph glyph-name="epsilon" unicode="&#x3b5;" horiz-adv-x="889" 
d="M755 156l52 -121q-142 -55 -320 -55q-405 0 -405 301q0 194 192 258v4q-147 54 -147 219q0 120 84 198q92 84 262 84q123 0 258 -45l-33 -120q-133 38 -225 38q-110 0 -164 -50q-43 -41 -43 -105q0 -82 72 -127q64 -41 168 -41h104v-127h-104q-144 0 -217 -53
q-66 -47 -66 -133q0 -174 264 -174q128 0 268 49z" />
    <glyph glyph-name="zeta" unicode="&#x3b6;" horiz-adv-x="786" 
d="M82 508q0 293 163 518q103 142 290 277v4h-392v127h644v-98q-330 -233 -445 -420q-104 -169 -104 -408q0 -190 61 -278q48 -71 156 -103q268 -79 268 -254q0 -124 -217 -270l-86 100q69 43 112 90t43 80q0 37 -42 66.5t-140 60.5q-311 99 -311 508z" />
    <glyph glyph-name="eta" unicode="&#x3b7;" horiz-adv-x="975" 
d="M234 1024l24 -106h5q34 56 112.5 91t171.5 35q305 0 305 -360v-1053h-156v1053q0 124 -32 173q-39 60 -140 60q-77 0 -145.5 -47.5t-99.5 -124.5v-745h-156v1024h111z" />
    <glyph glyph-name="theta" unicode="&#x3b8;" horiz-adv-x="1098" 
d="M549 1463q260 0 374 -224q93 -183 93 -522q0 -746 -467 -746t-467 746t467 746zM549 98q305 0 311 590h-622q6 -590 311 -590zM549 1336q-287 0 -309 -521h618q-25 521 -309 521z" />
    <glyph glyph-name="iota" unicode="&#x3b9;" horiz-adv-x="401" 
d="M279 1024v-1024h-156v1024h156z" />
    <glyph glyph-name="kappa" unicode="&#x3ba;" horiz-adv-x="889" 
d="M279 1024v-498h4l352 498h172l-278 -381l319 -643h-168l-243 500h-4l-154 -191v-309h-156v1024h156z" />
    <glyph glyph-name="lambda" unicode="&#x3bb;" horiz-adv-x="938" 
d="M415 1434l461 -1434h-160l-245 815h-4l-246 -815h-160l330 1024l-127 410h151z" />
    <glyph glyph-name="nu" unicode="&#x3bd;" horiz-adv-x="938" 
d="M876 1024l-330 -1024h-155l-330 1024h160l246 -815h4l245 815h160z" />
    <glyph glyph-name="xi" unicode="&#x3be;" horiz-adv-x="788" 
d="M82 426q0 121 70 238q65 110 153 139v4q-82 41 -118 103t-36 161q0 72 51.5 142t123.5 94h-183v127h646v-127h-174q-163 0 -249 -87q-63 -64 -63 -149q0 -95 68 -152q66 -55 184 -55h105v-135h-105q-172 0 -257 -113q-60 -80 -60 -190q0 -119 52 -191t165 -108
q144 -47 207 -109q61 -59 61 -145q0 -124 -217 -270l-86 100q69 42 112 89.5t43 80.5q0 37 -42 66.5t-140 60.5q-311 99 -311 426z" />
    <glyph glyph-name="omicron" unicode="&#x3bf;" horiz-adv-x="950" 
d="M475 -20q-209 0 -310 161q-83 134 -83 367q0 273 111 411q100 125 282 125q207 0 308 -162q85 -136 85 -374q0 -268 -109 -404q-101 -124 -284 -124zM475 107q136 0 192 120q45 96 45 281q0 409 -237 409t-237 -409q0 -212 60 -308q57 -93 177 -93z" />
    <glyph glyph-name="pi" unicode="&#x3c0;" horiz-adv-x="1098" 
d="M1057 897h-164v-897h-156v897h-376v-897h-156v897h-164v127h1016v-127z" />
    <glyph glyph-name="rho" unicode="&#x3c1;" horiz-adv-x="975" 
d="M123 -369v885q0 258 111 397q104 131 291 131q368 0 368 -528q0 -262 -93 -399q-93 -138 -275 -138q-167 0 -242 127h-4v-475h-156zM279 594v-172q0 -143 72 -235q64 -81 153 -81q135 0 189 117q44 95 44 284q0 218 -58 312q-56 90 -175 90q-103 0 -169 -103
q-56 -89 -56 -212z" />
    <glyph glyph-name="uni03C2" unicode="&#x3c2;" horiz-adv-x="831" 
d="M455 127q268 -79 268 -254q0 -124 -217 -270l-86 100q69 42 112.5 89.5t43.5 80.5q0 37 -42 66.5t-140 60.5q-312 99 -312 508q0 273 111 411q101 125 282 125q169 0 275 -129l-101 -96q-75 98 -174 98q-237 0 -237 -409q0 -193 61 -280q48 -69 156 -101z" />
    <glyph glyph-name="sigma" unicode="&#x3c3;" horiz-adv-x="950" 
d="M475 -20q-209 0 -309 161q-84 134 -84 367q0 273 111 411q101 125 282 125q52 0 145 -12q65 -8 89 -8h217v-127h-154q97 -140 97 -389q0 -268 -110 -404q-100 -124 -284 -124zM475 107q137 0 193 120q45 96 45 281q0 409 -238 409q-237 0 -237 -409q0 -212 60 -308
q57 -93 177 -93z" />
    <glyph glyph-name="tau" unicode="&#x3c4;" horiz-adv-x="729" 
d="M41 1024h647v-127h-245v-897h-156v897h-246v127z" />
    <glyph glyph-name="upsilon" unicode="&#x3c5;" horiz-adv-x="1008" 
d="M279 1024v-537q0 -210 51 -294q52 -86 174 -86q136 0 186 111q39 86 39 269v537h156v-535q0 -276 -99 -397q-92 -112 -282 -112q-217 0 -307 145q-74 121 -74 362v537h156z" />
    <glyph glyph-name="phi" unicode="&#x3c6;" horiz-adv-x="1032" 
d="M237 922l105 -103q-104 -166 -104 -311q0 -165 63 -272q52 -90 137 -117v925h78q213 0 331 -162q103 -142 103 -374t-110 -375q-94 -122 -246 -148v-354h-156v354q-175 30 -271 184q-85 136 -85 339q0 224 155 414zM794 508q0 158 -64 270q-53 95 -136 125v-787
q98 34 151 146q49 101 49 246z" />
    <glyph glyph-name="chi" unicode="&#x3c7;" horiz-adv-x="942" 
d="M839 1024l-282 -682l323 -711h-160l-241 553h-4l-254 -553h-160l328 705l-287 688h160l209 -537h4l204 537h160z" />
    <glyph glyph-name="psi" unicode="&#x3c8;" horiz-adv-x="1167" 
d="M930 567v457h156v-457q0 -517 -426 -555v-381h-156v381q-422 36 -422 555v457h156v-457q0 -210 69 -308q62 -88 197 -114v879h156v-879q157 27 218 141q52 95 52 281z" />
    <glyph glyph-name="omega" unicode="&#x3c9;" horiz-adv-x="1393" 
d="M980 1024h162q75 -93 122.5 -237t47.5 -279q0 -281 -118 -420q-91 -108 -232 -108q-183 0 -265 155h-4q-86 -155 -273 -155q-153 0 -246 142q-92 141 -92 386q0 162 54 313q47 128 116 203h162q-79 -88 -127.5 -229.5t-48.5 -286.5q0 -401 207 -401q79 0 128 71
q44 63 44 156v389h156v-389q0 -110 57 -173q49 -54 121 -54q205 0 205 401q0 148 -54 297q-47 131 -122 219z" />
    <glyph glyph-name="iotadieresis" unicode="&#x3ca;" horiz-adv-x="401" 
d="M279 1024v-1024h-156v1024h156zM125 1372v-176h-156v176h156zM432 1372v-176h-156v176h156z" />
    <glyph glyph-name="upsilondieresis" unicode="&#x3cb;" horiz-adv-x="975" 
d="M429 1372v-176h-156v176h156zM735 1372v-176h-156v176h156zM279 1024v-537q0 -210 51 -294q52 -86 174 -86q136 0 186 111q39 86 39 269v537h156v-535q0 -276 -99 -397q-92 -112 -282 -112q-217 0 -307 145q-74 121 -74 362v537h156z" />
    <glyph glyph-name="omicrontonos" unicode="&#x3cc;" horiz-adv-x="950" 
d="M475 -20q-209 0 -310 161q-83 134 -83 367q0 273 111 411q100 125 282 125q207 0 308 -162q85 -136 85 -374q0 -268 -109 -404q-101 -124 -284 -124zM475 107q136 0 192 120q45 96 45 281q0 409 -237 409t-237 -409q0 -212 60 -308q57 -93 177 -93zM518 1537l137 -49
l-156 -370l-100 37z" />
    <glyph glyph-name="upsilontonos" unicode="&#x3cd;" horiz-adv-x="1008" 
d="M279 1024v-537q0 -210 51 -294q52 -86 174 -86q136 0 186 111q39 86 39 269v537h156v-535q0 -276 -99 -397q-92 -112 -282 -112q-217 0 -307 145q-74 121 -74 362v537h156zM559 1537l137 -49l-156 -370l-100 37z" />
    <glyph glyph-name="omegatonos" unicode="&#x3ce;" horiz-adv-x="1393" 
d="M980 1024h162q75 -93 122.5 -237t47.5 -279q0 -281 -118 -420q-91 -108 -232 -108q-183 0 -265 155h-4q-86 -155 -273 -155q-153 0 -246 142q-92 141 -92 386q0 162 54 313q47 128 116 203h162q-79 -88 -127.5 -229.5t-48.5 -286.5q0 -401 207 -401q79 0 128 71
q44 63 44 156v389h156v-389q0 -110 57 -173q49 -54 121 -54q205 0 205 401q0 148 -54 297q-47 131 -122 219zM738 1537l137 -49l-156 -370l-100 37z" />
    <glyph glyph-name="uni0400" unicode="&#x400;" horiz-adv-x="942" 
d="M123 1434h717v-135h-553v-480h430v-135h-430v-549h573v-135h-737v1434zM252 1733h217l123 -197h-135z" />
    <glyph glyph-name="afii10023" unicode="&#x401;" horiz-adv-x="942" 
d="M123 1434h717v-135h-553v-480h430v-135h-430v-549h573v-135h-737v1434zM406 1733v-176h-156v176h156zM713 1733v-176h-156v176h156z" />
    <glyph glyph-name="uni0402" unicode="&#x402;" horiz-adv-x="1327" 
d="M1286 487q0 -592 -416 -884l-92 118q344 247 344 767q0 217 -64 307q-61 86 -194 86q-150 0 -234 -119q-77 -108 -77 -285v-477h-164v1299h-348v135h860v-135h-348v-468h4q42 91 136 143q89 50 202 50q391 0 391 -537z" />
    <glyph glyph-name="uni0403" unicode="&#x403;" horiz-adv-x="840" 
d="M287 1299v-1299h-164v1434h676v-135h-512zM498 1733h217l-205 -197h-135z" />
    <glyph glyph-name="uni0404" unicode="&#x404;" horiz-adv-x="1106" 
d="M873 399l151 -37q-52 -217 -165 -308q-104 -83 -288 -83q-274 0 -389 207q-100 178 -100 539q0 401 131 582q120 164 358 164q195 0 301 -101q85 -81 136 -250l-150 -37q-42 137 -114 197q-67 56 -172 56q-299 0 -324 -509h469v-135h-471q3 -318 92 -456
q78 -122 234 -122q127 0 202 82q66 71 99 211z" />
    <glyph glyph-name="uni0405" unicode="&#x405;" horiz-adv-x="1004" 
d="M907 1133l-149 -37q-69 232 -277 232q-106 0 -170 -72q-57 -63 -57 -160q0 -126 107 -206q56 -42 203 -104q199 -84 272 -155q106 -104 106 -271q0 -197 -141 -302q-115 -87 -291 -87q-184 0 -308 103q-109 90 -161 250l152 37q40 -121 126 -189q84 -66 193 -66
q124 0 199 78q67 69 67 176q0 113 -103 190q-54 40 -196 104q-203 90 -279 164q-110 109 -110 278q0 182 127 283q108 84 272 84t275 -95q98 -84 143 -235z" />
    <glyph glyph-name="uni0406" unicode="&#x406;" horiz-adv-x="410" 
d="M287 1434v-1434h-164v1434h164z" />
    <glyph glyph-name="uni0407" unicode="&#x407;" horiz-adv-x="410" 
d="M287 1434v-1434h-164v1434h164zM140 1733v-176h-156v176h156zM447 1733v-176h-156v176h156z" />
    <glyph glyph-name="uni0408" unicode="&#x408;" horiz-adv-x="655" 
d="M41 0v135h76q124 0 190 88q62 83 62 230v981h164v-981q0 -254 -124 -363q-101 -90 -292 -90h-76z" />
    <glyph glyph-name="uni0409" unicode="&#x409;" horiz-adv-x="1905" 
d="M1003 1299h-532v-476q0 -390 -91 -592q-81 -180 -251 -251l-88 124q153 69 209.5 230.5t56.5 529.5v570h860v-615h143q259 0 384 -97q128 -100 128 -308q0 -414 -512 -414h-307v1299zM1167 684v-549h127q190 0 271 58q93 65 93 221q0 178 -132 235q-80 35 -255 35h-104z
" />
    <glyph glyph-name="uni040A" unicode="&#x40a;" horiz-adv-x="1761" 
d="M287 684v-684h-164v1434h164v-615h573v615h164v-615h143q259 0 384 -97q128 -100 128 -308q0 -414 -512 -414h-307v684h-573zM1024 684v-549h127q190 0 271 58q93 65 93 221q0 178 -132 235q-80 35 -255 35h-104z" />
    <glyph glyph-name="uni040B" unicode="&#x40b;" horiz-adv-x="1413" 
d="M899 1299h-346v-468h4q43 92 138 144q88 49 200 49q395 0 395 -535v-489h-164v457q0 219 -67 317q-63 94 -195 94q-152 0 -236 -123q-75 -111 -75 -299v-446h-164v1299h-348v135h858v-135z" />
    <glyph glyph-name="uni040C" unicode="&#x40c;" 
d="M287 1434v-750h4l524 750h189l-428 -594l448 -840h-180l-373 694l-184 -258v-436h-164v1434h164zM539 1733h217l-205 -197h-135z" />
    <glyph glyph-name="uni040D" unicode="&#x40d;" horiz-adv-x="1126" 
d="M123 0v1434h147v-1067h4l599 1067h131v-1434h-147v1112h-4l-624 -1112h-106zM348 1733h217l123 -197h-135z" />
    <glyph glyph-name="uni040E" unicode="&#x40e;" 
d="M1024 1434l-401 -1088q-83 -223 -182 -304q-87 -71 -228 -71h-90v135h68q194 0 260 240l-410 1088h172l322 -881h4l313 881h172zM666 1712h112q-17 -103 -91 -154q-61 -43 -150 -43q-102 0 -166 57q-58 51 -76 140h113q35 -95 129 -95t129 95z" />
    <glyph glyph-name="uni040F" unicode="&#x40f;" horiz-adv-x="1147" 
d="M287 1434v-1299h573v1299h164v-1434h-372v-254h-156v254h-373v1434h164z" />
    <glyph glyph-name="afii10017" unicode="&#x410;" 
d="M328 438l-123 -438h-164l416 1434h147l420 -1434h-164l-123 438h-409zM365 573h335l-165 597h-5z" />
    <glyph glyph-name="afii10018" unicode="&#x411;" horiz-adv-x="1044" 
d="M287 1299v-480h164q258 0 384 -97q128 -100 128 -308q0 -414 -512 -414h-328v1434h676v-135h-512zM287 684v-549h147q190 0 272 58q93 65 93 221q0 178 -132 235q-80 35 -255 35h-125z" />
    <glyph glyph-name="afii10019" unicode="&#x412;" horiz-adv-x="1044" 
d="M707 758v-4q128 -25 196 -131q60 -93 60 -230q0 -213 -144 -312q-118 -81 -323 -81h-373v1434h326q473 0 473 -361q0 -263 -215 -315zM287 135h168q190 0 265 55q79 59 79 203q0 170 -106 237q-85 54 -257 54h-149v-549zM287 819h152q177 0 248 58q71 59 71 196
q0 121 -76.5 173.5t-253.5 52.5h-141v-480z" />
    <glyph glyph-name="afii10020" unicode="&#x413;" horiz-adv-x="840" 
d="M287 1299v-1299h-164v1434h676v-135h-512z" />
    <glyph glyph-name="afii10021" unicode="&#x414;" horiz-adv-x="1323" 
d="M20 135h115q131 85 168 293q24 131 24 437v569h860v-1299h115v-389h-156v254h-970v-254h-156v389zM491 824q0 -484 -146 -689h678v1164h-532v-475z" />
    <glyph glyph-name="afii10022" unicode="&#x415;" horiz-adv-x="942" 
d="M123 1434h717v-135h-553v-480h430v-135h-430v-549h573v-135h-737v1434z" />
    <glyph glyph-name="afii10024" unicode="&#x416;" horiz-adv-x="1556" 
d="M860 1434v-615h41l406 615h188l-449 -680l469 -754h-188l-426 684h-41v-684h-164v684h-41l-426 -684h-188l471 754l-451 680h188l406 -615h41v615h164z" />
    <glyph glyph-name="afii10025" unicode="&#x417;" horiz-adv-x="1081" 
d="M735 762v-4q265 -76 265 -365q0 -200 -150 -320q-128 -102 -317 -102q-311 0 -451 289l123 70q62 -119 139 -171.5t189 -52.5q144 0 229 88q74 78 74 199q0 291 -336 291h-35v135h33q297 0 297 275q0 118 -75 180q-65 54 -173 54q-93 0 -157.5 -37.5t-133.5 -131.5
l-113 82q162 222 404 222q190 0 309 -119q103 -103 103 -250q0 -247 -224 -332z" />
    <glyph glyph-name="afii10026" unicode="&#x418;" horiz-adv-x="1126" 
d="M123 0v1434h147v-1067h4l599 1067h131v-1434h-147v1112h-4l-624 -1112h-106z" />
    <glyph glyph-name="afii10027" unicode="&#x419;" horiz-adv-x="1126" 
d="M123 0v1434h147v-1067h4l599 1067h131v-1434h-147v1112h-4l-624 -1112h-106zM707 1712h112q-17 -103 -91 -154q-61 -43 -150 -43q-102 0 -166 57q-58 51 -76 140h113q35 -95 129 -95t129 95z" />
    <glyph glyph-name="afii10028" unicode="&#x41a;" 
d="M287 1434v-750h4l524 750h189l-428 -594l448 -840h-180l-373 694l-184 -258v-436h-164v1434h164z" />
    <glyph glyph-name="afii10029" unicode="&#x41b;" horiz-adv-x="1290" 
d="M307 865v569h860v-1434h-164v1299h-532v-475q0 -391 -91 -593q-81 -180 -251 -251l-88 124q153 69 209.5 231t56.5 530z" />
    <glyph glyph-name="afii10030" unicode="&#x41c;" horiz-adv-x="1352" 
d="M1229 1434v-1434h-147v1155h-4l-330 -1155h-133l-341 1155h-4v-1155h-147v1434h219l336 -1145h4l332 1145h215z" />
    <glyph glyph-name="afii10031" unicode="&#x41d;" horiz-adv-x="1147" 
d="M287 684v-684h-164v1434h164v-615h573v615h164v-1434h-164v684h-573z" />
    <glyph glyph-name="afii10032" unicode="&#x41e;" horiz-adv-x="1147" 
d="M82 717q0 401 131 582q120 164 358 164q275 0 394 -214q100 -181 100 -532q0 -412 -132 -588q-118 -158 -362 -158q-274 0 -389 207q-100 178 -100 539zM246 717q0 -337 88 -482q78 -129 237 -129q184 0 262 169q68 147 68 442q0 325 -89 475q-81 136 -241 136
q-179 0 -258 -177q-67 -149 -67 -434z" />
    <glyph glyph-name="afii10033" unicode="&#x41f;" horiz-adv-x="1147" 
d="M287 1299v-1299h-164v1434h901v-1434h-164v1299h-573z" />
    <glyph glyph-name="afii10034" unicode="&#x420;" horiz-adv-x="1044" 
d="M123 1434h350q490 0 490 -422q0 -414 -473 -414h-203v-598h-164v1434zM287 733h190q182 0 254 69q68 65 68 210q0 155 -79.5 221t-266.5 66h-166v-566z" />
    <glyph glyph-name="afii10035" unicode="&#x421;" horiz-adv-x="1106" 
d="M873 399l151 -36q-52 -218 -165 -309q-104 -83 -288 -83q-274 0 -389 207q-100 178 -100 539q0 401 131 582q120 164 358 164q195 0 300 -101q86 -81 137 -250l-150 -37q-42 138 -114 197q-67 56 -172 56q-180 0 -259 -177q-67 -149 -67 -434q0 -337 88 -482
q78 -129 238 -129q127 0 202 82q65 71 99 211z" />
    <glyph glyph-name="afii10036" unicode="&#x422;" horiz-adv-x="942" 
d="M41 1434h860v-135h-348v-1299h-164v1299h-348v135z" />
    <glyph glyph-name="afii10037" unicode="&#x423;" 
d="M1024 1434l-401 -1088q-83 -223 -182 -304q-87 -71 -228 -71h-90v135h68q194 0 260 240l-410 1088h172l322 -881h4l313 881h172z" />
    <glyph glyph-name="afii10038" unicode="&#x424;" horiz-adv-x="1409" 
d="M787 1434v-227q284 -17 446 -173q136 -132 136 -319q0 -222 -175 -356q-155 -119 -407 -134v-225h-164v225q-282 17 -441 164q-141 130 -141 326q0 214 183 355q160 124 399 137v227h164zM1205 715q0 175 -111 260q-100 78 -307 96v-708q234 16 334 115q84 83 84 237z
M205 715q0 -326 418 -352v708q-231 -21 -331 -119q-87 -85 -87 -237z" />
    <glyph glyph-name="afii10039" unicode="&#x425;" 
d="M983 1434l-364 -682l405 -752h-176l-307 586h-4l-320 -586h-176l410 746l-369 688h176l275 -529h4l270 529h176z" />
    <glyph glyph-name="afii10040" unicode="&#x426;" horiz-adv-x="1159" 
d="M287 1434v-1299h573v1299h164v-1299h115v-389h-156v254h-860v1434h164z" />
    <glyph glyph-name="afii10041" unicode="&#x427;" horiz-adv-x="1106" 
d="M983 0h-164v602h-4q-61 -92 -139.5 -132t-198.5 -40q-395 0 -395 535v469h164v-436q0 -218 67 -314q63 -90 195 -90q153 0 236 119q75 108 75 295v426h164v-1434z" />
    <glyph glyph-name="afii10042" unicode="&#x428;" horiz-adv-x="1597" 
d="M881 1434v-1299h430v1299h164v-1434h-1352v1434h164v-1299h430v1299h164z" />
    <glyph glyph-name="afii10043" unicode="&#x429;" horiz-adv-x="1610" 
d="M881 1434v-1299h430v1299h164v-1299h114v-389h-156v254h-1310v1434h164v-1299h430v1299h164z" />
    <glyph glyph-name="afii10044" unicode="&#x42a;" horiz-adv-x="1372" 
d="M471 0v1299h-430v135h594v-615h143q259 0 384 -97q128 -100 128 -308q0 -414 -512 -414h-307zM635 684v-549h127q190 0 271 58q93 65 93 221q0 178 -132 235q-80 35 -254 35h-105z" />
    <glyph glyph-name="afii10045" unicode="&#x42b;" horiz-adv-x="1393" 
d="M123 0v1434h164v-615h143q259 0 384 -97q128 -100 128 -308q0 -414 -512 -414h-307zM287 684v-549h127q190 0 271 58q93 65 93 221q0 178 -132 235q-80 35 -255 35h-104zM1311 1434v-1434h-164v1434h164z" />
    <glyph glyph-name="afii10046" unicode="&#x42c;" horiz-adv-x="1024" 
d="M123 0v1434h164v-615h143q259 0 384 -97q128 -100 128 -308q0 -414 -512 -414h-307zM287 684v-549h127q190 0 271 58q93 65 93 221q0 178 -132 235q-80 35 -255 35h-104z" />
    <glyph glyph-name="afii10047" unicode="&#x42d;" horiz-adv-x="1106" 
d="M82 362l151 37q38 -159 119 -230q71 -63 182 -63q178 0 256 160q67 139 70 418h-471v135h469q-25 509 -324 509q-119 0 -190 -73q-59 -60 -96 -180l-150 37q58 193 164 274q101 77 272 77q272 0 390 -214q100 -182 100 -532q0 -412 -131 -588q-118 -158 -359 -158
q-207 0 -316 109q-90 91 -136 282z" />
    <glyph glyph-name="afii10048" unicode="&#x42e;" horiz-adv-x="1597" 
d="M287 1434v-615h248q15 345 146 502q119 142 341 142q275 0 394 -214q100 -181 100 -532q0 -412 -132 -588q-118 -158 -362 -158q-269 0 -385 198q-100 170 -104 515h-246v-684h-164v1434h164zM697 717q0 -337 88 -482q78 -129 237 -129q184 0 262 169q68 147 68 442
q0 325 -89 475q-81 136 -241 136q-179 0 -258 -177q-67 -149 -67 -434z" />
    <glyph glyph-name="afii10049" unicode="&#x42f;" 
d="M592 1434h351v-1434h-164v598h-211l-332 -598h-174l342 614q-301 69 -301 398q0 422 489 422zM588 733h191v566h-166q-186 0 -264 -64q-82 -67 -82 -223q0 -164 89 -227q73 -52 232 -52z" />
    <glyph glyph-name="afii10065" unicode="&#x430;" horiz-adv-x="967" 
d="M844 0h-111l-24 106h-5q-96 -126 -290 -126q-161 0 -253 90q-79 78 -79 201q0 109 80 186t252 135l274 92v18q0 116 -49 165.5t-162 49.5q-87 0 -144.5 -43.5t-76.5 -123.5l-142 28q60 266 363 266q203 0 289 -95q78 -86 78 -265v-684zM688 344v213l-274 -98
q-176 -65 -176 -188q0 -75 47.5 -119.5t128.5 -44.5q129 0 206 72q68 64 68 165z" />
    <glyph glyph-name="afii10066" unicode="&#x431;" horiz-adv-x="950" 
d="M475 -20q-393 0 -393 508q0 455 104 656q96 183 293 183q111 0 159 21t87 86l127 -57q-96 -175 -342 -175q-101 0 -157.5 -65t-75.5 -203h4q83 70 194 70q393 0 393 -516q0 -508 -393 -508zM475 107q137 0 192 109q45 89 45 272q0 204 -60 298q-58 91 -177 91
q-135 0 -192 -118q-45 -94 -45 -271q0 -209 60 -297q56 -84 177 -84z" />
    <glyph glyph-name="afii10067" unicode="&#x432;" horiz-adv-x="922" 
d="M791 758q0 -153 -111 -213v-4q75 -33 117.5 -100t42.5 -150q0 -157 -106 -231q-86 -60 -236 -60h-375v1024h322q346 0 346 -266zM279 127h188q119 0 168 38t49 126q0 107 -66 148q-54 34 -163 34h-176v-346zM279 600h156q110 0 157 38q45 37 45 120q0 82 -63 114
q-48 25 -143 25h-152v-297z" />
    <glyph glyph-name="afii10068" unicode="&#x433;" horiz-adv-x="696" 
d="M123 1024h532v-127h-376v-897h-156v1024z" />
    <glyph glyph-name="afii10069" unicode="&#x434;" horiz-adv-x="1049" 
d="M921 135h107v-368h-147v233h-714v-233h-147v368h67q138 111 138 459v430h696v-889zM381 897v-328q0 -269 -105 -434h489v762h-384z" />
    <glyph glyph-name="afii10070" unicode="&#x435;" horiz-adv-x="971" 
d="M496 107q184 0 239 188l140 -25q-42 -159 -138 -227q-88 -63 -241 -63q-222 0 -327 161q-87 133 -87 367q0 272 117 411q106 125 297 125q207 0 307 -168q86 -146 86 -409h-651q8 -191 73 -277q63 -83 185 -83zM242 594h487q-11 153 -70 237q-60 86 -163 86
q-231 0 -254 -323z" />
    <glyph glyph-name="afii10072" unicode="&#x436;" horiz-adv-x="1278" 
d="M717 1024v-410h20l289 410h176l-335 -475l366 -549h-176l-320 479h-20v-479h-156v479h-21l-319 -479h-176l369 549l-343 475h177l292 -410h21v410h156z" />
    <glyph glyph-name="afii10073" unicode="&#x437;" horiz-adv-x="848" 
d="M610 293q0 186 -215 186h-41v125h39q188 0 188 172q0 66 -41 103.5t-114 37.5q-66 0 -108 -27t-83 -95l-112 79q70 96 136 132q68 38 167 38q139 0 231 -87q80 -76 80 -181q0 -148 -143 -225v-4q172 -66 172 -254q0 -149 -101 -235q-92 -78 -239 -78q-246 0 -344 225
l118 69q49 -93 99 -130t127 -37q88 0 136 48.5t48 137.5z" />
    <glyph glyph-name="afii10074" unicode="&#x438;" horiz-adv-x="963" 
d="M688 0v733h-4l-425 -733h-136v1024h152v-733h4l425 733h136v-1024h-152z" />
    <glyph glyph-name="afii10075" unicode="&#x439;" horiz-adv-x="963" 
d="M688 0v733h-4l-425 -733h-136v1024h152v-733h4l425 733h136v-1024h-152zM617 1352h112q-17 -103 -91 -154q-61 -43 -150 -43q-102 0 -166 57q-58 51 -76 140h113q35 -95 129 -95t129 95z" />
    <glyph glyph-name="afii10076" unicode="&#x43a;" horiz-adv-x="901" 
d="M279 1024v-514h4l361 514h176l-279 -381l320 -643h-172l-246 504h-4l-160 -219v-285h-156v1024h156z" />
    <glyph glyph-name="afii10077" unicode="&#x43b;" horiz-adv-x="1085" 
d="M402 897v-328q0 -240 -86 -401q-76 -141 -201 -188l-74 114q107 44 156 163.5t49 336.5v430h717v-1024h-156v897h-405z" />
    <glyph glyph-name="afii10078" unicode="&#x43c;" horiz-adv-x="1126" 
d="M1004 1024v-1024h-152v707h-4l-235 -707h-97l-237 705h-4v-705h-152v1024h183l255 -756h5l253 756h185z" />
    <glyph glyph-name="afii10079" unicode="&#x43d;" horiz-adv-x="983" 
d="M279 487v-487h-156v1024h156v-410h425v410h156v-1024h-156v487h-425z" />
    <glyph glyph-name="afii10080" unicode="&#x43e;" horiz-adv-x="950" 
d="M475 -20q-209 0 -310 161q-83 134 -83 367q0 273 111 411q100 125 282 125q207 0 308 -162q85 -136 85 -374q0 -268 -109 -404q-101 -124 -284 -124zM475 107q136 0 192 120q45 96 45 281q0 409 -237 409t-237 -409q0 -212 60 -308q57 -93 177 -93z" />
    <glyph glyph-name="afii10081" unicode="&#x43f;" horiz-adv-x="983" 
d="M279 897v-897h-156v1024h737v-1024h-156v897h-425z" />
    <glyph glyph-name="afii10082" unicode="&#x440;" horiz-adv-x="975" 
d="M234 1024l24 -106h5q35 58 105 92t157 34q368 0 368 -528q0 -262 -93 -399q-93 -138 -275 -138q-167 0 -242 127h-4v-475h-156v1393h111zM279 745v-323q0 -143 72 -235q64 -81 153 -81q135 0 189 117q44 94 44 284q0 219 -58 316q-56 94 -175 94q-72 0 -133.5 -47
t-91.5 -125z" />
    <glyph glyph-name="afii10083" unicode="&#x441;" horiz-adv-x="885" 
d="M684 295l139 -25q-42 -160 -127 -227q-81 -63 -221 -63q-209 0 -310 161q-83 134 -83 367q0 273 111 411q101 125 282 125q156 0 244 -88q70 -70 104 -206l-141 -25q-42 192 -207 192q-237 0 -237 -409q0 -212 60 -308q57 -93 177 -93q83 0 131 43.5t78 144.5z" />
    <glyph glyph-name="afii10084" unicode="&#x442;" horiz-adv-x="778" 
d="M41 1024h696v-127h-270v-897h-156v897h-270v127z" />
    <glyph glyph-name="afii10085" unicode="&#x443;" horiz-adv-x="938" 
d="M876 1024l-330 -1024q-69 -201 -143 -282q-79 -87 -199 -87h-82v127h61q141 0 207 242l-329 1024h159l246 -815h4l246 815h160z" />
    <glyph glyph-name="afii10086" unicode="&#x444;" horiz-adv-x="1548" 
d="M696 946v488h156v-488h4q83 99 242 99q368 0 368 -529q0 -262 -93 -399q-93 -138 -275 -138q-167 0 -242 127h-4v-475h-156v475h-4q-75 -127 -242 -127q-206 0 -298 177q-70 134 -70 360q0 529 368 529q159 0 242 -99h4zM852 745v-323q0 -143 72 -235q64 -81 153 -81
q135 0 189 117q44 95 44 285q0 219 -58 316q-56 94 -175 94q-72 0 -133.5 -47t-91.5 -126zM696 422v323q-30 79 -91.5 126t-133.5 47q-135 0 -189 -122q-44 -97 -44 -288q0 -218 58 -312q56 -90 175 -90q103 0 169 103q56 89 56 213z" />
    <glyph glyph-name="afii10087" unicode="&#x445;" horiz-adv-x="901" 
d="M796 1024l-268 -492l311 -532h-164l-227 397h-4l-219 -397h-164l301 532l-289 492h164l207 -375h4l184 375h164z" />
    <glyph glyph-name="afii10088" unicode="&#x446;" horiz-adv-x="967" 
d="M279 1024v-897h405v897h156v-889h106v-389h-147v254h-676v1024h156z" />
    <glyph glyph-name="afii10089" unicode="&#x447;" horiz-adv-x="860" 
d="M737 0h-156v422h-4q-28 -37 -81.5 -59.5t-110.5 -22.5q-160 0 -239 108q-64 88 -64 232v344h156v-332q0 -112 40 -163.5t127 -51.5q176 0 176 221v326h156v-1024z" />
    <glyph glyph-name="afii10090" unicode="&#x448;" horiz-adv-x="1360" 
d="M758 1024v-897h323v897h156v-1024h-1114v1024h156v-897h323v897h156z" />
    <glyph glyph-name="afii10091" unicode="&#x449;" horiz-adv-x="1364" 
d="M758 1024v-897h323v897h156v-889h107v-389h-147v254h-1074v1024h156v-897h323v897h156z" />
    <glyph glyph-name="afii10092" unicode="&#x44a;" horiz-adv-x="1114" 
d="M41 1024h492v-410h51q230 0 333 -64q116 -74 116 -245q0 -167 -97 -236t-331 -69h-228v897h-336v127zM533 487v-360h82q150 0 203 35q59 39 59 143q0 100 -64 141t-218 41h-62z" />
    <glyph glyph-name="afii10093" unicode="&#x44b;" horiz-adv-x="1262" 
d="M1139 1024v-1024h-156v1024h156zM123 0v1024h156v-410h51q230 0 333 -64q116 -74 116 -245q0 -167 -97 -236t-331 -69h-228zM279 487v-360h82q150 0 203 35q59 39 59 143q0 100 -64 141t-219 41h-61z" />
    <glyph glyph-name="afii10094" unicode="&#x44c;" horiz-adv-x="860" 
d="M123 0v1024h156v-410h51q230 0 333 -64q116 -74 116 -245q0 -167 -97 -236t-331 -69h-228zM279 487v-360h82q150 0 203 35q59 39 59 143q0 100 -64 141t-219 41h-61z" />
    <glyph glyph-name="afii10095" unicode="&#x44d;" horiz-adv-x="885" 
d="M644 440h-313v127h315q-17 350 -237 350q-165 0 -207 -192l-141 24q39 156 127 227q84 68 221 68q207 0 308 -162q85 -137 85 -374q0 -268 -109 -404q-101 -124 -284 -124q-159 0 -242 82q-69 68 -106 208l139 25q30 -101 78 -144.5t131 -43.5q124 0 182 99q46 80 53 234
z" />
    <glyph glyph-name="afii10096" unicode="&#x44e;" horiz-adv-x="1360" 
d="M885 -20q-194 0 -295 138q-84 115 -96 318h-215v-436h-156v1024h156v-461h213q12 246 122 369q99 112 271 112q207 0 308 -162q85 -137 85 -374q0 -268 -109 -404q-101 -124 -284 -124zM885 107q136 0 192 120q45 96 45 281q0 409 -237 409t-237 -409q0 -212 60 -308
q57 -93 177 -93z" />
    <glyph glyph-name="afii10097" unicode="&#x44f;" horiz-adv-x="868" 
d="M444 1024h302v-1024h-156v412h-156l-219 -412h-174l238 430q-201 62 -201 287q0 307 366 307zM436 539h154v358h-131q-119 0 -172 -41q-55 -43 -55 -139q0 -93 48.5 -135.5t155.5 -42.5z" />
    <glyph glyph-name="uni0450" unicode="&#x450;" horiz-adv-x="971" 
d="M496 107q184 0 239 188l140 -25q-42 -159 -138 -227q-88 -63 -241 -63q-222 0 -327 161q-87 133 -87 367q0 272 117 411q106 125 297 125q207 0 307 -168q86 -146 86 -409h-651q8 -191 73 -277q63 -83 185 -83zM242 594h487q-11 153 -70 237q-60 86 -163 86
q-231 0 -254 -323zM266 1372h217l123 -196h-135z" />
    <glyph glyph-name="afii10071" unicode="&#x451;" horiz-adv-x="971" 
d="M496 107q184 0 239 188l140 -25q-42 -159 -138 -227q-88 -63 -241 -63q-222 0 -327 161q-87 133 -87 367q0 272 117 411q106 125 297 125q207 0 307 -168q86 -146 86 -409h-651q8 -191 73 -277q63 -83 185 -83zM242 594h487q-11 153 -70 237q-60 86 -163 86
q-231 0 -254 -323zM420 1372v-176h-156v176h156zM727 1372v-176h-156v176h156z" />
    <glyph glyph-name="uni0452" unicode="&#x452;" horiz-adv-x="975" 
d="M696 508v115q0 134 -32 195q-40 79 -140 79q-77 0 -145.5 -48t-99.5 -124v-725h-156v1147h-123v123h123v164h156v-164h233v-123h-233v-250h4q36 60 106 93.5t158 33.5q171 0 248 -137q57 -101 57 -264v-115q0 -319 -96 -529q-84 -184 -279 -376l-92 106q179 178 248 368
q63 174 63 431z" />
    <glyph glyph-name="uni0453" unicode="&#x453;" horiz-adv-x="696" 
d="M123 1024h532v-127h-376v-897h-156v1024zM410 1372h217l-205 -196h-135z" />
    <glyph glyph-name="uni0454" unicode="&#x454;" horiz-adv-x="885" 
d="M553 440h-313q8 -176 68 -256q58 -77 167 -77q83 0 131 43.5t78 144.5l139 -25q-42 -160 -127 -227q-81 -63 -221 -63q-209 0 -310 161q-83 133 -83 367q0 273 111 411q101 125 282 125q156 0 244 -88q70 -71 104 -207l-141 -24q-42 192 -207 192q-220 0 -237 -350h315
v-127z" />
    <glyph glyph-name="uni0455" unicode="&#x455;" horiz-adv-x="815" 
d="M737 854l-114 -88q-91 143 -219 143q-81 0 -127 -43q-41 -38 -41 -98q0 -50 40.5 -83t160.5 -82q163 -66 225 -123q92 -84 92 -211q0 -143 -105 -222q-88 -67 -225 -67q-126 0 -232 63q-94 56 -151 150l115 86q108 -164 268 -164q87 0 135 47q41 41 41 106q0 60 -44.5 99
t-175.5 95q-154 66 -212 117q-84 76 -84 189q0 132 102 209q88 67 217 67q104 0 181.5 -44t152.5 -146z" />
    <glyph glyph-name="uni0456" unicode="&#x456;" horiz-adv-x="401" 
d="M279 1024v-1024h-156v1024h156zM279 1372v-176h-156v176h156z" />
    <glyph glyph-name="uni0457" unicode="&#x457;" horiz-adv-x="401" 
d="M279 1024v-1024h-156v1024h156zM136 1372v-176h-156v176h156zM443 1372v-176h-156v176h156z" />
    <glyph glyph-name="uni0458" unicode="&#x458;" horiz-adv-x="442" 
d="M319 1024v-1118q0 -149 -61 -213q-58 -62 -185 -62h-53v127h53q49 0 69.5 42.5t20.5 144.5v1079h156zM319 1372v-176h-156v176h156z" />
    <glyph glyph-name="uni0459" unicode="&#x459;" horiz-adv-x="1524" 
d="M787 897h-405v-328q0 -240 -86 -401q-76 -141 -201 -188l-74 114q107 44 156 163.5t49 336.5v430h717v-410h51q230 0 333 -64q116 -74 116 -245q0 -167 -97 -236t-332 -69h-227v897zM943 487v-360h82q150 0 203 35q59 39 59 143q0 100 -64 141t-219 41h-61z" />
    <glyph glyph-name="uni045A" unicode="&#x45a;" horiz-adv-x="1442" 
d="M279 487v-487h-156v1024h156v-410h426v410h156v-410h51q230 0 333 -65q116 -73 116 -244q0 -167 -97 -236t-331 -69h-228v487h-426zM861 487v-360h82q150 0 203 35q59 39 59 143q0 99 -64 140.5t-219 41.5h-61z" />
    <glyph glyph-name="uni045B" unicode="&#x45b;" horiz-adv-x="975" 
d="M279 1434v-164h233v-123h-233v-250h4q36 60 106 93.5t158 33.5q305 0 305 -360v-664h-156v664q0 124 -32 173q-39 60 -140 60q-77 0 -145.5 -48t-99.5 -124v-725h-156v1147h-123v123h123v164h156z" />
    <glyph glyph-name="uni045C" unicode="&#x45c;" horiz-adv-x="901" 
d="M279 1024v-514h4l361 514h176l-279 -381l320 -643h-172l-246 504h-4l-160 -219v-285h-156v1024h156zM463 1372h217l-205 -196h-135z" />
    <glyph glyph-name="uni045D" unicode="&#x45d;" horiz-adv-x="963" 
d="M688 0v733h-4l-425 -733h-136v1024h152v-733h4l425 733h136v-1024h-152zM273 1372h217l123 -196h-135z" />
    <glyph glyph-name="uni045E" unicode="&#x45e;" horiz-adv-x="938" 
d="M876 1024l-330 -1024q-69 -201 -143 -282q-79 -87 -199 -87h-82v127h61q141 0 207 242l-329 1024h159l246 -815h4l246 815h160zM598 1352h112q-17 -103 -91 -154q-61 -43 -150 -43q-102 0 -166 57q-58 51 -76 140h113q35 -95 129 -95t129 95z" />
    <glyph glyph-name="uni045F" unicode="&#x45f;" horiz-adv-x="983" 
d="M279 1024v-897h425v897h156v-1024h-295v-254h-147v254h-295v1024h156z" />
    <glyph glyph-name="afii10050" unicode="&#x490;" horiz-adv-x="881" 
d="M287 1299v-1299h-164v1434h561v233h156v-368h-553z" />
    <glyph glyph-name="afii10098" unicode="&#x491;" horiz-adv-x="737" 
d="M549 1266h147v-369h-417v-897h-156v1024h426v242z" />
    <glyph glyph-name="uni0492" unicode="&#x492;" horiz-adv-x="1004" 
d="M41 643v135h205v656h717v-135h-553v-521h245v-135h-245v-643h-164v643h-205z" />
    <glyph glyph-name="uni0493" unicode="&#x493;" horiz-adv-x="758" 
d="M545 446h-184v-446h-156v446h-164v127h164v451h512v-127h-356v-324h184v-127z" />
    <glyph glyph-name="uni0496" unicode="&#x496;" horiz-adv-x="1556" 
d="M1432 135h84v-389h-156v254h-33l-426 684h-41v-684h-164v684h-41l-426 -684h-188l471 754l-451 680h188l406 -615h41v615h164v-615h41l406 615h188l-449 -680z" />
    <glyph glyph-name="uni0497" unicode="&#x497;" horiz-adv-x="1270" 
d="M1139 135h90v-389h-147v254h-29l-320 479h-20v-479h-156v479h-21l-319 -479h-176l369 549l-343 475h177l292 -410h21v410h156v-410h20l290 410h175l-335 -475z" />
    <glyph glyph-name="uni049A" unicode="&#x49a;" 
d="M287 1434v-750h4l524 750h189l-429 -594l375 -705h74v-389h-156v254h-25l-372 694l-184 -258v-436h-164v1434h164z" />
    <glyph glyph-name="uni049B" unicode="&#x49b;" horiz-adv-x="901" 
d="M279 1024v-514h4l360 514h176l-278 -381l252 -508h67v-389h-147v254h-25l-245 504h-4l-160 -219v-285h-156v1024h156z" />
    <glyph glyph-name="uni04A2" unicode="&#x4a2;" horiz-adv-x="1159" 
d="M287 684v-684h-164v1434h164v-615h573v615h164v-1299h115v-389h-156v254h-123v684h-573z" />
    <glyph glyph-name="uni04A3" unicode="&#x4a3;" horiz-adv-x="987" 
d="M279 487v-487h-156v1024h156v-410h425v410h156v-889h107v-389h-147v254h-116v487h-425z" />
    <glyph glyph-name="uni04AE" unicode="&#x4ae;" 
d="M1024 1434l-407 -828v-606h-164v606l-412 828h172l322 -676h4l313 676h172z" />
    <glyph glyph-name="uni04AF" unicode="&#x4af;" horiz-adv-x="975" 
d="M934 1024l-366 -889v-504h-156v504l-371 889h168l281 -717h4l272 717h168z" />
    <glyph glyph-name="uni04B0" unicode="&#x4b0;" 
d="M125 471v135h328l-412 828h172l322 -676h4l313 676h172l-407 -828h327v-135h-327v-471h-164v471h-328z" />
    <glyph glyph-name="uni04B1" unicode="&#x4b1;" horiz-adv-x="975" 
d="M125 0v127h287v8l-371 889h168l281 -717h4l272 717h168l-366 -889v-8h286v-127h-286v-369h-156v369h-287z" />
    <glyph glyph-name="uni04B2" unicode="&#x4b2;" 
d="M983 1434l-365 -682l332 -617h74v-389h-156v254h-20l-308 586h-4l-319 -586h-176l409 746l-368 688h176l274 -529h4l271 529h176z" />
    <glyph glyph-name="uni04B3" unicode="&#x4b3;" horiz-adv-x="901" 
d="M797 1024l-268 -492l231 -397h80v-389h-147v254h-17l-227 397h-4l-219 -397h-164l301 532l-289 492h164l207 -375h4l184 375h164z" />
    <glyph glyph-name="uni04B6" unicode="&#x4b6;" horiz-adv-x="1118" 
d="M942 -254v254h-123v623h-4q-68 -104 -118 -138q-82 -55 -220 -55q-395 0 -395 535v469h164v-436q0 -218 67 -314q63 -90 195 -90q153 0 236 119q75 108 75 295v426h164v-1299h115v-389h-156z" />
    <glyph glyph-name="uni04B7" unicode="&#x4b7;" horiz-adv-x="864" 
d="M697 -254v254h-116v422h-4q-28 -37 -81.5 -59.5t-110.5 -22.5q-160 0 -239 108q-64 88 -64 232v344h156v-332q0 -112 40 -163.5t127 -51.5q176 0 176 221v326h156v-889h107v-389h-147z" />
    <glyph glyph-name="uni04BA" unicode="&#x4ba;" horiz-adv-x="1147" 
d="M123 1434h164v-562h4q61 93 139.5 133t198.5 40q395 0 395 -535v-510h-164v477q0 218 -67 314q-63 90 -195 90q-153 0 -236 -119q-75 -108 -75 -295v-467h-164v1434z" />
    <glyph glyph-name="uni04BB" unicode="&#x4bb;" horiz-adv-x="901" 
d="M123 1024h156v-422h4q28 37 81.5 59.5t110.5 22.5q160 0 239 -108q64 -88 64 -232v-344h-156v332q0 112 -40 163.5t-127 51.5q-176 0 -176 -221v-326h-156v1024z" />
    <glyph glyph-name="uni04C0" unicode="&#x4c0;" horiz-adv-x="410" 
d="M287 1434v-1434h-164v1434h164z" />
    <glyph glyph-name="uni04C1" unicode="&#x4c1;" horiz-adv-x="1556" 
d="M860 1434v-615h41l406 615h188l-449 -680l469 -754h-188l-426 684h-41v-684h-164v684h-41l-426 -684h-188l471 754l-451 680h188l406 -615h41v615h164zM909 1712h113q-18 -103 -91 -154q-61 -43 -151 -43q-101 0 -165 57q-58 51 -76 140h112q36 -95 129 -95q95 0 129 95z
" />
    <glyph glyph-name="uni04C2" unicode="&#x4c2;" horiz-adv-x="1270" 
d="M713 1024v-410h20l289 410h176l-335 -475l366 -549h-176l-320 479h-20v-479h-156v479h-21l-319 -479h-176l369 549l-343 475h177l292 -410h21v410h156zM764 1352h113q-18 -103 -91 -154q-62 -43 -151 -43q-102 0 -166 57q-57 51 -76 140h113q36 -95 129 -95q94 0 129 95z
" />
    <glyph glyph-name="uni04CF" unicode="&#x4cf;" horiz-adv-x="410" 
d="M287 1434v-1434h-164v1434h164z" />
    <glyph glyph-name="uni04D8" unicode="&#x4d8;" horiz-adv-x="1188" 
d="M580 1328q-129 0 -204 -76q-62 -63 -110 -199q-143 29 -155 29q74 217 168 295q104 86 301 86q302 0 428 -226q98 -177 98 -514q0 -391 -137 -576q-130 -176 -389 -176q-275 0 -395 233q-99 191 -103 558h860q-14 308 -96 435q-84 131 -266 131zM940 621h-692
q19 -252 93 -377q83 -138 239 -138q201 0 287 176q56 116 73 339z" />
    <glyph glyph-name="uni04D9" unicode="&#x4d9;" horiz-adv-x="971" 
d="M475 917q-184 0 -239 -188l-140 25q42 159 138 227q88 63 241 63q222 0 327 -161q87 -133 87 -367q0 -272 -117 -411q-106 -125 -297 -125q-207 0 -307 168q-86 146 -86 409h651q-8 191 -73 277q-63 83 -185 83zM729 430h-487q11 -153 70 -237q60 -86 163 -86
q231 0 254 323z" />
    <glyph glyph-name="uni04E2" unicode="&#x4e2;" horiz-adv-x="1126" 
d="M123 0v1434h147v-1067h4l599 1067h131v-1434h-147v1112h-4l-624 -1112h-106zM318 1556v115h504v-115h-504z" />
    <glyph glyph-name="uni04E3" unicode="&#x4e3;" horiz-adv-x="963" 
d="M688 0v733h-4l-425 -733h-136v1024h152v-733h4l425 733h136v-1024h-152zM246 1212v115h504v-115h-504z" />
    <glyph glyph-name="uni04E8" unicode="&#x4e8;" horiz-adv-x="1147" 
d="M82 717q0 401 131 582q120 164 358 164q275 0 394 -214q100 -181 100 -532q0 -412 -132 -588q-118 -158 -362 -158q-274 0 -389 207q-100 178 -100 539zM571 106q178 0 257 159q69 138 73 415h-655q5 -317 92 -453q78 -121 233 -121zM571 1328q-298 0 -323 -505h649
q-25 505 -326 505z" />
    <glyph glyph-name="uni04E9" unicode="&#x4e9;" horiz-adv-x="950" 
d="M475 -20q-209 0 -310 161q-83 134 -83 367q0 273 111 411q100 125 282 125q207 0 308 -162q85 -136 85 -374q0 -268 -109 -404q-101 -124 -284 -124zM475 917q-224 0 -237 -364h473q-11 364 -236 364zM475 107q120 0 177 93q46 75 57 218h-469q22 -311 235 -311z" />
    <glyph glyph-name="uni04EE" unicode="&#x4ee;" 
d="M1024 1434l-401 -1088q-83 -223 -182 -304q-87 -71 -228 -71h-90v135h68q194 0 260 240l-410 1088h172l322 -881h4l313 881h172zM285 1556v115h504v-115h-504z" />
    <glyph glyph-name="uni04EF" unicode="&#x4ef;" horiz-adv-x="938" 
d="M876 1024l-330 -1024q-69 -201 -143 -282q-79 -87 -199 -87h-82v127h61q141 0 207 242l-329 1024h159l246 -815h4l246 815h160zM217 1212v115h504v-115h-504z" />
    <glyph glyph-name="uni2011" unicode="&#x2011;" horiz-adv-x="696" 
d="M102 528v156h492v-156h-492z" />
    <glyph glyph-name="figuredash" unicode="&#x2012;" horiz-adv-x="1024" 
d="M102 631v135h819v-135h-819z" />
    <glyph glyph-name="endash" unicode="&#x2013;" horiz-adv-x="1024" 
d="M102 631v135h819v-135h-819z" />
    <glyph glyph-name="emdash" unicode="&#x2014;" horiz-adv-x="1536" 
d="M102 631v135h1331v-135h-1331z" />
    <glyph glyph-name="afii00208" unicode="&#x2015;" horiz-adv-x="1536" 
d="M102 631v135h1331v-135h-1331z" />
    <glyph glyph-name="quoteleft" unicode="&#x2018;" horiz-adv-x="360" 
d="M102 1081v176l62 177h73l-41 -177h62v-176h-156z" />
    <glyph glyph-name="quoteright" unicode="&#x2019;" horiz-adv-x="360" 
d="M258 1434v-177l-62 -176h-74l42 176h-62v177h156z" />
    <glyph glyph-name="quotesinglbase" unicode="&#x201a;" horiz-adv-x="360" 
d="M258 176v-176l-62 -176h-74l42 176h-62v176h156z" />
    <glyph glyph-name="quotedblleft" unicode="&#x201c;" horiz-adv-x="606" 
d="M347 1081v176l62 177h74l-42 -177h62v-176h-156zM102 1081v176l62 177h73l-41 -177h62v-176h-156z" />
    <glyph glyph-name="quotedblright" unicode="&#x201d;" horiz-adv-x="606" 
d="M258 1434v-177l-62 -176h-74l42 176h-62v177h156zM503 1434v-177l-62 -176h-73l41 176h-62v177h156z" />
    <glyph glyph-name="quotedblbase" unicode="&#x201e;" horiz-adv-x="606" 
d="M258 176v-176l-62 -176h-74l42 176h-62v176h156zM503 176v-176l-62 -176h-73l41 176h-62v176h156z" />
    <glyph glyph-name="dagger" unicode="&#x2020;" horiz-adv-x="655" 
d="M266 1434h123v-185h144v-102h-144v-533h-123v533h-143v102h143v185z" />
    <glyph glyph-name="daggerdbl" unicode="&#x2021;" horiz-adv-x="655" 
d="M266 1434h123v-185h144v-102h-144v-246h144v-102h-144v-185h-123v185h-143v102h143v246h-143v102h143v185z" />
    <glyph glyph-name="bullet" unicode="&#x2022;" horiz-adv-x="696" 
d="M102 595q0 109 81 181q69 63 165 63q109 0 182 -80q64 -70 64 -164q0 -108 -81 -179q-70 -62 -165 -62q-110 0 -183 79q-63 68 -63 162z" />
    <glyph glyph-name="ellipsis" unicode="&#x2026;" horiz-adv-x="1024" 
d="M258 176v-176h-156v176h156zM590 176v-176h-156v176h156zM921 176v-176h-156v176h156z" />
    <glyph glyph-name="perthousand" unicode="&#x2030;" horiz-adv-x="1987" 
d="M379 1463q252 0 252 -336q0 -338 -252 -338q-256 0 -256 338q0 336 256 336zM379 1348q-129 0 -129 -221q0 -223 129 -223q127 0 127 223q0 221 -127 221zM1147 1434l-778 -1463h-144l779 1463h143zM997 645q252 0 252 -336q0 -338 -252 -338q-256 0 -256 338
q0 336 256 336zM997 530q-129 0 -129 -221q0 -223 129 -223q127 0 127 223q0 221 -127 221zM1612 645q252 0 252 -336q0 -338 -252 -338q-256 0 -256 338q0 336 256 336zM1612 530q-129 0 -129 -221q0 -223 129 -223q127 0 127 223q0 221 -127 221z" />
    <glyph glyph-name="guilsinglleft" unicode="&#x2039;" horiz-adv-x="635" 
d="M445 221l-322 316l322 313l67 -64l-205 -249l205 -252z" />
    <glyph glyph-name="guilsinglright" unicode="&#x203a;" horiz-adv-x="635" 
d="M512 537l-321 -316l-68 64l205 252l-205 249l68 64z" />
    <glyph glyph-name="glyph507" unicode="&#x2044;" horiz-adv-x="922" 
d="M922 1434l-779 -1463h-143l778 1463h144z" />
    <glyph glyph-name="Euro" unicode="&#x20ac;" horiz-adv-x="1106" 
d="M1044 1129l-149 -37q-42 128 -115 184q-66 52 -168 52q-282 0 -319 -443h481l-41 -127h-446q-2 -28 -2 -60q0 -42 4 -100h393l-41 -127h-340q28 -199 112 -287q75 -78 199 -78q208 0 281 261l151 -39q-53 -198 -163 -281q-100 -76 -269 -76q-227 0 -344 140
q-103 121 -133 360h-135l41 127h84q-4 43 -4 99q0 37 2 61h-123l41 127h88q27 310 156 451q117 127 327 127q190 0 296 -96q86 -78 136 -238z" />
    <glyph glyph-name="uni20BD" unicode="&#x20bd;" horiz-adv-x="1106" 
d="M41 442h164v156h-164v135h164v701h350q490 0 490 -422q0 -414 -473 -414h-203v-156h465v-135h-465v-307h-164v307h-164v135zM369 733h191q181 0 253 69q68 65 68 210q0 155 -79.5 221t-266.5 66h-166v-566z" />
    <glyph glyph-name="afii61352" unicode="&#x2116;" horiz-adv-x="2077" 
d="M1249 135h705v-135h-705v135zM1003 1434v-1434h-106l-623 1112h-4v-1112h-147v1434h131l598 -1067h4v1067h147zM1602 260q-210 0 -310 161q-84 134 -84 367q0 274 111 412q101 125 283 125q207 0 308 -162q85 -137 85 -375q0 -268 -109 -404q-101 -124 -284 -124z
M1602 387q136 0 192 120q45 96 45 281q0 410 -237 410q-238 0 -238 -410q0 -212 60 -308q57 -93 178 -93z" />
    <glyph glyph-name="trademark" unicode="&#x2122;" horiz-adv-x="1229" 
d="M123 1434h371v-90h-134v-484h-104v484h-133v90zM1010 1241h-4l-134 -381h-67l-138 381h-4v-381h-96v574h129l139 -387h5l139 387h127v-574h-96v381z" />
    <glyph glyph-name="minus" unicode="&#x2212;" horiz-adv-x="1106" 
d="M102 631v135h901v-135h-901z" />
    <glyph glyph-name="fraction" unicode="&#x2215;" horiz-adv-x="922" 
d="M922 1434l-779 -1463h-143l778 1463h144z" />
    <glyph glyph-name="radical" unicode="&#x221a;" horiz-adv-x="1311" 
d="M1188 1577l-408 -1819h-168l-290 910l-166 -58l-33 105l301 104l264 -819l353 1577h147z" />
    <glyph glyph-name="approxequal" unicode="&#x2248;" horiz-adv-x="1106" 
d="M370 895q-41 0 -74 -29t-81 -108l-113 69q104 197 268 197q70 0 191 -67q116 -64 180 -64q42 0 71.5 26.5t77.5 104.5l113 -70q-104 -196 -262 -196q-77 0 -198 72q-110 65 -173 65zM370 539q-41 0 -74 -29t-81 -109l-113 70q104 197 268 197q70 0 191 -68
q116 -64 180 -64q41 0 71 26.5t78 105.5l113 -70q-104 -197 -262 -197q-76 0 -198 72q-111 66 -173 66z" />
    <glyph glyph-name="notequal" unicode="&#x2260;" horiz-adv-x="1106" 
d="M798 1159l-84 -205h289v-135h-344l-98 -242h442v-135h-498l-84 -204h-114l84 204h-289v135h344l98 242h-442v135h498l83 205h115z" />
    <glyph glyph-name="lessequal" unicode="&#x2264;" horiz-adv-x="1106" 
d="M102 135h901v-135h-901v135zM102 631v135l901 430v-156l-717 -342l717 -342v-155z" />
    <glyph glyph-name="greaterequal" unicode="&#x2265;" horiz-adv-x="1106" 
d="M102 135h901v-135h-901v135zM1003 766v-135l-901 -430v155l717 342l-717 342v156z" />
    <glyph glyph-name="dotmath" unicode="&#x22c5;" horiz-adv-x="565" 
d="M361 819v-176h-156v176h156z" />
    <glyph glyph-name="uniE001" unicode="&#xe001;" horiz-adv-x="586" 
d="M123 -328l34 62q66 -53 142 -53q43 0 71.5 22t28.5 55t-29 55.5t-71 22.5q-39 0 -62 -16l-22 12l107 184q-73 27 -105.5 95t-32.5 194v592h-143v127h143l29 303h127v-303h164v-127h-164v-590q0 -106 21 -141q23 -39 90 -39h73v-127h-88q-28 0 -41 2l-55 -96l2 -2
q16 4 33 4q55 0 100 -47t45 -104q0 -154 -215 -154q-113 0 -182 69z" />
    <glyph glyph-name="uniE002" unicode="&#xe002;" horiz-adv-x="655" 
d="M244 1358h73q107 0 107 -90q0 -63 -45 -82l59 -105h-67l-56 95h-14v-95h-57v277zM301 1235h18q44 0 44 33q0 31 -48 31h-14v-64zM82 1217q0 109 81 182q71 64 165 64q109 0 182 -81q64 -71 64 -165q0 -109 -81 -182q-71 -64 -165 -64q-109 0 -182 81q-64 71 -64 165z
M139 1217q0 -84 62 -140q54 -49 127 -49q84 0 140 62q49 54 49 127q0 84 -62 140q-54 49 -127 49q-84 0 -140 -62q-49 -54 -49 -127z" />
    <glyph glyph-name="uniE003" unicode="&#xe003;" horiz-adv-x="655" 
d="M41 1434h206v-53h-71v-248h-63v248h-72v53zM430 1248h4l67 186h72v-301h-57v168h-4l-58 -168h-47l-59 168h-4v-168h-57v301h75z" />
    <glyph glyph-name="uniE004" unicode="&#xe004;" horiz-adv-x="8319" 
d="M287 684v-684h-164v1434h164v-615h573v615h164v-1434h-164v684h-573zM1892 0l-24 106h-4q-34 -56 -114.5 -91t-174.5 -35q-305 0 -305 360v684h156v-684q0 -124 32 -173q39 -60 140 -60q78 0 146 47.5t99 124.5v745h156v-1024h-107zM2859 854l-115 -88q-89 143 -218 143
q-81 0 -127 -43q-41 -38 -41 -98q0 -50 40.5 -83t160.5 -82q163 -67 225 -123q92 -83 92 -211q0 -143 -105 -222q-88 -67 -225 -67q-126 0 -232 63q-94 56 -151 150l114 86q109 -164 269 -164q88 0 135 47q42 41 42 106q0 60 -45 99.5t-175 94.5q-155 66 -213 118
q-84 75 -84 188q0 132 102 209q88 67 217 67q104 0 181.5 -44t152.5 -146zM3653 918l25 106h111v-1393h-156v475h-4q-75 -127 -241 -127q-207 0 -299 177q-70 133 -70 360q0 528 369 528q86 0 156 -34t105 -92h4zM3633 422v323q-30 78 -91.5 125t-133.5 47q-134 0 -189 -122
q-44 -97 -44 -288q0 -217 58 -311q56 -90 175 -90q103 0 169 103q56 89 56 213zM4768 1024l-330 -1024h-155l-330 1024h160l245 -815h4l246 815h160zM5632 0h-111l-24 106h-4q-97 -126 -291 -126q-161 0 -253 90q-79 78 -79 201q0 109 80 186.5t252 134.5l274 92v19
q0 115 -48.5 164.5t-162.5 49.5q-87 0 -144 -43.5t-77 -123.5l-141 28q59 266 362 266q203 0 289 -95q78 -86 78 -265v-684zM5476 344v213l-274 -98q-176 -65 -176 -188q0 -75 48 -119.5t128 -44.5q129 0 206 72q68 64 68 165zM5989 1024l25 -106h4q40 66 116 96t203 30
v-155q-29 8 -67 8q-131 0 -186 -76q-50 -69 -50 -219v-602h-156v1024h111zM6611 1024l25 -106h4q34 56 112.5 91t172.5 35q305 0 305 -360v-684h-156v684q0 124 -32 173q-39 60 -140 60q-78 0 -146 -47.5t-100 -124.5v-745h-156v1024h111zM8196 0h-111l-24 106h-5
q-96 -126 -290 -126q-161 0 -253 90q-79 78 -79 201q0 109 80 186.5t252 134.5l274 92v19q0 115 -49 164.5t-162 49.5q-87 0 -144.5 -43.5t-76.5 -123.5l-141 28q59 266 362 266q203 0 289 -95q78 -86 78 -265v-684zM8040 344v213l-274 -98q-176 -65 -176 -188
q0 -75 47.5 -119.5t128.5 -44.5q129 0 206 72q68 64 68 165z" />
    <glyph glyph-name="uniE005" unicode="&#xe005;" horiz-adv-x="848" 
d="M610 293q0 186 -215 186h-41v125h39q188 0 188 172q0 66 -41 103.5t-114 37.5q-66 0 -108 -27t-83 -95l-112 79q70 96 136 132q68 38 167 38q139 0 231 -87q80 -76 80 -181q0 -148 -143 -225v-4q172 -66 172 -254q0 -149 -101 -235q-92 -78 -239 -78q-246 0 -344 225
l118 69q49 -93 99 -130t127 -37q88 0 136 48.5t48 137.5zM442 1372h218l-205 -196h-135z" />
    <glyph glyph-name="uniE006" unicode="&#xe006;" horiz-adv-x="885" 
d="M684 295l139 -25q-42 -160 -127 -227q-81 -63 -221 -63q-209 0 -310 161q-83 134 -83 367q0 273 111 411q101 125 282 125q156 0 244 -88q70 -70 104 -206l-141 -25q-42 192 -207 192q-237 0 -237 -409q0 -212 60 -308q57 -93 177 -93q83 0 131 43.5t78 144.5zM492 1372
h217l-205 -196h-135z" />
    <glyph glyph-name="uniE007" unicode="&#xe007;" horiz-adv-x="942" 
d="M280 -328l35 62q66 -53 142 -53q43 0 71.5 22t28.5 55t-29 55.5t-71 22.5q-39 0 -62 -16l-22 12l98 168h-82v1299h-348v135h860v-135h-348v-1299l-55 -94l2 -2q16 4 33 4q54 0 99.5 -47t45.5 -104q0 -154 -215 -154q-113 0 -183 69z" />
    <glyph glyph-name="uniE008" unicode="&#xe008;" horiz-adv-x="1106" 
d="M873 399l151 -36q-52 -218 -165 -309q-104 -83 -288 -83q-274 0 -389 207q-100 178 -100 539q0 401 131 582q120 164 358 164q195 0 300 -101q86 -81 137 -250l-150 -37q-42 138 -114 197q-67 56 -172 56q-180 0 -259 -177q-67 -149 -67 -434q0 -337 88 -482
q78 -129 238 -129q127 0 202 82q65 71 99 211zM594 1733h217l-205 -197h-135z" />
    <glyph glyph-name="uniE009" unicode="&#xe009;" horiz-adv-x="1081" 
d="M735 762v-4q265 -76 265 -365q0 -200 -150 -320q-128 -102 -317 -102q-311 0 -451 289l123 70q62 -119 139 -171.5t189 -52.5q144 0 229 88q74 78 74 199q0 291 -336 291h-35v135h33q297 0 297 275q0 118 -75 180q-65 54 -173 54q-93 0 -157.5 -37.5t-133.5 -131.5
l-113 82q162 222 404 222q190 0 309 -119q103 -103 103 -250q0 -247 -224 -332zM584 1733h217l-205 -197h-135z" />
    <glyph glyph-name="uniE00A" unicode="&#xe00a;" horiz-adv-x="1253" 
d="M469 1327h123l-63 -391h284l64 391h123l-64 -391h195l-21 -119h-192l-50 -307h193l-20 -115h-193l-61 -395h-123l61 395h-285l-61 -395h-123l62 395h-195l20 115h195l49 307h-196l22 119h193zM510 817l-51 -307h287l49 307h-285z" />
    <glyph glyph-name="uniE00B" unicode="&#xe00b;" horiz-adv-x="1884" 
d="M1884 1171l-942 -1191l-942 1191h811v578h262v-578h811zM942 338l483 610h-966z" />
    <glyph glyph-name="uniE00C" unicode="&#xe00c;" horiz-adv-x="1884" 
d="M1884 578h-811v-578h-262v578h-811l942 1192zM942 1411l-483 -610h966z" />
    <glyph glyph-name="uniE00F" unicode="&#xe00f;" horiz-adv-x="1098" 
d="M549 1463q260 0 374 -224q93 -183 93 -522q0 -375 -123 -564q-118 -182 -346 -182q-269 0 -380 234q-85 179 -85 512q0 379 136 574q121 172 331 172zM555 1328q-309 0 -309 -611t299 -611q307 0 307 611q0 331 -78 477q-71 134 -219 134z" />
    <glyph glyph-name="uniE010" unicode="&#xe010;" horiz-adv-x="1098" 
d="M983 135v-135h-860v106l279 289q254 265 338 403q79 131 79 259q0 130 -75 204q-69 67 -183 67q-98 0 -173 -73.5t-115 -209.5l-144 37q111 381 434 381q201 0 315 -115q105 -108 105 -291q0 -150 -107 -323.5t-344 -405.5l-184 -193h635z" />
    <glyph glyph-name="uniE011" unicode="&#xe011;" horiz-adv-x="1098" 
d="M735 762v-4q265 -76 265 -365q0 -200 -150 -320q-128 -102 -317 -102q-311 0 -451 289l123 70q62 -119 139 -171.5t189 -52.5q144 0 229 88q74 78 74 199q0 291 -336 291h-35v135h33q297 0 297 275q0 118 -75 180q-65 54 -173 54q-93 0 -157.5 -37.5t-133.5 -131.5
l-113 82q162 222 404 222q190 0 309 -119q103 -103 103 -250q0 -247 -224 -332z" />
    <glyph glyph-name="uniE012" unicode="&#xe012;" horiz-adv-x="1098" 
d="M831 1434v-943h225v-135h-225v-356h-164v356h-610v114l590 964h184zM667 491v724h-4l-442 -724h446z" />
    <glyph glyph-name="uniE013" unicode="&#xe013;" horiz-adv-x="1098" 
d="M921 1434v-135h-586l-34 -436h4q42 42 107.5 67t135.5 25q228 0 349 -146q106 -129 106 -346q0 -244 -149 -378q-127 -114 -326 -114q-145 0 -262 83q-101 71 -164 194l123 72q63 -111 153 -168q74 -46 150 -46q143 0 230 104q81 97 81 253q0 175 -93 274q-79 83 -198 83
q-84 0 -158.5 -46.5t-121.5 -128.5l-127 39l63 750h717z" />
    <glyph glyph-name="uniE014" unicode="&#xe014;" horiz-adv-x="1098" 
d="M950 1299l-129 -82q-85 111 -234 111q-193 0 -281 -222q-58 -147 -58 -346h4q117 133 336 133q198 0 322 -151q106 -130 106 -310q0 -212 -123 -338q-119 -123 -326 -123q-469 0 -469 644q0 450 122 652q118 196 367 196q239 0 363 -164zM272 432q0 -163 94 -251
q78 -75 201 -75q142 0 223 98q72 87 72 228q0 159 -93 250q-79 76 -202 78q-141 2 -223 -99q-72 -89 -72 -229z" />
    <glyph glyph-name="uniE015" unicode="&#xe015;" horiz-adv-x="1098" 
d="M123 1434h840v-106l-553 -1328h-164l561 1299h-684v135z" />
    <glyph glyph-name="uniE016" unicode="&#xe016;" horiz-adv-x="1098" 
d="M764 776v-4q262 -93 262 -393q0 -194 -151 -308q-132 -100 -336 -100q-223 0 -354 127q-113 109 -113 273q0 307 256 401v4q-120 67 -162 154q-33 67 -33 176q0 166 128 267q114 90 288 90q195 0 314 -115q102 -99 102 -242q0 -120 -44.5 -193t-156.5 -137zM236 403
q0 -147 104 -230q85 -67 209 -67q143 0 231 90q78 81 78 207q0 145 -101 228q-84 70 -208 70q-143 0 -232 -90q-81 -82 -81 -208zM297 1086q0 -113 83 -183q70 -59 169 -59q115 0 187 74q65 67 65 168q0 116 -83 185q-70 57 -169 57q-115 0 -187 -74q-65 -67 -65 -168z" />
    <glyph glyph-name="uniE017" unicode="&#xe017;" horiz-adv-x="1098" 
d="M148 135l129 82q85 -111 233 -111q194 0 282 222q58 147 58 346h-4q-118 -133 -336 -133q-198 0 -322 152q-106 129 -106 309q0 212 123 338q119 123 326 123q469 0 469 -644q0 -450 -122 -652q-118 -196 -368 -196q-238 0 -362 164zM826 1002q0 163 -94 251
q-78 75 -201 75q-142 0 -223 -98q-72 -87 -72 -228q0 -159 93 -249q79 -77 202 -79q141 -2 223 99q72 88 72 229z" />
    <glyph glyph-name="uniE018" unicode="&#xe018;" horiz-adv-x="360" 
d="M258 -127v-156l-62 -135h-74l42 135h-62v156h156z" />
    <glyph glyph-name="uniE019" unicode="&#xe019;" horiz-adv-x="1098" 
d="M270 135h287v1113l-215 -140l-76 117l312 209h131v-1299h286v-135h-725v135z" />
    <glyph glyph-name="glyph65" horiz-adv-x="410" 
 />
    <glyph glyph-name="glyph97" horiz-adv-x="410" 
 />
    <glyph glyph-name="glyph146" horiz-adv-x="410" 
 />
    <glyph glyph-name="glyph152" horiz-adv-x="410" 
 />
    <glyph glyph-name="glyph153" horiz-adv-x="410" 
 />
    <glyph glyph-name="glyph154" horiz-adv-x="410" 
 />
    <glyph glyph-name="glyph156" horiz-adv-x="410" 
 />
    <glyph glyph-name="glyph164" horiz-adv-x="410" 
 />
    <glyph glyph-name="glyph166" horiz-adv-x="410" 
 />
    <glyph glyph-name="glyph172" horiz-adv-x="1098" 
 />
    <glyph glyph-name="glyph185" horiz-adv-x="410" 
 />
    <glyph glyph-name="glyph210" horiz-adv-x="410" 
 />
    <glyph glyph-name="Tilde" 
d="M416 1720q67 0 132 -39q43 -26 71 -26q44 0 55 65h111q-9 -85 -45.5 -134.5t-89.5 -49.5q-65 0 -134 40q-43 25 -69 25q-44 0 -55 -65h-111q9 87 45 135.5t90 48.5z" />
    <glyph glyph-name="Hungarumlaut" horiz-adv-x="1147" 
d="M469 1733h194l-180 -197h-135zM756 1733h194l-180 -197h-135z" />
    <glyph glyph-name="Cedilla" horiz-adv-x="643" 
d="M123 -328l35 62q65 -53 141 -53q43 0 71.5 22t28.5 55t-28.5 55.5t-71.5 22.5q-38 0 -61 -16l-23 12l98 168h82l-55 -94l2 -2q16 4 33 4q55 0 100 -47t45 -104q0 -154 -215 -154q-112 0 -182 69z" />
    <glyph glyph-name="Ogonek" horiz-adv-x="643" 
d="M344 -311q72 0 133 47l43 -66q-78 -67 -182 -67q-215 0 -215 160q0 141 162 237h90q-141 -110 -141 -209q0 -45 31 -73.5t79 -28.5z" />
    <glyph glyph-name="Macron" horiz-adv-x="1147" 
d="M322 1556v115h504v-115h-504z" />
    <glyph glyph-name="Commaaccent" 
d="M607 -127v-156l-62 -135h-74l42 135h-62v156h156z" />
    <glyph glyph-name="Caron" horiz-adv-x="1004" 
d="M589 1536h-196l-164 197h143l119 -105l119 105h143z" />
    <glyph glyph-name="Circumflex" 
d="M434 1733h196l164 -197h-143l-119 105l-119 -105h-143z" />
    <glyph glyph-name="Comma.high" horiz-adv-x="840" 
d="M545 1454v-156l-62 -135h-74l42 135h-62v156h156z" />
    <glyph glyph-name="Breve" horiz-adv-x="1106" 
d="M707 1712h112q-17 -103 -91 -154q-61 -43 -150 -43q-102 0 -166 57q-58 51 -76 140h113q35 -95 129 -95t129 95z" />
    <glyph glyph-name="commaaccent" horiz-adv-x="815" 
d="M496 -127v-156l-62 -135h-74l42 135h-62v156h156z" />
    <glyph glyph-name="comma.high" horiz-adv-x="586" 
d="M578 1454v-156l-62 -135h-74l42 135h-62v156h156z" />
    <glyph glyph-name="dieresis.alt" horiz-adv-x="401" 
d="M125 1372v-176h-156v176h156zM432 1372v-176h-156v176h156z" />
    <glyph glyph-name="commareversed" horiz-adv-x="975" 
d="M418 1192v156l62 135h73l-41 -135h62v-156h-156z" />
    <glyph glyph-name="Grave" 
d="M289 1733h217l123 -197h-135z" />
    <glyph glyph-name="Acute" 
d="M559 1733h217l-205 -197h-135z" />
    <glyph glyph-name="Ring" 
d="M348 1698q0 82 61 137q52 47 123 47q83 0 138 -61q47 -52 47 -123q0 -83 -61 -138q-52 -47 -124 -47q-82 0 -137 61q-47 52 -47 124zM442 1698q0 -38 26.5 -64.5t63.5 -26.5q38 0 64.5 26.5t26.5 64.5q0 37 -26.5 63.5t-64.5 26.5q-37 0 -63.5 -26.5t-26.5 -63.5z" />
    <glyph glyph-name="Dotaccent" horiz-adv-x="1004" 
d="M566 1733v-176h-156v176h156z" />
    <glyph glyph-name="Dieresis" 
d="M457 1733v-176h-156v176h156zM764 1733v-176h-156v176h156z" />
    <glyph glyph-name="Dieresis.alt" horiz-adv-x="410" 
d="M129 1733v-176h-156v176h156zM436 1733v-176h-156v176h156z" />
    </font>
</defs>
</svg>
